M48
METRIC,LZ,000.000
;FILE_FORMAT=3:3
;TYPE=PLATED
;Layer: PTH_Through
;EasyEDA v6.5.47, 2024-09-23 22:29:33
;5a6e75cfa2c046329717b22c304bfbd2,c2d4411aa706456985f533cd49438c3a,10
;Gerber Generator version 0.2
;Holesize 1 = 0.306 mm
T01C0.306
;Holesize 2 = 1.000 mm
T02C1.000
%
G05
G90
T01
X044389Y-006258
X063373Y-004063
X036304Y-005744
X021529Y-005941
X020466Y-030614
T02
X071870Y-039338
X068370Y-039338
X071870Y-056261
X068370Y-056261
X059690Y-045657
X062230Y-045657
X064770Y-045657
X051471Y-045657
X054011Y-045657
X056551Y-045657
X043253Y-045657
X045793Y-045657
X048333Y-045657
X035034Y-045657
X037574Y-045657
X040114Y-045657
X026815Y-045657
X029355Y-045657
X031895Y-045657
X061849Y-061030
X061849Y-050730
X053630Y-061030
X053630Y-050730
X045412Y-061030
X045412Y-050730
X037193Y-061030
X037193Y-050730
X058293Y-021717
X060833Y-021717
X063373Y-021717
X065913Y-021717
X065913Y-014097
X063373Y-014097
X060833Y-014097
X058293Y-014097
X062230Y-041180
X062230Y-032480
X054011Y-041180
X054011Y-032480
X045793Y-041180
X045793Y-032480
X037574Y-041180
X037574Y-032480
X018597Y-045657
X021137Y-045657
X023677Y-045657
X010378Y-045657
X012918Y-045657
X015458Y-045657
X002159Y-045657
X004699Y-045657
X007239Y-045657
X029355Y-041180
X029355Y-032480
X021136Y-041180
X021136Y-032480
X012918Y-041180
X012918Y-032480
X004699Y-041180
X004699Y-032480
X028974Y-061030
X028974Y-050730
X020755Y-061030
X020755Y-050730
X012537Y-061030
X012537Y-050730
X004318Y-061030
X004318Y-050730
X018599Y-003429
X028899Y-003429
X004756Y-003429
X015056Y-003429
X063024Y-027940
X054324Y-027940
X072898Y-048292
X070358Y-048292
X067818Y-048292
X072898Y-031369
X070358Y-031369
X067818Y-031369
M30
