G04 Layer: TopPasteMaskLayer*
G04 EasyEDA v6.5.47, 2024-09-23 22:29:33*
G04 5a6e75cfa2c046329717b22c304bfbd2,c2d4411aa706456985f533cd49438c3a,10*
G04 Gerber Generator version 0.2*
G04 Scale: 100 percent, Rotated: No, Reflected: No *
G04 Dimensions in millimeters *
G04 leading zeros omitted , absolute positions ,4 integer and 5 decimal *
%FSLAX45Y45*%
%MOMM*%

%ADD10R,1.6000X3.2000*%
%ADD11R,3.2000X1.6000*%
%ADD12R,1.5000X1.5000*%

%LPD*%
D10*
G01*
X5073904Y-781964D03*
G01*
X5073904Y-2799435D03*
G01*
X4819904Y-781964D03*
G01*
X4819904Y-2799435D03*
G01*
X4565904Y-781964D03*
G01*
X4565904Y-2799435D03*
G01*
X4311904Y-781964D03*
G01*
X4311904Y-2799435D03*
G01*
X4057904Y-781964D03*
G01*
X4057904Y-2799435D03*
G01*
X3803904Y-781964D03*
G01*
X3803904Y-2799435D03*
G01*
X3549904Y-781964D03*
G01*
X3549904Y-2799435D03*
G01*
X3295904Y-781964D03*
G01*
X3295904Y-2799435D03*
G01*
X3041904Y-781964D03*
G01*
X3041904Y-2799435D03*
G01*
X2787904Y-781964D03*
G01*
X2787904Y-2799435D03*
G01*
X2533904Y-781964D03*
G01*
X2533904Y-2799435D03*
G01*
X2279904Y-781964D03*
G01*
X2279904Y-2799435D03*
G01*
X2025904Y-781964D03*
G01*
X2025904Y-2799435D03*
G01*
X1771904Y-781964D03*
G01*
X1771904Y-2799435D03*
G01*
X1517904Y-781964D03*
G01*
X1517904Y-2799435D03*
G01*
X1263904Y-781964D03*
G01*
X1263904Y-2799435D03*
G01*
X1009904Y-781964D03*
G01*
X1009904Y-2799435D03*
G01*
X755904Y-781964D03*
G01*
X755904Y-2799435D03*
G01*
X501904Y-781964D03*
G01*
X501904Y-2799435D03*
G01*
X247904Y-781964D03*
G01*
X247904Y-2799435D03*
D11*
G01*
X5153888Y-2044700D03*
G01*
X5153888Y-1790700D03*
G01*
X5153888Y-1536700D03*
D12*
G01*
X560908Y-1790700D03*
G01*
X230911Y-1690700D03*
G01*
X230911Y-1890699D03*
G01*
X910894Y-2040686D03*
G01*
X1173606Y-2040686D03*
G01*
X1410893Y-2040686D03*
M02*
