G04 Layer: BottomLayer*
G04 EasyEDA v6.5.47, 2024-09-23 22:29:33*
G04 5a6e75cfa2c046329717b22c304bfbd2,c2d4411aa706456985f533cd49438c3a,10*
G04 Gerber Generator version 0.2*
G04 Scale: 100 percent, Rotated: No, Reflected: No *
G04 Dimensions in millimeters *
G04 leading zeros omitted , absolute positions ,4 integer and 5 decimal *
%FSLAX45Y45*%
%MOMM*%

%ADD10C,0.2540*%
%ADD11C,1.6000*%
%ADD12O,1.7999964X1.7999964*%
%ADD13R,1.8000X1.8000*%
%ADD14C,1.5240*%
%ADD15R,1.6002X1.6002*%
%ADD16C,1.6002*%
%ADD17C,1.8000*%
%ADD18C,0.6100*%
%ADD19C,0.0194*%

%LPD*%
G36*
X36068Y-6224066D02*
G01*
X32156Y-6223304D01*
X28905Y-6221120D01*
X26670Y-6217818D01*
X25908Y-6213906D01*
X25908Y-36068D01*
X26670Y-32156D01*
X28905Y-28905D01*
X32156Y-26670D01*
X36068Y-25908D01*
X7463942Y-25908D01*
X7467803Y-26670D01*
X7471105Y-28905D01*
X7473289Y-32156D01*
X7474102Y-36068D01*
X7474102Y-6213906D01*
X7473289Y-6217818D01*
X7471105Y-6221120D01*
X7467803Y-6223304D01*
X7463942Y-6224066D01*
X6200546Y-6224066D01*
X6196330Y-6223152D01*
X6192875Y-6220561D01*
X6190792Y-6216751D01*
X6190538Y-6212433D01*
X6192062Y-6208369D01*
X6195161Y-6205321D01*
X6199225Y-6203848D01*
X6205220Y-6203035D01*
X6218377Y-6199428D01*
X6230924Y-6194094D01*
X6242659Y-6187186D01*
X6253378Y-6178702D01*
X6262878Y-6168898D01*
X6270955Y-6157925D01*
X6277508Y-6145987D01*
X6282385Y-6133236D01*
X6285585Y-6119977D01*
X6286906Y-6106414D01*
X6286449Y-6092799D01*
X6284214Y-6079337D01*
X6281064Y-6069126D01*
X6280607Y-6065520D01*
X6281470Y-6061964D01*
X6283553Y-6058966D01*
X6661861Y-5680608D01*
X6666992Y-5674410D01*
X6670548Y-5667705D01*
X6672732Y-5660491D01*
X6673545Y-5652465D01*
X6673545Y-4954371D01*
X6674408Y-4950206D01*
X6676948Y-4946751D01*
X6680657Y-4944668D01*
X6684873Y-4944262D01*
X6692392Y-4945126D01*
X6730441Y-4945126D01*
X6730441Y-4880559D01*
X6683705Y-4880559D01*
X6679793Y-4879797D01*
X6676542Y-4877612D01*
X6674307Y-4874310D01*
X6673545Y-4870399D01*
X6673545Y-4788001D01*
X6674307Y-4784140D01*
X6676542Y-4780838D01*
X6679793Y-4778654D01*
X6683705Y-4777841D01*
X6730441Y-4777841D01*
X6730441Y-4713325D01*
X6692392Y-4713325D01*
X6684873Y-4714189D01*
X6680657Y-4713782D01*
X6676948Y-4711649D01*
X6674408Y-4708245D01*
X6673545Y-4704080D01*
X6673545Y-4156049D01*
X6674307Y-4152137D01*
X6676542Y-4148836D01*
X6789978Y-4035399D01*
X6793077Y-4033265D01*
X6796735Y-4032402D01*
X6800443Y-4032961D01*
X6809587Y-4036060D01*
X6823151Y-4038752D01*
X6836968Y-4039666D01*
X6850786Y-4038752D01*
X6864400Y-4036060D01*
X6877507Y-4031589D01*
X6889953Y-4025493D01*
X6901434Y-4017772D01*
X6911848Y-4008628D01*
X6920992Y-3998214D01*
X6928713Y-3986733D01*
X6934809Y-3974287D01*
X6939280Y-3961180D01*
X6941972Y-3947617D01*
X6942886Y-3933799D01*
X6941972Y-3919982D01*
X6939280Y-3906367D01*
X6934809Y-3893261D01*
X6928713Y-3880815D01*
X6920992Y-3869334D01*
X6911848Y-3858920D01*
X6901434Y-3849776D01*
X6889953Y-3842054D01*
X6877507Y-3835958D01*
X6864400Y-3831488D01*
X6850786Y-3828796D01*
X6836968Y-3827881D01*
X6823151Y-3828796D01*
X6809587Y-3831488D01*
X6796481Y-3835958D01*
X6784035Y-3842054D01*
X6772554Y-3849776D01*
X6762140Y-3858920D01*
X6752996Y-3869334D01*
X6745274Y-3880815D01*
X6739178Y-3893261D01*
X6734708Y-3906367D01*
X6732016Y-3919982D01*
X6731101Y-3933799D01*
X6732016Y-3947617D01*
X6734708Y-3961180D01*
X6737807Y-3970324D01*
X6738366Y-3974033D01*
X6737502Y-3977690D01*
X6735368Y-3980789D01*
X6608013Y-4108196D01*
X6602882Y-4114393D01*
X6599326Y-4121099D01*
X6597142Y-4128312D01*
X6596329Y-4136339D01*
X6596329Y-4445355D01*
X6595414Y-4449572D01*
X6592874Y-4453026D01*
X6589115Y-4455109D01*
X6584797Y-4455414D01*
X6580784Y-4453991D01*
X6578193Y-4452366D01*
X6572758Y-4450435D01*
X6566408Y-4449724D01*
X6387592Y-4449724D01*
X6381242Y-4450435D01*
X6375806Y-4452366D01*
X6370878Y-4455464D01*
X6366814Y-4459528D01*
X6363716Y-4464456D01*
X6361785Y-4469892D01*
X6361074Y-4476242D01*
X6361074Y-4655058D01*
X6361785Y-4661408D01*
X6363716Y-4666843D01*
X6366814Y-4671771D01*
X6370878Y-4675835D01*
X6375806Y-4678934D01*
X6381242Y-4680864D01*
X6387592Y-4681575D01*
X6566408Y-4681575D01*
X6572758Y-4680864D01*
X6578193Y-4678934D01*
X6580784Y-4677308D01*
X6584797Y-4675886D01*
X6589115Y-4676190D01*
X6592874Y-4678273D01*
X6595414Y-4681728D01*
X6596329Y-4685944D01*
X6596329Y-5632754D01*
X6595567Y-5636666D01*
X6593331Y-5639968D01*
X6228892Y-6004407D01*
X6225794Y-6006541D01*
X6222136Y-6007354D01*
X6218377Y-6006795D01*
X6211874Y-6004560D01*
X6198514Y-6001816D01*
X6184900Y-6000902D01*
X6171285Y-6001816D01*
X6157925Y-6004560D01*
X6145022Y-6009030D01*
X6132880Y-6015177D01*
X6121654Y-6022898D01*
X6111494Y-6032042D01*
X6102705Y-6042456D01*
X6095390Y-6053937D01*
X6089650Y-6066332D01*
X6085586Y-6079337D01*
X6083350Y-6092799D01*
X6082893Y-6106414D01*
X6084214Y-6119977D01*
X6087414Y-6133236D01*
X6092291Y-6145987D01*
X6098844Y-6157925D01*
X6106922Y-6168898D01*
X6116421Y-6178702D01*
X6127140Y-6187186D01*
X6138875Y-6194094D01*
X6151422Y-6199428D01*
X6164580Y-6203035D01*
X6170574Y-6203848D01*
X6174638Y-6205321D01*
X6177737Y-6208369D01*
X6179261Y-6212433D01*
X6179007Y-6216751D01*
X6176924Y-6220561D01*
X6173470Y-6223152D01*
X6169253Y-6224066D01*
X5378704Y-6224066D01*
X5374436Y-6223152D01*
X5370982Y-6220561D01*
X5368950Y-6216751D01*
X5368645Y-6212433D01*
X5370169Y-6208369D01*
X5373268Y-6205321D01*
X5377332Y-6203848D01*
X5383377Y-6203035D01*
X5396534Y-6199428D01*
X5409082Y-6194094D01*
X5420817Y-6187186D01*
X5431485Y-6178702D01*
X5440984Y-6168898D01*
X5449062Y-6157925D01*
X5455615Y-6145987D01*
X5460542Y-6133236D01*
X5463692Y-6119977D01*
X5465064Y-6106414D01*
X5464606Y-6092799D01*
X5462320Y-6079337D01*
X5458307Y-6066332D01*
X5452567Y-6053937D01*
X5445201Y-6042456D01*
X5436412Y-6032042D01*
X5426303Y-6022898D01*
X5415076Y-6015177D01*
X5402884Y-6009030D01*
X5389981Y-6004560D01*
X5376621Y-6001816D01*
X5363006Y-6000902D01*
X5349443Y-6001816D01*
X5336082Y-6004560D01*
X5323179Y-6009030D01*
X5310987Y-6015177D01*
X5299760Y-6022898D01*
X5289651Y-6032042D01*
X5280863Y-6042456D01*
X5273497Y-6053937D01*
X5267756Y-6066332D01*
X5263743Y-6079337D01*
X5261457Y-6092799D01*
X5261000Y-6106414D01*
X5262372Y-6119977D01*
X5265521Y-6133236D01*
X5270449Y-6145987D01*
X5277002Y-6157925D01*
X5285079Y-6168898D01*
X5294528Y-6178702D01*
X5305247Y-6187186D01*
X5316982Y-6194094D01*
X5329529Y-6199428D01*
X5342686Y-6203035D01*
X5348732Y-6203848D01*
X5352796Y-6205321D01*
X5355894Y-6208369D01*
X5357418Y-6212433D01*
X5357114Y-6216751D01*
X5355082Y-6220561D01*
X5351576Y-6223152D01*
X5347360Y-6224066D01*
X4556810Y-6224066D01*
X4552594Y-6223152D01*
X4549140Y-6220561D01*
X4547057Y-6216751D01*
X4546752Y-6212433D01*
X4548327Y-6208369D01*
X4551375Y-6205321D01*
X4555490Y-6203848D01*
X4561484Y-6203035D01*
X4574641Y-6199428D01*
X4587189Y-6194094D01*
X4598924Y-6187186D01*
X4609642Y-6178702D01*
X4619091Y-6168898D01*
X4627219Y-6157925D01*
X4633772Y-6145987D01*
X4638649Y-6133236D01*
X4641799Y-6119977D01*
X4643170Y-6106414D01*
X4642713Y-6092799D01*
X4640478Y-6079337D01*
X4636414Y-6066332D01*
X4630674Y-6053937D01*
X4623358Y-6042456D01*
X4614519Y-6032042D01*
X4604410Y-6022898D01*
X4593183Y-6015177D01*
X4580991Y-6009030D01*
X4568139Y-6004560D01*
X4554778Y-6001816D01*
X4541164Y-6000902D01*
X4527550Y-6001816D01*
X4514189Y-6004560D01*
X4501286Y-6009030D01*
X4489145Y-6015177D01*
X4477867Y-6022898D01*
X4467758Y-6032042D01*
X4458970Y-6042456D01*
X4451654Y-6053937D01*
X4445914Y-6066332D01*
X4441850Y-6079337D01*
X4439564Y-6092799D01*
X4439107Y-6106414D01*
X4440478Y-6119977D01*
X4443679Y-6133236D01*
X4448556Y-6145987D01*
X4455109Y-6157925D01*
X4463186Y-6168898D01*
X4472686Y-6178702D01*
X4483404Y-6187186D01*
X4495139Y-6194094D01*
X4507687Y-6199428D01*
X4520844Y-6203035D01*
X4526838Y-6203848D01*
X4530902Y-6205321D01*
X4534001Y-6208369D01*
X4535525Y-6212433D01*
X4535271Y-6216751D01*
X4533188Y-6220561D01*
X4529734Y-6223152D01*
X4525518Y-6224066D01*
X3734968Y-6224066D01*
X3730701Y-6223152D01*
X3727246Y-6220561D01*
X3725214Y-6216751D01*
X3724910Y-6212433D01*
X3726434Y-6208369D01*
X3729532Y-6205321D01*
X3733596Y-6203848D01*
X3739642Y-6203035D01*
X3752748Y-6199428D01*
X3765346Y-6194094D01*
X3777081Y-6187186D01*
X3787749Y-6178702D01*
X3797249Y-6168898D01*
X3805326Y-6157925D01*
X3811879Y-6145987D01*
X3816807Y-6133236D01*
X3819956Y-6119977D01*
X3821328Y-6106414D01*
X3820871Y-6092799D01*
X3818585Y-6079337D01*
X3814572Y-6066332D01*
X3808831Y-6053937D01*
X3801465Y-6042456D01*
X3792677Y-6032042D01*
X3782568Y-6022898D01*
X3771290Y-6015177D01*
X3759149Y-6009030D01*
X3746246Y-6004560D01*
X3732885Y-6001816D01*
X3719271Y-6000902D01*
X3705656Y-6001816D01*
X3692296Y-6004560D01*
X3685794Y-6006795D01*
X3682034Y-6007354D01*
X3678377Y-6006541D01*
X3675278Y-6004407D01*
X3651300Y-5980430D01*
X3649065Y-5977128D01*
X3648303Y-5973216D01*
X3648303Y-5167172D01*
X3649167Y-5163007D01*
X3651707Y-5159603D01*
X3655364Y-5157470D01*
X3659632Y-5157063D01*
X3663645Y-5158435D01*
X3673246Y-5164124D01*
X3685794Y-5169458D01*
X3698951Y-5173014D01*
X3712464Y-5174843D01*
X3726129Y-5174843D01*
X3739642Y-5173014D01*
X3752748Y-5169458D01*
X3765346Y-5164124D01*
X3777081Y-5157165D01*
X3787749Y-5148732D01*
X3797249Y-5138928D01*
X3805326Y-5127955D01*
X3811879Y-5115966D01*
X3816807Y-5103266D01*
X3819956Y-5089956D01*
X3821328Y-5076393D01*
X3820871Y-5062778D01*
X3818585Y-5049316D01*
X3815435Y-5039106D01*
X3814978Y-5035499D01*
X3815842Y-5031943D01*
X3817924Y-5028946D01*
X4038346Y-4808524D01*
X4043476Y-4802276D01*
X4047032Y-4795621D01*
X4049217Y-4788408D01*
X4049979Y-4780381D01*
X4049979Y-4691735D01*
X4050792Y-4687824D01*
X4052976Y-4684522D01*
X4056278Y-4682337D01*
X4060190Y-4681575D01*
X4100829Y-4681575D01*
X4107129Y-4680864D01*
X4112615Y-4678934D01*
X4117492Y-4675835D01*
X4121607Y-4671771D01*
X4124655Y-4666843D01*
X4126585Y-4661408D01*
X4127296Y-4655108D01*
X4127296Y-4476242D01*
X4126585Y-4469892D01*
X4124655Y-4464456D01*
X4121607Y-4459528D01*
X4117492Y-4455464D01*
X4112615Y-4452366D01*
X4107129Y-4450435D01*
X4100829Y-4449724D01*
X3921963Y-4449724D01*
X3915664Y-4450435D01*
X3910177Y-4452366D01*
X3905300Y-4455464D01*
X3901186Y-4459528D01*
X3898087Y-4464456D01*
X3896207Y-4469892D01*
X3895496Y-4476242D01*
X3895496Y-4655108D01*
X3896207Y-4661408D01*
X3898087Y-4666843D01*
X3901186Y-4671771D01*
X3905300Y-4675835D01*
X3910177Y-4678934D01*
X3915664Y-4680864D01*
X3921963Y-4681575D01*
X3962654Y-4681575D01*
X3966514Y-4682337D01*
X3969816Y-4684522D01*
X3972001Y-4687824D01*
X3972763Y-4691735D01*
X3972763Y-4760671D01*
X3972001Y-4764532D01*
X3969816Y-4767834D01*
X3763264Y-4974386D01*
X3760165Y-4976520D01*
X3756507Y-4977333D01*
X3752748Y-4976774D01*
X3746246Y-4974539D01*
X3732885Y-4971846D01*
X3719271Y-4970932D01*
X3705656Y-4971846D01*
X3692296Y-4974539D01*
X3682542Y-4977942D01*
X3678732Y-4978501D01*
X3674973Y-4977587D01*
X3671824Y-4975352D01*
X3669741Y-4972100D01*
X3669029Y-4968341D01*
X3669029Y-4664252D01*
X3669741Y-4660493D01*
X3671773Y-4657293D01*
X3674872Y-4655058D01*
X3678529Y-4654092D01*
X3682339Y-4654600D01*
X3685641Y-4656429D01*
X3689299Y-4659426D01*
X3701542Y-4667199D01*
X3714750Y-4673396D01*
X3728567Y-4677918D01*
X3742893Y-4680610D01*
X3757371Y-4681524D01*
X3771900Y-4680610D01*
X3786225Y-4677918D01*
X3800043Y-4673396D01*
X3813200Y-4667199D01*
X3825494Y-4659426D01*
X3836720Y-4650130D01*
X3846677Y-4639513D01*
X3855262Y-4627727D01*
X3862273Y-4614976D01*
X3867607Y-4601464D01*
X3871214Y-4587392D01*
X3873042Y-4572914D01*
X3873042Y-4558385D01*
X3871214Y-4543958D01*
X3867607Y-4529836D01*
X3862273Y-4516323D01*
X3855262Y-4503572D01*
X3846677Y-4491786D01*
X3836720Y-4481169D01*
X3825494Y-4471924D01*
X3813200Y-4464100D01*
X3801821Y-4458766D01*
X3798773Y-4456531D01*
X3796741Y-4453280D01*
X3795979Y-4449572D01*
X3795979Y-4234129D01*
X3796741Y-4230370D01*
X3798773Y-4227169D01*
X3801821Y-4224934D01*
X3813200Y-4219549D01*
X3825494Y-4211777D01*
X3836720Y-4202480D01*
X3846677Y-4191863D01*
X3855212Y-4180078D01*
X3862222Y-4167327D01*
X3867607Y-4153814D01*
X3871214Y-4139742D01*
X3873042Y-4125264D01*
X3873042Y-4110736D01*
X3871214Y-4096308D01*
X3867607Y-4082186D01*
X3862222Y-4068673D01*
X3855212Y-4055922D01*
X3846677Y-4044137D01*
X3836720Y-4033520D01*
X3825494Y-4024274D01*
X3813200Y-4016451D01*
X3800043Y-4010253D01*
X3786225Y-4005783D01*
X3771900Y-4003040D01*
X3757371Y-4002125D01*
X3742842Y-4003040D01*
X3728567Y-4005783D01*
X3714750Y-4010253D01*
X3701542Y-4016451D01*
X3689248Y-4024274D01*
X3685641Y-4027220D01*
X3682339Y-4029049D01*
X3678529Y-4029557D01*
X3674872Y-4028592D01*
X3671773Y-4026357D01*
X3669741Y-4023156D01*
X3669029Y-4019397D01*
X3669029Y-3346602D01*
X3669741Y-3342843D01*
X3671773Y-3339642D01*
X3674872Y-3337407D01*
X3678529Y-3336442D01*
X3682339Y-3336950D01*
X3685641Y-3338779D01*
X3689248Y-3341725D01*
X3701542Y-3349548D01*
X3714750Y-3355746D01*
X3728567Y-3360216D01*
X3742842Y-3362960D01*
X3757371Y-3363874D01*
X3771900Y-3362960D01*
X3786225Y-3360216D01*
X3800043Y-3355746D01*
X3813200Y-3349548D01*
X3825494Y-3341725D01*
X3836720Y-3332479D01*
X3846677Y-3321862D01*
X3855212Y-3310077D01*
X3862222Y-3297326D01*
X3867607Y-3283813D01*
X3871214Y-3269691D01*
X3873042Y-3255264D01*
X3873042Y-3240735D01*
X3871214Y-3226257D01*
X3867607Y-3212185D01*
X3862222Y-3198672D01*
X3855212Y-3185922D01*
X3846677Y-3174136D01*
X3836720Y-3163519D01*
X3825494Y-3154222D01*
X3813200Y-3146450D01*
X3800043Y-3140252D01*
X3786225Y-3135731D01*
X3771900Y-3133039D01*
X3757371Y-3132124D01*
X3742842Y-3133039D01*
X3728567Y-3135731D01*
X3714750Y-3140252D01*
X3701542Y-3146450D01*
X3689248Y-3154222D01*
X3685641Y-3157220D01*
X3682339Y-3159048D01*
X3678529Y-3159556D01*
X3674872Y-3158591D01*
X3671773Y-3156356D01*
X3669741Y-3153156D01*
X3669029Y-3149396D01*
X3669029Y-619404D01*
X3669792Y-615543D01*
X3672027Y-612241D01*
X3673601Y-610616D01*
X3679240Y-602589D01*
X3683406Y-593699D01*
X3685946Y-584200D01*
X3686810Y-574395D01*
X3685946Y-564591D01*
X3683406Y-555091D01*
X3679240Y-546201D01*
X3673601Y-538175D01*
X3666642Y-531215D01*
X3658615Y-525576D01*
X3649726Y-521411D01*
X3640226Y-518871D01*
X3630422Y-518007D01*
X3620617Y-518871D01*
X3611118Y-521411D01*
X3602228Y-525576D01*
X3594201Y-531215D01*
X3587242Y-538175D01*
X3581603Y-546201D01*
X3577437Y-555091D01*
X3574897Y-564591D01*
X3574034Y-574395D01*
X3574897Y-584200D01*
X3577437Y-593699D01*
X3581603Y-602589D01*
X3587242Y-610616D01*
X3588816Y-612241D01*
X3591051Y-615543D01*
X3591814Y-619404D01*
X3591814Y-4467098D01*
X3591102Y-4470857D01*
X3589070Y-4474057D01*
X3585972Y-4476292D01*
X3582314Y-4477258D01*
X3578504Y-4476750D01*
X3575202Y-4474921D01*
X3571494Y-4471924D01*
X3559200Y-4464100D01*
X3546043Y-4457903D01*
X3532225Y-4453432D01*
X3517900Y-4450689D01*
X3503371Y-4449775D01*
X3488893Y-4450689D01*
X3474567Y-4453432D01*
X3460750Y-4457903D01*
X3447542Y-4464100D01*
X3435299Y-4471924D01*
X3424072Y-4481169D01*
X3414115Y-4491786D01*
X3405530Y-4503572D01*
X3398520Y-4516323D01*
X3393186Y-4529836D01*
X3389579Y-4543958D01*
X3387750Y-4558385D01*
X3387750Y-4572914D01*
X3389579Y-4587392D01*
X3393186Y-4601464D01*
X3398520Y-4614976D01*
X3405530Y-4627727D01*
X3414115Y-4639513D01*
X3424072Y-4650130D01*
X3435299Y-4659426D01*
X3447542Y-4667199D01*
X3460750Y-4673396D01*
X3474567Y-4677918D01*
X3488893Y-4680610D01*
X3503371Y-4681524D01*
X3517900Y-4680610D01*
X3532225Y-4677918D01*
X3546043Y-4673396D01*
X3559200Y-4667199D01*
X3571494Y-4659426D01*
X3575202Y-4656378D01*
X3578504Y-4654550D01*
X3582314Y-4654042D01*
X3585972Y-4655007D01*
X3589070Y-4657242D01*
X3591102Y-4660442D01*
X3591814Y-4664202D01*
X3591814Y-4994148D01*
X3591051Y-4998059D01*
X3588816Y-5001361D01*
X3582771Y-5007457D01*
X3577640Y-5013655D01*
X3574084Y-5020360D01*
X3571900Y-5027574D01*
X3571087Y-5035600D01*
X3571087Y-5992926D01*
X3571900Y-6000953D01*
X3574084Y-6008166D01*
X3577640Y-6014872D01*
X3582771Y-6021070D01*
X3620617Y-6058966D01*
X3622700Y-6061964D01*
X3623564Y-6065520D01*
X3623157Y-6069177D01*
X3619957Y-6079337D01*
X3617722Y-6092799D01*
X3617264Y-6106414D01*
X3618636Y-6119977D01*
X3621786Y-6133236D01*
X3626662Y-6145987D01*
X3633215Y-6157925D01*
X3641344Y-6168898D01*
X3650792Y-6178702D01*
X3661511Y-6187186D01*
X3673246Y-6194094D01*
X3685794Y-6199428D01*
X3698951Y-6203035D01*
X3704996Y-6203848D01*
X3709060Y-6205321D01*
X3712159Y-6208369D01*
X3713683Y-6212433D01*
X3713378Y-6216751D01*
X3711295Y-6220561D01*
X3707841Y-6223152D01*
X3703624Y-6224066D01*
X2913075Y-6224066D01*
X2908858Y-6223152D01*
X2905404Y-6220561D01*
X2903321Y-6216751D01*
X2903016Y-6212433D01*
X2904540Y-6208369D01*
X2907639Y-6205321D01*
X2911703Y-6203848D01*
X2917748Y-6203035D01*
X2930906Y-6199428D01*
X2943453Y-6194094D01*
X2955188Y-6187186D01*
X2965907Y-6178702D01*
X2975356Y-6168898D01*
X2983484Y-6157925D01*
X2990037Y-6145987D01*
X2994914Y-6133236D01*
X2998063Y-6119977D01*
X2999435Y-6106414D01*
X2998978Y-6092799D01*
X2996742Y-6079337D01*
X2992678Y-6066332D01*
X2986938Y-6053937D01*
X2979623Y-6042456D01*
X2970784Y-6032042D01*
X2960674Y-6022898D01*
X2949448Y-6015177D01*
X2937256Y-6009030D01*
X2924403Y-6004560D01*
X2911043Y-6001816D01*
X2897428Y-6000902D01*
X2883814Y-6001816D01*
X2870454Y-6004560D01*
X2857550Y-6009030D01*
X2845409Y-6015177D01*
X2834132Y-6022898D01*
X2824022Y-6032042D01*
X2815234Y-6042456D01*
X2807868Y-6053937D01*
X2802128Y-6066332D01*
X2798114Y-6079337D01*
X2795828Y-6092799D01*
X2795371Y-6106414D01*
X2796743Y-6119977D01*
X2799892Y-6133236D01*
X2804820Y-6145987D01*
X2811373Y-6157925D01*
X2819450Y-6168898D01*
X2828950Y-6178702D01*
X2839618Y-6187186D01*
X2851353Y-6194094D01*
X2863951Y-6199428D01*
X2877058Y-6203035D01*
X2883103Y-6203848D01*
X2887167Y-6205321D01*
X2890266Y-6208369D01*
X2891790Y-6212433D01*
X2891485Y-6216751D01*
X2889453Y-6220561D01*
X2885998Y-6223152D01*
X2881731Y-6224066D01*
X2091182Y-6224066D01*
X2086965Y-6223152D01*
X2083511Y-6220561D01*
X2081428Y-6216751D01*
X2081174Y-6212433D01*
X2082698Y-6208369D01*
X2085797Y-6205321D01*
X2089861Y-6203848D01*
X2095855Y-6203035D01*
X2109012Y-6199428D01*
X2121560Y-6194094D01*
X2133295Y-6187186D01*
X2144014Y-6178702D01*
X2153513Y-6168898D01*
X2161590Y-6157925D01*
X2168144Y-6145987D01*
X2173020Y-6133236D01*
X2176221Y-6119977D01*
X2177592Y-6106414D01*
X2177135Y-6092799D01*
X2174849Y-6079337D01*
X2170785Y-6066332D01*
X2165045Y-6053937D01*
X2157730Y-6042456D01*
X2148941Y-6032042D01*
X2138832Y-6022898D01*
X2127554Y-6015177D01*
X2115413Y-6009030D01*
X2102510Y-6004560D01*
X2089150Y-6001816D01*
X2075535Y-6000902D01*
X2061921Y-6001816D01*
X2048560Y-6004560D01*
X2042058Y-6006795D01*
X2038350Y-6007354D01*
X2034641Y-6006490D01*
X2031542Y-6004407D01*
X2004466Y-5977280D01*
X2002231Y-5973978D01*
X2001469Y-5970117D01*
X2001469Y-5165242D01*
X2002383Y-5161076D01*
X2004872Y-5157673D01*
X2008581Y-5155590D01*
X2012797Y-5155184D01*
X2016861Y-5156555D01*
X2029510Y-5164124D01*
X2042058Y-5169458D01*
X2055215Y-5173014D01*
X2068728Y-5174843D01*
X2082342Y-5174843D01*
X2095855Y-5173014D01*
X2109012Y-5169458D01*
X2121560Y-5164124D01*
X2133295Y-5157165D01*
X2144014Y-5148732D01*
X2153513Y-5138928D01*
X2161590Y-5127955D01*
X2168144Y-5115966D01*
X2173020Y-5103266D01*
X2176221Y-5089956D01*
X2177592Y-5076393D01*
X2177135Y-5062778D01*
X2174849Y-5049316D01*
X2171700Y-5039156D01*
X2171242Y-5035499D01*
X2172106Y-5031943D01*
X2174189Y-5028946D01*
X2394610Y-4808524D01*
X2399741Y-4802327D01*
X2403297Y-4795621D01*
X2405481Y-4788408D01*
X2406243Y-4780381D01*
X2406243Y-4691735D01*
X2407056Y-4687824D01*
X2409240Y-4684522D01*
X2412542Y-4682337D01*
X2416454Y-4681575D01*
X2457094Y-4681575D01*
X2463393Y-4680864D01*
X2468880Y-4678934D01*
X2473756Y-4675835D01*
X2477871Y-4671771D01*
X2480919Y-4666843D01*
X2482850Y-4661408D01*
X2483561Y-4655058D01*
X2483561Y-4476242D01*
X2482850Y-4469892D01*
X2480919Y-4464456D01*
X2477871Y-4459528D01*
X2473756Y-4455464D01*
X2468880Y-4452366D01*
X2463393Y-4450435D01*
X2457094Y-4449724D01*
X2278227Y-4449724D01*
X2271877Y-4450435D01*
X2266442Y-4452366D01*
X2261514Y-4455464D01*
X2257450Y-4459528D01*
X2254351Y-4464456D01*
X2252472Y-4469892D01*
X2251760Y-4476242D01*
X2251760Y-4655058D01*
X2252472Y-4661408D01*
X2254351Y-4666843D01*
X2257450Y-4671771D01*
X2261514Y-4675835D01*
X2266442Y-4678934D01*
X2271877Y-4680864D01*
X2278227Y-4681575D01*
X2318918Y-4681575D01*
X2322779Y-4682337D01*
X2326081Y-4684522D01*
X2328265Y-4687824D01*
X2329027Y-4691735D01*
X2329027Y-4760671D01*
X2328265Y-4764582D01*
X2326081Y-4767884D01*
X2119579Y-4974386D01*
X2116429Y-4976520D01*
X2112772Y-4977384D01*
X2109063Y-4976825D01*
X2102510Y-4974539D01*
X2089150Y-4971846D01*
X2075535Y-4970932D01*
X2061921Y-4971846D01*
X2048560Y-4974539D01*
X2035708Y-4979009D01*
X2023516Y-4985156D01*
X2017369Y-4989372D01*
X2013305Y-4990998D01*
X2008936Y-4990795D01*
X2005075Y-4988763D01*
X2002434Y-4985258D01*
X2001469Y-4980990D01*
X2001469Y-4955286D01*
X2002231Y-4951425D01*
X2004466Y-4948123D01*
X2014931Y-4937607D01*
X2020062Y-4931359D01*
X2023618Y-4924704D01*
X2025802Y-4917490D01*
X2026615Y-4909464D01*
X2026615Y-4665370D01*
X2027326Y-4661611D01*
X2029358Y-4658410D01*
X2032457Y-4656175D01*
X2036114Y-4655210D01*
X2039924Y-4655667D01*
X2043226Y-4657496D01*
X2045512Y-4659426D01*
X2057806Y-4667199D01*
X2071014Y-4673396D01*
X2084832Y-4677918D01*
X2099106Y-4680610D01*
X2113635Y-4681524D01*
X2128164Y-4680610D01*
X2142490Y-4677918D01*
X2156307Y-4673396D01*
X2169464Y-4667199D01*
X2181758Y-4659426D01*
X2192985Y-4650130D01*
X2202942Y-4639513D01*
X2211476Y-4627727D01*
X2218486Y-4614976D01*
X2223871Y-4601464D01*
X2227478Y-4587341D01*
X2229307Y-4572914D01*
X2229307Y-4558385D01*
X2227478Y-4543958D01*
X2223871Y-4529836D01*
X2218486Y-4516323D01*
X2211476Y-4503572D01*
X2202942Y-4491786D01*
X2192985Y-4481169D01*
X2181758Y-4471873D01*
X2169464Y-4464100D01*
X2158085Y-4458766D01*
X2155037Y-4456480D01*
X2153005Y-4453280D01*
X2152243Y-4449572D01*
X2152243Y-4234078D01*
X2153005Y-4230370D01*
X2155037Y-4227169D01*
X2158085Y-4224883D01*
X2169464Y-4219549D01*
X2181758Y-4211777D01*
X2192985Y-4202480D01*
X2202942Y-4191863D01*
X2211476Y-4180078D01*
X2218486Y-4167327D01*
X2223871Y-4153814D01*
X2227478Y-4139742D01*
X2229307Y-4125264D01*
X2229307Y-4110736D01*
X2227478Y-4096308D01*
X2223871Y-4082186D01*
X2218486Y-4068673D01*
X2211476Y-4055922D01*
X2202942Y-4044137D01*
X2192985Y-4033520D01*
X2181758Y-4024274D01*
X2169464Y-4016451D01*
X2156307Y-4010253D01*
X2142439Y-4005783D01*
X2128164Y-4003040D01*
X2113635Y-4002125D01*
X2099106Y-4003040D01*
X2084832Y-4005783D01*
X2070963Y-4010253D01*
X2057806Y-4016451D01*
X2045512Y-4024274D01*
X2043226Y-4026154D01*
X2039924Y-4027982D01*
X2036114Y-4028440D01*
X2032457Y-4027474D01*
X2029358Y-4025239D01*
X2027326Y-4022039D01*
X2026615Y-4018279D01*
X2026615Y-3347720D01*
X2027326Y-3343960D01*
X2029358Y-3340760D01*
X2032457Y-3338525D01*
X2036114Y-3337560D01*
X2039924Y-3338017D01*
X2043226Y-3339846D01*
X2045512Y-3341725D01*
X2057806Y-3349548D01*
X2070963Y-3355746D01*
X2084832Y-3360216D01*
X2099106Y-3362960D01*
X2113635Y-3363874D01*
X2128164Y-3362960D01*
X2142439Y-3360216D01*
X2156307Y-3355746D01*
X2169464Y-3349548D01*
X2181758Y-3341725D01*
X2192985Y-3332479D01*
X2202942Y-3321862D01*
X2211476Y-3310077D01*
X2218486Y-3297326D01*
X2223871Y-3283813D01*
X2227478Y-3269691D01*
X2229307Y-3255264D01*
X2229307Y-3240735D01*
X2227478Y-3226257D01*
X2223871Y-3212185D01*
X2218486Y-3198672D01*
X2211476Y-3185922D01*
X2202942Y-3174136D01*
X2192985Y-3163519D01*
X2181758Y-3154222D01*
X2169464Y-3146450D01*
X2156307Y-3140252D01*
X2142439Y-3135731D01*
X2128164Y-3133039D01*
X2113635Y-3132124D01*
X2099106Y-3133039D01*
X2097227Y-3133394D01*
X2092807Y-3133242D01*
X2088896Y-3131210D01*
X2086152Y-3127705D01*
X2085187Y-3123387D01*
X2085187Y-3106420D01*
X2085949Y-3102508D01*
X2088184Y-3099206D01*
X2089759Y-3097631D01*
X2095398Y-3089554D01*
X2099564Y-3080664D01*
X2102104Y-3071164D01*
X2102967Y-3061411D01*
X2102104Y-3051606D01*
X2099564Y-3042107D01*
X2095398Y-3033217D01*
X2089759Y-3025140D01*
X2082800Y-3018180D01*
X2074773Y-3012592D01*
X2065883Y-3008426D01*
X2056384Y-3005886D01*
X2046579Y-3005023D01*
X2037638Y-3005785D01*
X2033524Y-3005277D01*
X2029917Y-3003143D01*
X2027478Y-2999790D01*
X2026615Y-2995676D01*
X2026615Y-779170D01*
X2027377Y-775258D01*
X2029612Y-771956D01*
X2148332Y-653186D01*
X2151227Y-651205D01*
X2154631Y-650290D01*
X2162708Y-649579D01*
X2172208Y-647039D01*
X2181098Y-642874D01*
X2189124Y-637235D01*
X2196084Y-630275D01*
X2201722Y-622249D01*
X2205888Y-613359D01*
X2208428Y-603859D01*
X2209292Y-594055D01*
X2208428Y-584250D01*
X2205888Y-574751D01*
X2201722Y-565861D01*
X2196084Y-557834D01*
X2189124Y-550875D01*
X2181098Y-545236D01*
X2172208Y-541070D01*
X2162708Y-538530D01*
X2152904Y-537667D01*
X2143099Y-538530D01*
X2133600Y-541070D01*
X2124710Y-545236D01*
X2116683Y-550875D01*
X2109724Y-557834D01*
X2104085Y-565861D01*
X2099919Y-574751D01*
X2097379Y-584250D01*
X2096668Y-592328D01*
X2095754Y-595731D01*
X2093772Y-598627D01*
X1961083Y-731316D01*
X1955952Y-737514D01*
X1952396Y-744220D01*
X1950212Y-751433D01*
X1949399Y-759460D01*
X1949399Y-4468215D01*
X1948688Y-4471924D01*
X1946656Y-4475175D01*
X1943557Y-4477410D01*
X1939899Y-4478324D01*
X1936089Y-4477867D01*
X1932787Y-4476038D01*
X1927758Y-4471873D01*
X1915464Y-4464100D01*
X1902307Y-4457903D01*
X1888489Y-4453382D01*
X1874164Y-4450689D01*
X1859635Y-4449775D01*
X1845106Y-4450689D01*
X1830832Y-4453382D01*
X1817014Y-4457903D01*
X1803806Y-4464100D01*
X1791512Y-4471873D01*
X1780336Y-4481169D01*
X1770380Y-4491786D01*
X1761794Y-4503572D01*
X1754784Y-4516323D01*
X1749450Y-4529836D01*
X1745792Y-4543958D01*
X1744014Y-4558385D01*
X1744014Y-4572914D01*
X1745792Y-4587341D01*
X1749450Y-4601464D01*
X1754784Y-4614976D01*
X1761794Y-4627727D01*
X1770380Y-4639513D01*
X1780336Y-4650130D01*
X1791512Y-4659426D01*
X1803806Y-4667199D01*
X1817014Y-4673396D01*
X1830832Y-4677918D01*
X1845106Y-4680610D01*
X1859635Y-4681524D01*
X1874164Y-4680610D01*
X1888489Y-4677918D01*
X1902307Y-4673396D01*
X1915464Y-4667199D01*
X1927758Y-4659426D01*
X1932787Y-4655261D01*
X1936089Y-4653432D01*
X1939899Y-4652975D01*
X1943557Y-4653889D01*
X1946656Y-4656124D01*
X1948688Y-4659376D01*
X1949399Y-4663084D01*
X1949399Y-4889754D01*
X1948637Y-4893614D01*
X1946402Y-4896916D01*
X1935937Y-4907432D01*
X1930806Y-4913680D01*
X1927250Y-4920335D01*
X1925066Y-4927549D01*
X1924253Y-4935575D01*
X1924253Y-5989828D01*
X1925066Y-5997854D01*
X1927250Y-6005068D01*
X1930806Y-6011722D01*
X1935937Y-6017971D01*
X1976882Y-6058916D01*
X1978964Y-6061964D01*
X1979828Y-6065520D01*
X1979422Y-6069126D01*
X1976221Y-6079337D01*
X1973986Y-6092799D01*
X1973529Y-6106414D01*
X1974900Y-6119977D01*
X1978050Y-6133236D01*
X1982927Y-6145987D01*
X1989480Y-6157925D01*
X1997608Y-6168898D01*
X2007057Y-6178702D01*
X2017775Y-6187186D01*
X2029510Y-6194094D01*
X2042058Y-6199428D01*
X2055215Y-6203035D01*
X2061210Y-6203848D01*
X2065324Y-6205321D01*
X2068372Y-6208369D01*
X2069947Y-6212433D01*
X2069642Y-6216751D01*
X2067560Y-6220561D01*
X2064105Y-6223152D01*
X2059889Y-6224066D01*
X1269339Y-6224066D01*
X1265123Y-6223152D01*
X1261618Y-6220561D01*
X1259586Y-6216751D01*
X1259281Y-6212433D01*
X1260805Y-6208369D01*
X1263904Y-6205321D01*
X1267968Y-6203848D01*
X1274013Y-6203035D01*
X1287170Y-6199428D01*
X1299718Y-6194094D01*
X1311452Y-6187186D01*
X1322171Y-6178702D01*
X1331620Y-6168898D01*
X1339697Y-6157925D01*
X1346250Y-6145987D01*
X1351178Y-6133236D01*
X1354328Y-6119977D01*
X1355699Y-6106414D01*
X1355242Y-6092799D01*
X1352956Y-6079337D01*
X1348943Y-6066332D01*
X1343202Y-6053937D01*
X1335836Y-6042456D01*
X1327048Y-6032042D01*
X1316939Y-6022898D01*
X1305712Y-6015177D01*
X1293520Y-6009030D01*
X1280617Y-6004560D01*
X1267256Y-6001816D01*
X1253693Y-6000902D01*
X1240078Y-6001816D01*
X1226718Y-6004560D01*
X1213815Y-6009030D01*
X1201623Y-6015177D01*
X1190396Y-6022898D01*
X1180287Y-6032042D01*
X1171498Y-6042456D01*
X1164132Y-6053937D01*
X1158392Y-6066332D01*
X1154379Y-6079337D01*
X1152093Y-6092799D01*
X1151636Y-6106414D01*
X1153007Y-6119977D01*
X1156157Y-6133236D01*
X1161084Y-6145987D01*
X1167638Y-6157925D01*
X1175715Y-6168898D01*
X1185214Y-6178702D01*
X1195882Y-6187186D01*
X1207617Y-6194094D01*
X1220165Y-6199428D01*
X1233322Y-6203035D01*
X1239367Y-6203848D01*
X1243431Y-6205321D01*
X1246530Y-6208369D01*
X1248054Y-6212433D01*
X1247749Y-6216751D01*
X1245717Y-6220561D01*
X1242263Y-6223152D01*
X1237996Y-6224066D01*
X447446Y-6224066D01*
X443230Y-6223152D01*
X439775Y-6220561D01*
X437692Y-6216751D01*
X437438Y-6212433D01*
X438962Y-6208369D01*
X442061Y-6205321D01*
X446125Y-6203848D01*
X452120Y-6203035D01*
X465277Y-6199428D01*
X477824Y-6194094D01*
X489559Y-6187186D01*
X500278Y-6178702D01*
X509778Y-6168898D01*
X517855Y-6157925D01*
X524408Y-6145987D01*
X529285Y-6133236D01*
X532485Y-6119977D01*
X533806Y-6106414D01*
X533349Y-6092799D01*
X531114Y-6079337D01*
X527050Y-6066332D01*
X521309Y-6053937D01*
X513994Y-6042456D01*
X505206Y-6032042D01*
X495046Y-6022898D01*
X483819Y-6015177D01*
X471678Y-6009030D01*
X458774Y-6004560D01*
X445414Y-6001816D01*
X431800Y-6000902D01*
X418185Y-6001816D01*
X404825Y-6004560D01*
X391922Y-6009030D01*
X379780Y-6015177D01*
X368554Y-6022898D01*
X358394Y-6032042D01*
X349605Y-6042456D01*
X342290Y-6053937D01*
X336550Y-6066332D01*
X332486Y-6079337D01*
X330250Y-6092799D01*
X329793Y-6106414D01*
X331114Y-6119977D01*
X334314Y-6133236D01*
X339191Y-6145987D01*
X345744Y-6157925D01*
X353822Y-6168898D01*
X363321Y-6178702D01*
X374040Y-6187186D01*
X385775Y-6194094D01*
X398322Y-6199428D01*
X411480Y-6203035D01*
X417474Y-6203848D01*
X421538Y-6205321D01*
X424637Y-6208369D01*
X426161Y-6212433D01*
X425907Y-6216751D01*
X423824Y-6220561D01*
X420370Y-6223152D01*
X416153Y-6224066D01*
G37*

%LPC*%
G36*
X6965543Y-5792774D02*
G01*
X7220153Y-5792774D01*
X7228179Y-5791962D01*
X7235393Y-5789777D01*
X7242048Y-5786221D01*
X7248296Y-5781090D01*
X7332065Y-5697321D01*
X7337196Y-5691073D01*
X7340752Y-5684418D01*
X7342936Y-5677204D01*
X7343749Y-5669178D01*
X7343749Y-4937556D01*
X7344308Y-4934204D01*
X7345934Y-4931257D01*
X7348474Y-4928971D01*
X7357922Y-4922977D01*
X7369149Y-4913680D01*
X7379106Y-4903063D01*
X7387640Y-4891328D01*
X7394651Y-4878578D01*
X7400036Y-4865014D01*
X7403642Y-4850942D01*
X7405471Y-4836515D01*
X7405471Y-4821936D01*
X7403642Y-4807508D01*
X7400036Y-4793386D01*
X7394651Y-4779873D01*
X7387640Y-4767122D01*
X7379106Y-4755337D01*
X7369149Y-4744720D01*
X7357922Y-4735474D01*
X7345629Y-4727651D01*
X7332472Y-4721453D01*
X7318603Y-4716983D01*
X7304328Y-4714240D01*
X7289800Y-4713325D01*
X7275271Y-4714240D01*
X7260996Y-4716983D01*
X7247128Y-4721453D01*
X7233970Y-4727651D01*
X7221677Y-4735474D01*
X7210450Y-4744720D01*
X7200493Y-4755337D01*
X7191959Y-4767122D01*
X7184948Y-4779873D01*
X7179564Y-4793386D01*
X7175957Y-4807508D01*
X7174128Y-4821936D01*
X7174128Y-4836515D01*
X7175957Y-4850942D01*
X7179564Y-4865014D01*
X7184948Y-4878578D01*
X7191959Y-4891328D01*
X7200493Y-4903063D01*
X7210450Y-4913680D01*
X7221677Y-4922977D01*
X7233970Y-4930749D01*
X7247128Y-4936947D01*
X7259523Y-4941011D01*
X7263180Y-4943094D01*
X7265670Y-4946497D01*
X7266533Y-4950663D01*
X7266533Y-5533136D01*
X7265619Y-5537403D01*
X7262977Y-5540908D01*
X7259116Y-5542940D01*
X7254798Y-5543194D01*
X7250734Y-5541619D01*
X7239965Y-5534406D01*
X7233361Y-5531154D01*
X7233361Y-5579770D01*
X7256373Y-5579770D01*
X7260285Y-5580532D01*
X7263536Y-5582716D01*
X7265771Y-5586018D01*
X7266533Y-5589930D01*
X7266533Y-5649468D01*
X7265771Y-5653328D01*
X7263536Y-5656630D01*
X7250734Y-5669483D01*
X7247432Y-5671667D01*
X7243521Y-5672429D01*
X7233361Y-5672429D01*
X7233361Y-5682640D01*
X7232599Y-5686552D01*
X7230364Y-5689803D01*
X7207605Y-5712561D01*
X7204303Y-5714796D01*
X7200442Y-5715558D01*
X7150811Y-5715558D01*
X7146899Y-5714796D01*
X7143648Y-5712561D01*
X7141413Y-5709310D01*
X7140651Y-5705398D01*
X7140651Y-5672429D01*
X7092035Y-5672429D01*
X7095286Y-5679033D01*
X7103008Y-5690565D01*
X7110120Y-5698693D01*
X7112101Y-5702046D01*
X7112660Y-5705856D01*
X7111746Y-5709615D01*
X7109510Y-5712714D01*
X7106259Y-5714847D01*
X7102500Y-5715558D01*
X6985253Y-5715558D01*
X6981393Y-5714796D01*
X6978091Y-5712561D01*
X6938619Y-5673090D01*
X6936486Y-5669991D01*
X6935622Y-5666384D01*
X6936181Y-5662676D01*
X6939280Y-5653481D01*
X6941972Y-5639917D01*
X6942886Y-5626100D01*
X6941972Y-5612282D01*
X6939280Y-5598718D01*
X6934809Y-5585561D01*
X6928713Y-5573166D01*
X6920992Y-5561634D01*
X6911848Y-5551220D01*
X6901434Y-5542076D01*
X6889953Y-5534406D01*
X6877507Y-5528259D01*
X6864400Y-5523839D01*
X6850786Y-5521096D01*
X6836968Y-5520232D01*
X6823151Y-5521096D01*
X6809587Y-5523839D01*
X6796481Y-5528259D01*
X6784035Y-5534406D01*
X6772554Y-5542076D01*
X6762140Y-5551220D01*
X6752996Y-5561634D01*
X6745274Y-5573166D01*
X6739178Y-5585561D01*
X6734708Y-5598718D01*
X6732016Y-5612282D01*
X6731101Y-5626100D01*
X6732016Y-5639917D01*
X6734708Y-5653481D01*
X6739178Y-5666638D01*
X6745274Y-5679033D01*
X6752996Y-5690565D01*
X6762140Y-5700979D01*
X6772554Y-5710123D01*
X6784035Y-5717794D01*
X6796481Y-5723940D01*
X6809587Y-5728360D01*
X6823151Y-5731103D01*
X6836968Y-5731967D01*
X6850786Y-5731103D01*
X6864400Y-5728360D01*
X6873544Y-5725261D01*
X6877253Y-5724753D01*
X6880910Y-5725566D01*
X6884009Y-5727700D01*
X6937400Y-5781090D01*
X6943648Y-5786221D01*
X6950303Y-5789777D01*
X6957517Y-5791962D01*
G37*
G36*
X7092035Y-5579770D02*
G01*
X7140651Y-5579770D01*
X7140651Y-5531154D01*
X7134047Y-5534406D01*
X7122566Y-5542076D01*
X7112152Y-5551220D01*
X7103008Y-5561634D01*
X7095286Y-5573166D01*
G37*
G36*
X5356199Y-5174843D02*
G01*
X5369864Y-5174843D01*
X5383377Y-5173014D01*
X5396534Y-5169458D01*
X5409082Y-5164124D01*
X5420817Y-5157165D01*
X5431485Y-5148732D01*
X5440984Y-5138928D01*
X5449062Y-5127955D01*
X5455615Y-5115966D01*
X5460542Y-5103266D01*
X5463692Y-5089956D01*
X5465064Y-5076393D01*
X5464606Y-5062778D01*
X5462320Y-5049316D01*
X5458307Y-5036312D01*
X5452567Y-5023916D01*
X5445201Y-5012436D01*
X5436412Y-5002022D01*
X5426303Y-4992878D01*
X5415076Y-4985156D01*
X5402884Y-4979009D01*
X5389981Y-4974539D01*
X5376621Y-4971846D01*
X5363006Y-4970932D01*
X5349443Y-4971846D01*
X5336082Y-4974539D01*
X5323179Y-4979009D01*
X5310987Y-4985156D01*
X5299760Y-4992878D01*
X5289651Y-5002022D01*
X5280863Y-5012436D01*
X5273497Y-5023916D01*
X5267756Y-5036312D01*
X5263743Y-5049316D01*
X5261457Y-5062778D01*
X5261000Y-5076393D01*
X5262372Y-5089956D01*
X5265521Y-5103266D01*
X5270449Y-5115966D01*
X5277002Y-5127955D01*
X5285079Y-5138928D01*
X5294528Y-5148732D01*
X5305247Y-5157165D01*
X5316982Y-5164124D01*
X5329529Y-5169458D01*
X5342686Y-5173014D01*
G37*
G36*
X6178092Y-5174843D02*
G01*
X6191707Y-5174843D01*
X6205220Y-5173014D01*
X6218377Y-5169458D01*
X6230924Y-5164124D01*
X6242659Y-5157165D01*
X6253378Y-5148732D01*
X6262878Y-5138928D01*
X6270955Y-5127955D01*
X6277508Y-5115966D01*
X6282385Y-5103266D01*
X6285585Y-5089956D01*
X6286906Y-5076393D01*
X6286449Y-5062778D01*
X6284214Y-5049316D01*
X6280150Y-5036312D01*
X6274409Y-5023916D01*
X6267094Y-5012436D01*
X6258306Y-5002022D01*
X6248146Y-4992878D01*
X6236919Y-4985156D01*
X6224778Y-4979009D01*
X6211874Y-4974539D01*
X6198514Y-4971846D01*
X6184900Y-4970932D01*
X6171285Y-4971846D01*
X6157925Y-4974539D01*
X6145022Y-4979009D01*
X6132880Y-4985156D01*
X6121654Y-4992878D01*
X6111494Y-5002022D01*
X6102705Y-5012436D01*
X6095390Y-5023916D01*
X6089650Y-5036312D01*
X6085586Y-5049316D01*
X6083350Y-5062778D01*
X6082893Y-5076393D01*
X6084214Y-5089956D01*
X6087414Y-5103266D01*
X6092291Y-5115966D01*
X6098844Y-5127955D01*
X6106922Y-5138928D01*
X6116421Y-5148732D01*
X6127140Y-5157165D01*
X6138875Y-5164124D01*
X6151422Y-5169458D01*
X6164580Y-5173014D01*
G37*
G36*
X4534357Y-5174843D02*
G01*
X4547971Y-5174843D01*
X4561484Y-5173014D01*
X4574641Y-5169458D01*
X4587189Y-5164124D01*
X4598924Y-5157165D01*
X4609642Y-5148732D01*
X4619091Y-5138928D01*
X4627219Y-5127955D01*
X4633772Y-5115966D01*
X4638649Y-5103266D01*
X4641799Y-5089956D01*
X4643170Y-5076393D01*
X4642713Y-5062778D01*
X4640478Y-5049316D01*
X4637278Y-5039106D01*
X4636871Y-5035499D01*
X4637735Y-5031943D01*
X4639818Y-5028895D01*
X4860188Y-4808524D01*
X4865319Y-4802276D01*
X4868875Y-4795621D01*
X4871059Y-4788408D01*
X4871872Y-4780381D01*
X4871872Y-4691735D01*
X4872634Y-4687824D01*
X4874869Y-4684522D01*
X4878120Y-4682337D01*
X4882032Y-4681575D01*
X4922672Y-4681575D01*
X4929022Y-4680864D01*
X4934458Y-4678934D01*
X4939385Y-4675835D01*
X4943449Y-4671771D01*
X4946548Y-4666843D01*
X4948478Y-4661408D01*
X4949190Y-4655108D01*
X4949190Y-4476242D01*
X4948478Y-4469892D01*
X4946548Y-4464456D01*
X4943449Y-4459528D01*
X4939385Y-4455464D01*
X4934458Y-4452366D01*
X4929022Y-4450435D01*
X4922672Y-4449724D01*
X4743805Y-4449724D01*
X4737506Y-4450435D01*
X4732070Y-4452366D01*
X4727143Y-4455464D01*
X4723079Y-4459528D01*
X4719980Y-4464456D01*
X4718050Y-4469892D01*
X4717338Y-4476242D01*
X4717338Y-4655108D01*
X4718050Y-4661408D01*
X4719980Y-4666843D01*
X4723079Y-4671771D01*
X4727143Y-4675835D01*
X4732070Y-4678934D01*
X4737506Y-4680864D01*
X4743805Y-4681575D01*
X4784496Y-4681575D01*
X4788408Y-4682337D01*
X4791659Y-4684522D01*
X4793894Y-4687824D01*
X4794656Y-4691735D01*
X4794656Y-4760671D01*
X4793894Y-4764532D01*
X4791659Y-4767834D01*
X4585157Y-4974386D01*
X4582007Y-4976520D01*
X4578350Y-4977333D01*
X4574641Y-4976774D01*
X4568139Y-4974539D01*
X4554778Y-4971846D01*
X4541164Y-4970932D01*
X4527550Y-4971846D01*
X4514189Y-4974539D01*
X4501286Y-4979009D01*
X4489145Y-4985156D01*
X4477867Y-4992878D01*
X4467758Y-5002022D01*
X4458970Y-5012436D01*
X4451654Y-5023916D01*
X4445914Y-5036312D01*
X4441850Y-5049316D01*
X4439564Y-5062778D01*
X4439107Y-5076393D01*
X4440478Y-5089956D01*
X4443679Y-5103266D01*
X4448556Y-5115966D01*
X4455109Y-5127955D01*
X4463186Y-5138928D01*
X4472686Y-5148732D01*
X4483404Y-5157165D01*
X4495139Y-5164124D01*
X4507687Y-5169458D01*
X4520844Y-5173014D01*
G37*
G36*
X424992Y-5174843D02*
G01*
X438607Y-5174843D01*
X452120Y-5173014D01*
X465277Y-5169458D01*
X477824Y-5164124D01*
X489559Y-5157165D01*
X500278Y-5148732D01*
X509778Y-5138928D01*
X517855Y-5127955D01*
X524408Y-5115966D01*
X529285Y-5103266D01*
X532485Y-5089956D01*
X533806Y-5076393D01*
X533349Y-5062778D01*
X531114Y-5049316D01*
X527913Y-5039106D01*
X527507Y-5035499D01*
X528370Y-5031943D01*
X530453Y-5028946D01*
X750824Y-4808524D01*
X755954Y-4802327D01*
X759510Y-4795621D01*
X761695Y-4788408D01*
X762508Y-4780381D01*
X762508Y-4691735D01*
X763270Y-4687824D01*
X765505Y-4684522D01*
X768756Y-4682337D01*
X772668Y-4681575D01*
X813308Y-4681575D01*
X819658Y-4680864D01*
X825093Y-4678934D01*
X830021Y-4675835D01*
X834085Y-4671771D01*
X837184Y-4666843D01*
X839114Y-4661408D01*
X839825Y-4655058D01*
X839825Y-4476242D01*
X839114Y-4469892D01*
X837184Y-4464456D01*
X834085Y-4459528D01*
X830021Y-4455464D01*
X825093Y-4452366D01*
X819658Y-4450435D01*
X813308Y-4449724D01*
X634492Y-4449724D01*
X628142Y-4450435D01*
X622706Y-4452366D01*
X617778Y-4455464D01*
X613714Y-4459528D01*
X610616Y-4464456D01*
X608685Y-4469892D01*
X607974Y-4476242D01*
X607974Y-4655058D01*
X608685Y-4661408D01*
X610616Y-4666843D01*
X613714Y-4671771D01*
X617778Y-4675835D01*
X622706Y-4678934D01*
X628142Y-4680864D01*
X634492Y-4681575D01*
X675132Y-4681575D01*
X679043Y-4682337D01*
X682294Y-4684522D01*
X684530Y-4687824D01*
X685292Y-4691735D01*
X685292Y-4760671D01*
X684530Y-4764582D01*
X682294Y-4767884D01*
X475792Y-4974386D01*
X472693Y-4976520D01*
X469036Y-4977333D01*
X465277Y-4976825D01*
X458774Y-4974539D01*
X445414Y-4971846D01*
X431800Y-4970932D01*
X418185Y-4971846D01*
X404825Y-4974539D01*
X391922Y-4979009D01*
X379780Y-4985156D01*
X368554Y-4992878D01*
X358394Y-5002022D01*
X349605Y-5012436D01*
X342290Y-5023916D01*
X336550Y-5036312D01*
X332486Y-5049316D01*
X330250Y-5062778D01*
X329793Y-5076393D01*
X331114Y-5089956D01*
X334314Y-5103266D01*
X339191Y-5115966D01*
X345744Y-5127955D01*
X353822Y-5138928D01*
X363321Y-5148732D01*
X374040Y-5157165D01*
X385775Y-5164124D01*
X398322Y-5169458D01*
X411480Y-5173014D01*
G37*
G36*
X1246835Y-5174843D02*
G01*
X1260500Y-5174843D01*
X1274013Y-5173014D01*
X1287170Y-5169458D01*
X1299718Y-5164124D01*
X1311452Y-5157165D01*
X1322171Y-5148732D01*
X1331620Y-5138928D01*
X1339697Y-5127955D01*
X1346250Y-5115966D01*
X1351178Y-5103266D01*
X1354328Y-5089956D01*
X1355699Y-5076393D01*
X1355242Y-5062778D01*
X1352956Y-5049316D01*
X1349806Y-5039106D01*
X1349349Y-5035499D01*
X1350264Y-5031943D01*
X1352346Y-5028946D01*
X1572717Y-4808524D01*
X1577848Y-4802327D01*
X1581404Y-4795621D01*
X1583588Y-4788408D01*
X1584401Y-4780381D01*
X1584401Y-4691735D01*
X1585163Y-4687824D01*
X1587347Y-4684522D01*
X1590649Y-4682337D01*
X1594561Y-4681575D01*
X1635201Y-4681575D01*
X1641551Y-4680864D01*
X1646986Y-4678934D01*
X1651863Y-4675835D01*
X1655978Y-4671771D01*
X1659077Y-4666843D01*
X1660956Y-4661408D01*
X1661668Y-4655058D01*
X1661668Y-4476242D01*
X1660956Y-4469892D01*
X1659077Y-4464456D01*
X1655978Y-4459528D01*
X1651863Y-4455464D01*
X1646986Y-4452366D01*
X1641551Y-4450435D01*
X1635201Y-4449724D01*
X1456334Y-4449724D01*
X1450035Y-4450435D01*
X1444548Y-4452366D01*
X1439672Y-4455464D01*
X1435557Y-4459528D01*
X1432509Y-4464456D01*
X1430578Y-4469892D01*
X1429867Y-4476242D01*
X1429867Y-4655058D01*
X1430578Y-4661408D01*
X1432509Y-4666843D01*
X1435557Y-4671771D01*
X1439672Y-4675835D01*
X1444548Y-4678934D01*
X1450035Y-4680864D01*
X1456334Y-4681575D01*
X1497025Y-4681575D01*
X1500886Y-4682337D01*
X1504188Y-4684522D01*
X1506372Y-4687824D01*
X1507185Y-4691735D01*
X1507185Y-4760671D01*
X1506372Y-4764582D01*
X1504188Y-4767884D01*
X1297686Y-4974386D01*
X1294536Y-4976520D01*
X1290878Y-4977333D01*
X1287170Y-4976825D01*
X1280617Y-4974539D01*
X1267256Y-4971846D01*
X1253693Y-4970932D01*
X1240078Y-4971846D01*
X1226718Y-4974539D01*
X1213815Y-4979009D01*
X1201623Y-4985156D01*
X1190396Y-4992878D01*
X1180287Y-5002022D01*
X1171498Y-5012436D01*
X1164132Y-5023916D01*
X1158392Y-5036312D01*
X1154379Y-5049316D01*
X1152093Y-5062778D01*
X1151636Y-5076393D01*
X1153007Y-5089956D01*
X1156157Y-5103266D01*
X1161084Y-5115966D01*
X1167638Y-5127955D01*
X1175715Y-5138928D01*
X1185214Y-5148732D01*
X1195882Y-5157165D01*
X1207617Y-5164124D01*
X1220165Y-5169458D01*
X1233322Y-5173014D01*
G37*
G36*
X2890570Y-5174843D02*
G01*
X2904236Y-5174843D01*
X2917748Y-5173014D01*
X2930906Y-5169458D01*
X2943453Y-5164124D01*
X2955188Y-5157165D01*
X2965907Y-5148732D01*
X2975356Y-5138928D01*
X2983484Y-5127955D01*
X2990037Y-5115966D01*
X2994914Y-5103266D01*
X2998063Y-5089956D01*
X2999435Y-5076393D01*
X2998978Y-5062778D01*
X2996742Y-5049316D01*
X2993542Y-5039156D01*
X2993136Y-5035499D01*
X2993999Y-5031943D01*
X2996082Y-5028946D01*
X3216452Y-4808524D01*
X3221583Y-4802327D01*
X3225139Y-4795621D01*
X3227324Y-4788408D01*
X3228136Y-4780381D01*
X3228136Y-4691735D01*
X3228898Y-4687824D01*
X3231134Y-4684522D01*
X3234385Y-4682337D01*
X3238296Y-4681575D01*
X3278936Y-4681575D01*
X3285286Y-4680864D01*
X3290722Y-4678934D01*
X3295650Y-4675835D01*
X3299714Y-4671771D01*
X3302812Y-4666843D01*
X3304743Y-4661408D01*
X3305454Y-4655058D01*
X3305454Y-4476242D01*
X3304743Y-4469892D01*
X3302812Y-4464456D01*
X3299714Y-4459528D01*
X3295650Y-4455464D01*
X3290722Y-4452366D01*
X3285286Y-4450435D01*
X3278936Y-4449724D01*
X3100120Y-4449724D01*
X3093770Y-4450435D01*
X3088335Y-4452366D01*
X3083407Y-4455464D01*
X3079343Y-4459528D01*
X3076244Y-4464456D01*
X3074314Y-4469892D01*
X3073603Y-4476242D01*
X3073603Y-4655058D01*
X3074314Y-4661408D01*
X3076244Y-4666843D01*
X3079343Y-4671771D01*
X3083407Y-4675835D01*
X3088335Y-4678934D01*
X3093770Y-4680864D01*
X3100120Y-4681575D01*
X3140760Y-4681575D01*
X3144672Y-4682337D01*
X3147923Y-4684522D01*
X3150158Y-4687824D01*
X3150920Y-4691735D01*
X3150920Y-4760671D01*
X3150158Y-4764582D01*
X3147923Y-4767884D01*
X2941421Y-4974386D01*
X2938322Y-4976520D01*
X2934614Y-4977384D01*
X2930906Y-4976825D01*
X2924403Y-4974539D01*
X2911043Y-4971846D01*
X2897428Y-4970932D01*
X2883814Y-4971846D01*
X2870454Y-4974539D01*
X2857550Y-4979009D01*
X2845409Y-4985156D01*
X2834132Y-4992878D01*
X2824022Y-5002022D01*
X2815234Y-5012436D01*
X2807868Y-5023916D01*
X2802128Y-5036312D01*
X2798114Y-5049316D01*
X2795828Y-5062778D01*
X2795371Y-5076393D01*
X2796743Y-5089956D01*
X2799892Y-5103266D01*
X2804820Y-5115966D01*
X2811373Y-5127955D01*
X2819450Y-5138928D01*
X2828950Y-5148732D01*
X2839618Y-5157165D01*
X2851353Y-5164124D01*
X2863951Y-5169458D01*
X2877058Y-5173014D01*
G37*
G36*
X6833158Y-4945126D02*
G01*
X6871208Y-4945126D01*
X6877558Y-4944414D01*
X6882993Y-4942484D01*
X6887921Y-4939436D01*
X6891985Y-4935321D01*
X6895084Y-4930444D01*
X6897014Y-4924958D01*
X6897725Y-4918659D01*
X6897725Y-4880559D01*
X6833158Y-4880559D01*
G37*
G36*
X7035800Y-4945126D02*
G01*
X7050328Y-4944211D01*
X7064603Y-4941468D01*
X7078472Y-4936947D01*
X7091629Y-4930749D01*
X7103922Y-4922977D01*
X7115149Y-4913680D01*
X7125106Y-4903063D01*
X7133640Y-4891328D01*
X7140651Y-4878578D01*
X7146036Y-4865014D01*
X7149642Y-4850942D01*
X7151471Y-4836515D01*
X7151471Y-4821936D01*
X7149642Y-4807508D01*
X7146036Y-4793386D01*
X7142835Y-4785410D01*
X7142124Y-4781600D01*
X7142937Y-4777740D01*
X7145121Y-4774488D01*
X7324598Y-4595012D01*
X7329728Y-4588814D01*
X7333284Y-4582109D01*
X7335469Y-4574895D01*
X7336281Y-4566869D01*
X7336281Y-3399231D01*
X7335469Y-3391204D01*
X7333284Y-3383991D01*
X7329728Y-3377336D01*
X7324598Y-3371087D01*
X7145121Y-3191611D01*
X7142937Y-3188360D01*
X7142124Y-3184550D01*
X7142835Y-3180689D01*
X7146036Y-3172714D01*
X7149642Y-3158591D01*
X7151471Y-3144164D01*
X7151471Y-3129635D01*
X7149642Y-3115208D01*
X7146036Y-3101086D01*
X7140651Y-3087573D01*
X7133640Y-3074822D01*
X7125106Y-3063036D01*
X7115149Y-3052419D01*
X7103922Y-3043123D01*
X7091629Y-3035350D01*
X7078472Y-3029153D01*
X7064603Y-3024632D01*
X7050328Y-3021939D01*
X7035800Y-3021025D01*
X7021271Y-3021939D01*
X7006996Y-3024632D01*
X6993128Y-3029153D01*
X6979970Y-3035350D01*
X6967677Y-3043123D01*
X6956450Y-3052419D01*
X6946493Y-3063036D01*
X6937959Y-3074822D01*
X6930948Y-3087573D01*
X6925564Y-3101086D01*
X6921957Y-3115208D01*
X6920128Y-3129635D01*
X6920128Y-3144164D01*
X6921957Y-3158591D01*
X6925564Y-3172714D01*
X6930948Y-3186226D01*
X6937959Y-3198977D01*
X6946493Y-3210763D01*
X6956450Y-3221380D01*
X6967677Y-3230676D01*
X6979970Y-3238449D01*
X6993128Y-3244646D01*
X7006996Y-3249168D01*
X7021271Y-3251860D01*
X7035800Y-3252774D01*
X7050328Y-3251860D01*
X7064603Y-3249168D01*
X7078472Y-3244646D01*
X7083145Y-3243376D01*
X7087209Y-3244088D01*
X7090664Y-3246323D01*
X7256068Y-3411778D01*
X7258253Y-3415080D01*
X7259066Y-3418941D01*
X7259066Y-3835806D01*
X7258100Y-3840073D01*
X7255459Y-3843578D01*
X7251649Y-3845610D01*
X7247280Y-3845864D01*
X7243216Y-3844290D01*
X7239965Y-3842054D01*
X7233361Y-3838803D01*
X7233361Y-3887419D01*
X7248906Y-3887419D01*
X7252766Y-3888181D01*
X7256068Y-3890416D01*
X7258253Y-3893718D01*
X7259066Y-3897579D01*
X7259066Y-3969969D01*
X7258253Y-3973880D01*
X7256068Y-3977132D01*
X7252766Y-3979367D01*
X7248906Y-3980129D01*
X7233361Y-3980129D01*
X7233361Y-4028744D01*
X7239965Y-4025493D01*
X7243216Y-4023258D01*
X7247280Y-4021683D01*
X7251649Y-4021937D01*
X7255459Y-4024020D01*
X7258100Y-4027474D01*
X7259066Y-4031742D01*
X7259066Y-4547158D01*
X7258253Y-4551070D01*
X7256068Y-4554372D01*
X7090664Y-4719777D01*
X7087209Y-4722063D01*
X7083145Y-4722723D01*
X7078472Y-4721453D01*
X7064603Y-4716983D01*
X7050328Y-4714240D01*
X7035800Y-4713325D01*
X7021271Y-4714240D01*
X7006996Y-4716983D01*
X6993128Y-4721453D01*
X6979970Y-4727651D01*
X6967677Y-4735474D01*
X6956450Y-4744720D01*
X6946493Y-4755337D01*
X6937959Y-4767122D01*
X6930948Y-4779873D01*
X6925564Y-4793386D01*
X6921957Y-4807508D01*
X6920128Y-4821936D01*
X6920128Y-4836515D01*
X6921957Y-4850942D01*
X6925564Y-4865014D01*
X6930948Y-4878578D01*
X6937959Y-4891328D01*
X6946493Y-4903063D01*
X6956450Y-4913680D01*
X6967677Y-4922977D01*
X6979970Y-4930749D01*
X6993128Y-4936947D01*
X7006996Y-4941468D01*
X7021271Y-4944211D01*
G37*
G36*
X6833158Y-4777841D02*
G01*
X6897725Y-4777841D01*
X6897725Y-4739792D01*
X6897014Y-4733442D01*
X6895084Y-4728006D01*
X6891985Y-4723079D01*
X6887921Y-4719015D01*
X6882993Y-4715916D01*
X6877558Y-4714036D01*
X6871208Y-4713325D01*
X6833158Y-4713325D01*
G37*
G36*
X5565698Y-4681575D02*
G01*
X5744565Y-4681575D01*
X5750864Y-4680864D01*
X5756351Y-4678934D01*
X5761228Y-4675835D01*
X5765342Y-4671771D01*
X5768390Y-4666843D01*
X5770321Y-4661408D01*
X5771032Y-4655108D01*
X5771032Y-4476242D01*
X5770321Y-4469892D01*
X5768390Y-4464456D01*
X5765342Y-4459528D01*
X5761228Y-4455464D01*
X5756351Y-4452366D01*
X5750864Y-4450435D01*
X5744565Y-4449724D01*
X5565698Y-4449724D01*
X5559348Y-4450435D01*
X5553913Y-4452366D01*
X5548985Y-4455464D01*
X5544921Y-4459528D01*
X5541822Y-4464456D01*
X5539943Y-4469892D01*
X5539232Y-4476242D01*
X5539232Y-4655108D01*
X5539943Y-4661408D01*
X5541822Y-4666843D01*
X5544921Y-4671771D01*
X5548985Y-4675835D01*
X5553913Y-4678934D01*
X5559348Y-4680864D01*
G37*
G36*
X1037793Y-4681524D02*
G01*
X1052322Y-4680610D01*
X1066596Y-4677918D01*
X1080414Y-4673396D01*
X1093622Y-4667199D01*
X1105916Y-4659426D01*
X1117092Y-4650130D01*
X1127048Y-4639513D01*
X1135634Y-4627727D01*
X1142644Y-4614976D01*
X1147978Y-4601464D01*
X1151585Y-4587341D01*
X1153414Y-4572914D01*
X1153414Y-4558385D01*
X1151585Y-4543958D01*
X1147978Y-4529836D01*
X1142644Y-4516323D01*
X1135634Y-4503572D01*
X1127048Y-4491786D01*
X1117092Y-4481169D01*
X1105916Y-4471873D01*
X1093622Y-4464100D01*
X1080414Y-4457903D01*
X1066596Y-4453382D01*
X1052322Y-4450689D01*
X1037793Y-4449775D01*
X1023264Y-4450689D01*
X1008938Y-4453382D01*
X995121Y-4457903D01*
X981964Y-4464100D01*
X969670Y-4471873D01*
X958443Y-4481169D01*
X948486Y-4491786D01*
X939952Y-4503572D01*
X932942Y-4516323D01*
X927557Y-4529836D01*
X923950Y-4543958D01*
X922121Y-4558385D01*
X922121Y-4572914D01*
X923950Y-4587341D01*
X927557Y-4601464D01*
X932942Y-4614976D01*
X939952Y-4627727D01*
X948486Y-4639513D01*
X958443Y-4650130D01*
X969670Y-4659426D01*
X981964Y-4667199D01*
X995121Y-4673396D01*
X1008938Y-4677918D01*
X1023264Y-4680610D01*
G37*
G36*
X215900Y-4681524D02*
G01*
X230428Y-4680610D01*
X244703Y-4677918D01*
X258571Y-4673396D01*
X271729Y-4667199D01*
X284022Y-4659426D01*
X295249Y-4650130D01*
X305206Y-4639513D01*
X313740Y-4627727D01*
X320751Y-4614976D01*
X326136Y-4601464D01*
X329742Y-4587341D01*
X331571Y-4572914D01*
X331571Y-4558385D01*
X329742Y-4543958D01*
X326136Y-4529836D01*
X320751Y-4516323D01*
X313740Y-4503572D01*
X305206Y-4491786D01*
X295249Y-4481169D01*
X284022Y-4471873D01*
X271729Y-4464100D01*
X258571Y-4457903D01*
X244703Y-4453382D01*
X230428Y-4450689D01*
X215900Y-4449775D01*
X201371Y-4450689D01*
X187096Y-4453382D01*
X173228Y-4457903D01*
X160070Y-4464100D01*
X147777Y-4471873D01*
X136550Y-4481169D01*
X126593Y-4491786D01*
X118059Y-4503572D01*
X111048Y-4516323D01*
X105664Y-4529836D01*
X102057Y-4543958D01*
X100228Y-4558385D01*
X100228Y-4572914D01*
X102057Y-4587341D01*
X105664Y-4601464D01*
X111048Y-4614976D01*
X118059Y-4627727D01*
X126593Y-4639513D01*
X136550Y-4650130D01*
X147777Y-4659426D01*
X160070Y-4667199D01*
X173228Y-4673396D01*
X187096Y-4677918D01*
X201371Y-4680610D01*
G37*
G36*
X5147106Y-4681524D02*
G01*
X5161635Y-4680610D01*
X5175961Y-4677918D01*
X5189778Y-4673396D01*
X5202936Y-4667199D01*
X5215229Y-4659426D01*
X5226456Y-4650130D01*
X5236413Y-4639513D01*
X5244947Y-4627727D01*
X5251958Y-4614976D01*
X5257342Y-4601464D01*
X5260949Y-4587392D01*
X5262778Y-4572914D01*
X5262778Y-4558385D01*
X5260949Y-4543958D01*
X5257342Y-4529836D01*
X5251958Y-4516323D01*
X5244947Y-4503572D01*
X5236413Y-4491786D01*
X5226456Y-4481169D01*
X5215229Y-4471924D01*
X5202936Y-4464100D01*
X5189778Y-4457903D01*
X5175961Y-4453432D01*
X5161635Y-4450689D01*
X5147106Y-4449775D01*
X5132578Y-4450689D01*
X5118303Y-4453432D01*
X5104485Y-4457903D01*
X5091277Y-4464100D01*
X5078984Y-4471924D01*
X5067808Y-4481169D01*
X5057851Y-4491786D01*
X5049266Y-4503572D01*
X5042255Y-4516323D01*
X5036921Y-4529836D01*
X5033264Y-4543958D01*
X5031486Y-4558385D01*
X5031486Y-4572914D01*
X5033264Y-4587392D01*
X5036921Y-4601464D01*
X5042255Y-4614976D01*
X5049266Y-4627727D01*
X5057851Y-4639513D01*
X5067808Y-4650130D01*
X5078984Y-4659426D01*
X5091277Y-4667199D01*
X5104485Y-4673396D01*
X5118303Y-4677918D01*
X5132578Y-4680610D01*
G37*
G36*
X2681528Y-4681524D02*
G01*
X2696057Y-4680610D01*
X2710332Y-4677918D01*
X2724200Y-4673396D01*
X2737358Y-4667199D01*
X2749651Y-4659426D01*
X2760878Y-4650130D01*
X2770835Y-4639513D01*
X2779369Y-4627727D01*
X2786380Y-4614976D01*
X2791764Y-4601464D01*
X2795371Y-4587341D01*
X2797200Y-4572914D01*
X2797200Y-4558385D01*
X2795371Y-4543958D01*
X2791764Y-4529836D01*
X2786380Y-4516323D01*
X2779369Y-4503572D01*
X2770835Y-4491786D01*
X2760878Y-4481169D01*
X2749651Y-4471873D01*
X2737358Y-4464100D01*
X2724200Y-4457903D01*
X2710332Y-4453382D01*
X2696057Y-4450689D01*
X2681528Y-4449775D01*
X2667000Y-4450689D01*
X2652725Y-4453382D01*
X2638856Y-4457903D01*
X2625699Y-4464100D01*
X2613406Y-4471873D01*
X2602179Y-4481169D01*
X2592222Y-4491786D01*
X2583688Y-4503572D01*
X2576677Y-4516323D01*
X2571292Y-4529836D01*
X2567686Y-4543958D01*
X2565857Y-4558385D01*
X2565857Y-4572914D01*
X2567686Y-4587341D01*
X2571292Y-4601464D01*
X2576677Y-4614976D01*
X2583688Y-4627727D01*
X2592222Y-4639513D01*
X2602179Y-4650130D01*
X2613406Y-4659426D01*
X2625699Y-4667199D01*
X2638856Y-4673396D01*
X2652725Y-4677918D01*
X2667000Y-4680610D01*
G37*
G36*
X4325264Y-4681524D02*
G01*
X4339793Y-4680610D01*
X4354068Y-4677918D01*
X4367936Y-4673396D01*
X4381093Y-4667199D01*
X4393387Y-4659426D01*
X4404614Y-4650130D01*
X4414570Y-4639513D01*
X4423105Y-4627727D01*
X4430115Y-4614976D01*
X4435500Y-4601464D01*
X4439107Y-4587392D01*
X4440936Y-4572914D01*
X4440936Y-4558385D01*
X4439107Y-4543958D01*
X4435500Y-4529836D01*
X4430115Y-4516323D01*
X4423105Y-4503572D01*
X4414570Y-4491786D01*
X4404614Y-4481169D01*
X4393387Y-4471924D01*
X4381093Y-4464100D01*
X4367936Y-4457903D01*
X4354068Y-4453432D01*
X4339793Y-4450689D01*
X4325264Y-4449775D01*
X4310735Y-4450689D01*
X4296460Y-4453432D01*
X4282592Y-4457903D01*
X4269435Y-4464100D01*
X4257141Y-4471924D01*
X4245914Y-4481169D01*
X4235958Y-4491786D01*
X4227423Y-4503572D01*
X4220413Y-4516323D01*
X4215028Y-4529836D01*
X4211421Y-4543958D01*
X4209592Y-4558385D01*
X4209592Y-4572914D01*
X4211421Y-4587392D01*
X4215028Y-4601464D01*
X4220413Y-4614976D01*
X4227423Y-4627727D01*
X4235958Y-4639513D01*
X4245914Y-4650130D01*
X4257141Y-4659426D01*
X4269435Y-4667199D01*
X4282592Y-4673396D01*
X4296460Y-4677918D01*
X4310735Y-4680610D01*
G37*
G36*
X469900Y-4681524D02*
G01*
X484428Y-4680610D01*
X498703Y-4677918D01*
X512572Y-4673396D01*
X525729Y-4667199D01*
X538022Y-4659426D01*
X549249Y-4650130D01*
X559206Y-4639513D01*
X567740Y-4627727D01*
X574751Y-4614976D01*
X580136Y-4601464D01*
X583742Y-4587341D01*
X585571Y-4572914D01*
X585571Y-4558385D01*
X583742Y-4543958D01*
X580136Y-4529836D01*
X574751Y-4516323D01*
X567740Y-4503572D01*
X559206Y-4491786D01*
X549249Y-4481169D01*
X538022Y-4471873D01*
X525729Y-4464100D01*
X514350Y-4458716D01*
X511251Y-4456480D01*
X509219Y-4453280D01*
X508508Y-4449521D01*
X508508Y-4234129D01*
X509219Y-4230370D01*
X511251Y-4227169D01*
X514350Y-4224934D01*
X525729Y-4219549D01*
X538022Y-4211777D01*
X549249Y-4202480D01*
X559206Y-4191863D01*
X567740Y-4180078D01*
X574751Y-4167327D01*
X580136Y-4153814D01*
X583742Y-4139742D01*
X585571Y-4125264D01*
X585571Y-4110736D01*
X583742Y-4096308D01*
X580136Y-4082186D01*
X574751Y-4068673D01*
X567740Y-4055922D01*
X559206Y-4044137D01*
X549249Y-4033520D01*
X538022Y-4024274D01*
X525729Y-4016451D01*
X512572Y-4010253D01*
X498703Y-4005783D01*
X484428Y-4003040D01*
X469900Y-4002125D01*
X455371Y-4003040D01*
X441096Y-4005783D01*
X427228Y-4010253D01*
X414070Y-4016451D01*
X401777Y-4024274D01*
X390550Y-4033520D01*
X380593Y-4044137D01*
X372059Y-4055922D01*
X365048Y-4068673D01*
X359664Y-4082186D01*
X356057Y-4096308D01*
X354228Y-4110736D01*
X354228Y-4125264D01*
X356057Y-4139742D01*
X359664Y-4153814D01*
X365048Y-4167327D01*
X372059Y-4180078D01*
X380593Y-4191863D01*
X390550Y-4202480D01*
X401777Y-4211777D01*
X414070Y-4219549D01*
X425450Y-4224934D01*
X428548Y-4227169D01*
X430580Y-4230370D01*
X431292Y-4234129D01*
X431292Y-4449521D01*
X430580Y-4453280D01*
X428548Y-4456480D01*
X425450Y-4458716D01*
X414070Y-4464100D01*
X401777Y-4471873D01*
X390550Y-4481169D01*
X380593Y-4491786D01*
X372059Y-4503572D01*
X365048Y-4516323D01*
X359664Y-4529836D01*
X356057Y-4543958D01*
X354228Y-4558385D01*
X354228Y-4572914D01*
X356057Y-4587341D01*
X359664Y-4601464D01*
X365048Y-4614976D01*
X372059Y-4627727D01*
X380593Y-4639513D01*
X390550Y-4650130D01*
X401777Y-4659426D01*
X414070Y-4667199D01*
X427228Y-4673396D01*
X441096Y-4677918D01*
X455371Y-4680610D01*
G37*
G36*
X6223000Y-4681524D02*
G01*
X6237528Y-4680610D01*
X6251803Y-4677918D01*
X6265672Y-4673396D01*
X6278829Y-4667199D01*
X6291122Y-4659426D01*
X6302349Y-4650130D01*
X6312306Y-4639513D01*
X6320840Y-4627727D01*
X6327851Y-4614976D01*
X6333236Y-4601464D01*
X6336842Y-4587341D01*
X6338671Y-4572914D01*
X6338671Y-4558385D01*
X6336842Y-4543958D01*
X6333236Y-4529836D01*
X6327851Y-4516323D01*
X6320840Y-4503572D01*
X6312306Y-4491786D01*
X6302349Y-4481169D01*
X6291122Y-4471873D01*
X6278829Y-4464100D01*
X6267450Y-4458716D01*
X6264351Y-4456480D01*
X6262319Y-4453280D01*
X6261608Y-4449521D01*
X6261608Y-4234129D01*
X6262319Y-4230370D01*
X6264351Y-4227169D01*
X6267450Y-4224934D01*
X6278829Y-4219549D01*
X6291122Y-4211777D01*
X6302349Y-4202480D01*
X6312306Y-4191863D01*
X6320840Y-4180078D01*
X6327851Y-4167327D01*
X6333236Y-4153814D01*
X6336842Y-4139742D01*
X6338671Y-4125264D01*
X6338671Y-4110736D01*
X6336842Y-4096308D01*
X6333236Y-4082186D01*
X6327851Y-4068673D01*
X6320840Y-4055922D01*
X6312306Y-4044137D01*
X6302349Y-4033520D01*
X6291122Y-4024274D01*
X6278829Y-4016451D01*
X6265672Y-4010253D01*
X6251803Y-4005783D01*
X6237528Y-4003040D01*
X6223000Y-4002125D01*
X6208471Y-4003040D01*
X6194196Y-4005783D01*
X6180328Y-4010253D01*
X6167170Y-4016451D01*
X6154877Y-4024274D01*
X6143650Y-4033520D01*
X6133693Y-4044137D01*
X6125159Y-4055922D01*
X6118148Y-4068673D01*
X6112764Y-4082186D01*
X6109157Y-4096308D01*
X6107328Y-4110736D01*
X6107328Y-4125264D01*
X6109157Y-4139742D01*
X6112764Y-4153814D01*
X6118148Y-4167327D01*
X6125159Y-4180078D01*
X6133693Y-4191863D01*
X6143650Y-4202480D01*
X6154877Y-4211777D01*
X6167170Y-4219549D01*
X6178550Y-4224934D01*
X6181648Y-4227169D01*
X6183680Y-4230370D01*
X6184392Y-4234129D01*
X6184392Y-4449521D01*
X6183680Y-4453280D01*
X6181648Y-4456480D01*
X6178550Y-4458716D01*
X6167170Y-4464100D01*
X6154877Y-4471873D01*
X6143650Y-4481169D01*
X6133693Y-4491786D01*
X6125159Y-4503572D01*
X6118148Y-4516323D01*
X6112764Y-4529836D01*
X6109157Y-4543958D01*
X6107328Y-4558385D01*
X6107328Y-4572914D01*
X6109157Y-4587341D01*
X6112764Y-4601464D01*
X6118148Y-4614976D01*
X6125159Y-4627727D01*
X6133693Y-4639513D01*
X6143650Y-4650130D01*
X6154877Y-4659426D01*
X6167170Y-4667199D01*
X6180328Y-4673396D01*
X6194196Y-4677918D01*
X6208471Y-4680610D01*
G37*
G36*
X4579264Y-4681524D02*
G01*
X4593793Y-4680610D01*
X4608068Y-4677918D01*
X4621936Y-4673396D01*
X4635093Y-4667199D01*
X4647387Y-4659426D01*
X4658614Y-4650130D01*
X4668570Y-4639513D01*
X4677105Y-4627727D01*
X4684115Y-4614976D01*
X4689500Y-4601464D01*
X4693107Y-4587392D01*
X4694936Y-4572914D01*
X4694936Y-4558385D01*
X4693107Y-4543958D01*
X4689500Y-4529836D01*
X4684115Y-4516323D01*
X4677105Y-4503572D01*
X4668570Y-4491786D01*
X4658614Y-4481169D01*
X4647387Y-4471924D01*
X4635093Y-4464100D01*
X4623714Y-4458766D01*
X4620615Y-4456531D01*
X4618583Y-4453280D01*
X4617872Y-4449572D01*
X4617872Y-4234129D01*
X4618583Y-4230370D01*
X4620615Y-4227169D01*
X4623714Y-4224934D01*
X4635093Y-4219549D01*
X4647387Y-4211777D01*
X4658563Y-4202480D01*
X4668570Y-4191863D01*
X4677105Y-4180078D01*
X4684115Y-4167327D01*
X4689449Y-4153814D01*
X4693107Y-4139742D01*
X4694936Y-4125264D01*
X4694936Y-4110736D01*
X4693107Y-4096308D01*
X4689449Y-4082186D01*
X4684115Y-4068673D01*
X4677105Y-4055922D01*
X4668570Y-4044137D01*
X4658563Y-4033520D01*
X4647387Y-4024274D01*
X4635093Y-4016451D01*
X4621936Y-4010253D01*
X4608068Y-4005783D01*
X4593793Y-4003040D01*
X4579264Y-4002125D01*
X4564735Y-4003040D01*
X4550460Y-4005783D01*
X4536592Y-4010253D01*
X4523435Y-4016451D01*
X4511141Y-4024274D01*
X4499914Y-4033520D01*
X4489958Y-4044137D01*
X4481423Y-4055922D01*
X4474413Y-4068673D01*
X4469028Y-4082186D01*
X4465421Y-4096308D01*
X4463592Y-4110736D01*
X4463592Y-4125264D01*
X4465421Y-4139742D01*
X4469028Y-4153814D01*
X4474413Y-4167327D01*
X4481423Y-4180078D01*
X4489958Y-4191863D01*
X4499914Y-4202480D01*
X4511141Y-4211777D01*
X4523435Y-4219549D01*
X4534814Y-4224934D01*
X4537913Y-4227169D01*
X4539945Y-4230370D01*
X4540656Y-4234129D01*
X4540656Y-4449572D01*
X4539945Y-4453280D01*
X4537913Y-4456480D01*
X4534814Y-4458716D01*
X4523435Y-4464100D01*
X4511141Y-4471924D01*
X4499914Y-4481169D01*
X4489958Y-4491786D01*
X4481423Y-4503572D01*
X4474413Y-4516323D01*
X4469028Y-4529836D01*
X4465421Y-4543958D01*
X4463592Y-4558385D01*
X4463592Y-4572914D01*
X4465421Y-4587392D01*
X4469028Y-4601464D01*
X4474413Y-4614976D01*
X4481423Y-4627727D01*
X4489958Y-4639513D01*
X4499914Y-4650130D01*
X4511141Y-4659426D01*
X4523435Y-4667199D01*
X4536592Y-4673396D01*
X4550460Y-4677918D01*
X4564735Y-4680610D01*
G37*
G36*
X1291793Y-4681524D02*
G01*
X1306322Y-4680610D01*
X1320596Y-4677918D01*
X1334414Y-4673396D01*
X1347622Y-4667199D01*
X1359916Y-4659426D01*
X1371092Y-4650130D01*
X1381048Y-4639513D01*
X1389634Y-4627727D01*
X1396644Y-4614976D01*
X1401978Y-4601464D01*
X1405585Y-4587341D01*
X1407414Y-4572914D01*
X1407414Y-4558385D01*
X1405585Y-4543958D01*
X1401978Y-4529836D01*
X1396644Y-4516323D01*
X1389634Y-4503572D01*
X1381048Y-4491786D01*
X1371092Y-4481169D01*
X1359916Y-4471873D01*
X1347622Y-4464100D01*
X1336192Y-4458716D01*
X1333144Y-4456480D01*
X1331112Y-4453280D01*
X1330401Y-4449521D01*
X1330401Y-4234129D01*
X1331112Y-4230370D01*
X1333144Y-4227169D01*
X1336192Y-4224934D01*
X1347622Y-4219549D01*
X1359865Y-4211777D01*
X1371092Y-4202480D01*
X1381048Y-4191863D01*
X1389634Y-4180078D01*
X1396644Y-4167327D01*
X1401978Y-4153814D01*
X1405585Y-4139742D01*
X1407414Y-4125264D01*
X1407414Y-4110736D01*
X1405585Y-4096308D01*
X1401978Y-4082186D01*
X1396644Y-4068673D01*
X1389634Y-4055922D01*
X1381048Y-4044137D01*
X1371092Y-4033520D01*
X1359865Y-4024274D01*
X1347622Y-4016451D01*
X1334414Y-4010253D01*
X1320596Y-4005783D01*
X1306271Y-4003040D01*
X1291793Y-4002125D01*
X1277264Y-4003040D01*
X1262938Y-4005783D01*
X1249121Y-4010253D01*
X1235964Y-4016451D01*
X1223670Y-4024274D01*
X1212443Y-4033520D01*
X1202486Y-4044137D01*
X1193901Y-4055922D01*
X1186891Y-4068673D01*
X1181557Y-4082186D01*
X1177950Y-4096308D01*
X1176121Y-4110736D01*
X1176121Y-4125264D01*
X1177950Y-4139742D01*
X1181557Y-4153814D01*
X1186891Y-4167327D01*
X1193901Y-4180078D01*
X1202486Y-4191863D01*
X1212443Y-4202480D01*
X1223670Y-4211777D01*
X1235964Y-4219549D01*
X1247343Y-4224934D01*
X1250391Y-4227169D01*
X1252423Y-4230370D01*
X1253185Y-4234129D01*
X1253185Y-4449572D01*
X1252423Y-4453280D01*
X1250391Y-4456480D01*
X1247343Y-4458766D01*
X1235964Y-4464100D01*
X1223670Y-4471873D01*
X1212443Y-4481169D01*
X1202486Y-4491786D01*
X1193952Y-4503572D01*
X1186942Y-4516323D01*
X1181557Y-4529836D01*
X1177950Y-4543958D01*
X1176121Y-4558385D01*
X1176121Y-4572914D01*
X1177950Y-4587341D01*
X1181557Y-4601464D01*
X1186942Y-4614976D01*
X1193952Y-4627727D01*
X1202486Y-4639513D01*
X1212443Y-4650130D01*
X1223670Y-4659426D01*
X1235964Y-4667199D01*
X1249121Y-4673396D01*
X1262938Y-4677918D01*
X1277264Y-4680610D01*
G37*
G36*
X5401106Y-4681524D02*
G01*
X5415635Y-4680610D01*
X5429961Y-4677918D01*
X5443778Y-4673396D01*
X5456936Y-4667199D01*
X5469229Y-4659426D01*
X5480456Y-4650130D01*
X5490413Y-4639513D01*
X5498947Y-4627727D01*
X5505958Y-4614976D01*
X5511342Y-4601464D01*
X5514949Y-4587392D01*
X5516778Y-4572914D01*
X5516778Y-4558385D01*
X5514949Y-4543958D01*
X5511342Y-4529836D01*
X5505958Y-4516323D01*
X5498947Y-4503572D01*
X5490413Y-4491786D01*
X5480456Y-4481169D01*
X5469229Y-4471924D01*
X5456936Y-4464100D01*
X5445556Y-4458766D01*
X5442508Y-4456531D01*
X5440476Y-4453280D01*
X5439765Y-4449572D01*
X5439765Y-4234129D01*
X5440476Y-4230370D01*
X5442508Y-4227169D01*
X5445556Y-4224934D01*
X5456936Y-4219549D01*
X5469229Y-4211777D01*
X5480456Y-4202480D01*
X5490413Y-4191863D01*
X5498998Y-4180078D01*
X5506008Y-4167327D01*
X5511342Y-4153814D01*
X5514949Y-4139742D01*
X5516778Y-4125264D01*
X5516778Y-4110736D01*
X5514949Y-4096308D01*
X5511342Y-4082186D01*
X5506008Y-4068673D01*
X5498998Y-4055922D01*
X5490413Y-4044137D01*
X5480456Y-4033520D01*
X5469229Y-4024274D01*
X5456936Y-4016451D01*
X5443778Y-4010253D01*
X5429961Y-4005783D01*
X5415635Y-4003040D01*
X5401106Y-4002125D01*
X5386628Y-4003040D01*
X5372303Y-4005783D01*
X5358485Y-4010253D01*
X5345277Y-4016451D01*
X5333034Y-4024274D01*
X5321808Y-4033520D01*
X5311851Y-4044137D01*
X5303266Y-4055922D01*
X5296255Y-4068673D01*
X5290921Y-4082186D01*
X5287314Y-4096308D01*
X5285486Y-4110736D01*
X5285486Y-4125264D01*
X5287314Y-4139742D01*
X5290921Y-4153814D01*
X5296255Y-4167327D01*
X5303266Y-4180078D01*
X5311851Y-4191863D01*
X5321808Y-4202480D01*
X5333034Y-4211777D01*
X5345277Y-4219549D01*
X5356707Y-4224934D01*
X5359755Y-4227169D01*
X5361787Y-4230370D01*
X5362549Y-4234129D01*
X5362549Y-4449521D01*
X5361787Y-4453280D01*
X5359755Y-4456480D01*
X5356707Y-4458716D01*
X5345277Y-4464100D01*
X5332984Y-4471924D01*
X5321808Y-4481169D01*
X5311851Y-4491786D01*
X5303266Y-4503572D01*
X5296255Y-4516323D01*
X5290921Y-4529836D01*
X5287264Y-4543958D01*
X5285486Y-4558385D01*
X5285486Y-4572914D01*
X5287264Y-4587392D01*
X5290921Y-4601464D01*
X5296255Y-4614976D01*
X5303266Y-4627727D01*
X5311851Y-4639513D01*
X5321808Y-4650130D01*
X5332984Y-4659426D01*
X5345277Y-4667199D01*
X5358485Y-4673396D01*
X5372303Y-4677918D01*
X5386578Y-4680610D01*
G37*
G36*
X2935528Y-4681524D02*
G01*
X2950057Y-4680610D01*
X2964332Y-4677918D01*
X2978200Y-4673396D01*
X2991358Y-4667199D01*
X3003651Y-4659426D01*
X3014878Y-4650130D01*
X3024835Y-4639513D01*
X3033369Y-4627727D01*
X3040380Y-4614976D01*
X3045764Y-4601464D01*
X3049371Y-4587341D01*
X3051200Y-4572914D01*
X3051200Y-4558385D01*
X3049371Y-4543958D01*
X3045764Y-4529836D01*
X3040380Y-4516323D01*
X3033369Y-4503572D01*
X3024835Y-4491786D01*
X3014878Y-4481169D01*
X3003651Y-4471873D01*
X2991358Y-4464100D01*
X2979978Y-4458716D01*
X2976880Y-4456480D01*
X2974848Y-4453280D01*
X2974136Y-4449521D01*
X2974136Y-4234078D01*
X2974848Y-4230370D01*
X2976880Y-4227169D01*
X2979978Y-4224934D01*
X2991358Y-4219549D01*
X3003651Y-4211777D01*
X3014827Y-4202480D01*
X3024784Y-4191863D01*
X3033369Y-4180078D01*
X3040380Y-4167327D01*
X3045714Y-4153814D01*
X3049371Y-4139742D01*
X3051149Y-4125264D01*
X3051149Y-4110736D01*
X3049371Y-4096308D01*
X3045714Y-4082186D01*
X3040380Y-4068673D01*
X3033369Y-4055922D01*
X3024784Y-4044137D01*
X3014827Y-4033520D01*
X3003651Y-4024274D01*
X2991358Y-4016451D01*
X2978150Y-4010253D01*
X2964332Y-4005783D01*
X2950057Y-4003040D01*
X2935528Y-4002125D01*
X2921000Y-4003040D01*
X2906674Y-4005783D01*
X2892856Y-4010253D01*
X2879699Y-4016451D01*
X2867406Y-4024274D01*
X2856179Y-4033520D01*
X2846222Y-4044137D01*
X2837688Y-4055922D01*
X2830677Y-4068673D01*
X2825292Y-4082186D01*
X2821686Y-4096308D01*
X2819857Y-4110736D01*
X2819857Y-4125264D01*
X2821686Y-4139742D01*
X2825292Y-4153814D01*
X2830677Y-4167327D01*
X2837688Y-4180078D01*
X2846222Y-4191863D01*
X2856179Y-4202480D01*
X2867406Y-4211777D01*
X2879699Y-4219549D01*
X2891078Y-4224934D01*
X2894177Y-4227169D01*
X2896209Y-4230370D01*
X2896920Y-4234129D01*
X2896920Y-4449572D01*
X2896209Y-4453280D01*
X2894177Y-4456480D01*
X2891078Y-4458716D01*
X2879699Y-4464100D01*
X2867406Y-4471873D01*
X2856179Y-4481169D01*
X2846222Y-4491786D01*
X2837688Y-4503572D01*
X2830677Y-4516323D01*
X2825292Y-4529836D01*
X2821686Y-4543958D01*
X2819857Y-4558385D01*
X2819857Y-4572914D01*
X2821686Y-4587341D01*
X2825292Y-4601464D01*
X2830677Y-4614976D01*
X2837688Y-4627727D01*
X2846222Y-4639513D01*
X2856179Y-4650130D01*
X2867406Y-4659426D01*
X2879699Y-4667199D01*
X2892856Y-4673396D01*
X2906725Y-4677918D01*
X2921000Y-4680610D01*
G37*
G36*
X5969000Y-4681524D02*
G01*
X5983528Y-4680610D01*
X5997803Y-4677918D01*
X6011672Y-4673396D01*
X6024829Y-4667199D01*
X6037122Y-4659426D01*
X6048349Y-4650130D01*
X6058306Y-4639513D01*
X6066840Y-4627727D01*
X6073851Y-4614976D01*
X6079236Y-4601464D01*
X6082842Y-4587341D01*
X6084671Y-4572914D01*
X6084671Y-4558385D01*
X6082842Y-4543958D01*
X6079236Y-4529836D01*
X6073851Y-4516323D01*
X6066840Y-4503572D01*
X6058306Y-4491786D01*
X6048349Y-4481169D01*
X6037122Y-4471873D01*
X6024829Y-4464100D01*
X6011672Y-4457903D01*
X5997803Y-4453382D01*
X5983528Y-4450689D01*
X5969000Y-4449775D01*
X5954471Y-4450689D01*
X5940196Y-4453382D01*
X5926328Y-4457903D01*
X5921654Y-4459173D01*
X5917590Y-4458462D01*
X5914136Y-4456226D01*
X5762802Y-4304842D01*
X5760567Y-4301540D01*
X5759805Y-4297629D01*
X5759805Y-2287778D01*
X5760567Y-2283866D01*
X5762802Y-2280564D01*
X5766054Y-2278380D01*
X5769965Y-2277618D01*
X5908751Y-2277618D01*
X5915050Y-2276906D01*
X5920536Y-2274976D01*
X5925413Y-2271928D01*
X5929528Y-2267813D01*
X5932576Y-2262936D01*
X5934506Y-2257450D01*
X5935218Y-2251151D01*
X5935218Y-2092248D01*
X5934506Y-2085949D01*
X5932576Y-2080463D01*
X5929528Y-2075586D01*
X5925413Y-2071471D01*
X5920536Y-2068372D01*
X5915050Y-2066493D01*
X5908751Y-2065782D01*
X5769965Y-2065782D01*
X5766054Y-2065020D01*
X5762802Y-2062784D01*
X5760567Y-2059482D01*
X5759805Y-2055622D01*
X5759805Y-1538020D01*
X5760567Y-1534109D01*
X5762802Y-1530807D01*
X5782310Y-1511300D01*
X5785408Y-1509217D01*
X5789015Y-1508353D01*
X5792724Y-1508861D01*
X5801868Y-1511960D01*
X5815482Y-1514703D01*
X5829300Y-1515567D01*
X5843117Y-1514703D01*
X5856681Y-1511960D01*
X5869838Y-1507540D01*
X5882233Y-1501394D01*
X5893765Y-1493723D01*
X5900775Y-1487525D01*
X5904128Y-1485595D01*
X5907938Y-1485036D01*
X5911697Y-1485950D01*
X5914796Y-1488135D01*
X5916930Y-1491386D01*
X5917641Y-1495196D01*
X5917641Y-1790141D01*
X5918454Y-1798167D01*
X5920638Y-1805381D01*
X5924194Y-1812086D01*
X5929325Y-1818284D01*
X6235700Y-2124659D01*
X6237782Y-2127758D01*
X6238646Y-2131415D01*
X6238138Y-2135124D01*
X6234988Y-2144268D01*
X6232296Y-2157882D01*
X6231382Y-2171700D01*
X6232296Y-2185517D01*
X6234988Y-2199081D01*
X6239459Y-2212238D01*
X6245606Y-2224633D01*
X6253276Y-2236165D01*
X6262420Y-2246579D01*
X6272834Y-2255723D01*
X6284366Y-2263394D01*
X6296761Y-2269540D01*
X6309868Y-2273960D01*
X6323482Y-2276703D01*
X6337300Y-2277567D01*
X6351117Y-2276703D01*
X6364681Y-2273960D01*
X6377838Y-2269540D01*
X6390233Y-2263394D01*
X6401765Y-2255723D01*
X6412179Y-2246579D01*
X6421323Y-2236165D01*
X6428994Y-2224633D01*
X6435140Y-2212238D01*
X6439560Y-2199081D01*
X6442303Y-2185517D01*
X6443218Y-2171700D01*
X6442303Y-2157882D01*
X6439560Y-2144268D01*
X6435140Y-2131161D01*
X6428994Y-2118766D01*
X6421323Y-2107234D01*
X6412179Y-2096820D01*
X6401765Y-2087676D01*
X6390233Y-2080006D01*
X6377838Y-2073859D01*
X6364681Y-2069388D01*
X6351117Y-2066696D01*
X6337300Y-2065782D01*
X6323482Y-2066696D01*
X6309868Y-2069388D01*
X6300724Y-2072487D01*
X6297015Y-2073046D01*
X6293358Y-2072182D01*
X6290259Y-2070100D01*
X5997854Y-1777644D01*
X5995619Y-1774342D01*
X5994857Y-1770430D01*
X5994857Y-1495094D01*
X5995568Y-1491335D01*
X5997702Y-1488084D01*
X6000800Y-1485849D01*
X6004560Y-1484934D01*
X6008370Y-1485493D01*
X6011722Y-1487474D01*
X6018834Y-1493723D01*
X6030366Y-1501394D01*
X6036919Y-1504645D01*
X6036919Y-1456029D01*
X6005017Y-1456029D01*
X6001105Y-1455267D01*
X5997854Y-1453083D01*
X5995619Y-1449781D01*
X5994857Y-1445869D01*
X5994857Y-1373479D01*
X5995619Y-1369618D01*
X5997854Y-1366316D01*
X6001105Y-1364132D01*
X6005017Y-1363319D01*
X6036919Y-1363319D01*
X6036919Y-1314754D01*
X6030366Y-1318006D01*
X6018834Y-1325676D01*
X6008420Y-1334820D01*
X6001715Y-1342440D01*
X5998159Y-1345031D01*
X5993892Y-1345946D01*
X5989624Y-1344930D01*
X5986221Y-1342186D01*
X5983173Y-1338529D01*
X5243525Y-598881D01*
X5237276Y-593750D01*
X5230622Y-590194D01*
X5223408Y-588010D01*
X5215382Y-587197D01*
X4483912Y-587197D01*
X4480052Y-586435D01*
X4476750Y-584200D01*
X4475124Y-582625D01*
X4467098Y-576986D01*
X4458208Y-572820D01*
X4448708Y-570280D01*
X4438904Y-569417D01*
X4429099Y-570280D01*
X4419600Y-572820D01*
X4410710Y-576986D01*
X4402683Y-582625D01*
X4395724Y-589584D01*
X4390085Y-597611D01*
X4385919Y-606501D01*
X4383379Y-616000D01*
X4382516Y-625805D01*
X4383379Y-635609D01*
X4385919Y-645109D01*
X4390085Y-653999D01*
X4395724Y-662025D01*
X4402683Y-668985D01*
X4410710Y-674624D01*
X4419600Y-678789D01*
X4429099Y-681329D01*
X4438904Y-682193D01*
X4448708Y-681329D01*
X4458208Y-678789D01*
X4467098Y-674624D01*
X4475124Y-668985D01*
X4476750Y-667410D01*
X4480052Y-665175D01*
X4483912Y-664413D01*
X5195671Y-664413D01*
X5199532Y-665175D01*
X5202834Y-667410D01*
X5822797Y-1287322D01*
X5824931Y-1290523D01*
X5825744Y-1294282D01*
X5825134Y-1298092D01*
X5823102Y-1301394D01*
X5820003Y-1303680D01*
X5801868Y-1307388D01*
X5788761Y-1311859D01*
X5776366Y-1318006D01*
X5764834Y-1325676D01*
X5754420Y-1334820D01*
X5745276Y-1345234D01*
X5737606Y-1356766D01*
X5731459Y-1369161D01*
X5726988Y-1382268D01*
X5724296Y-1395882D01*
X5723382Y-1409700D01*
X5724296Y-1423517D01*
X5726988Y-1437081D01*
X5730138Y-1446276D01*
X5730646Y-1449984D01*
X5729782Y-1453642D01*
X5727700Y-1456690D01*
X5694273Y-1490167D01*
X5689142Y-1496364D01*
X5685586Y-1503070D01*
X5683402Y-1510284D01*
X5682589Y-1518310D01*
X5682589Y-4317339D01*
X5683402Y-4325366D01*
X5685586Y-4332579D01*
X5689142Y-4339285D01*
X5694273Y-4345482D01*
X5859678Y-4510938D01*
X5861862Y-4514189D01*
X5862675Y-4517999D01*
X5861964Y-4521860D01*
X5858764Y-4529836D01*
X5855157Y-4543958D01*
X5853328Y-4558385D01*
X5853328Y-4572914D01*
X5855157Y-4587341D01*
X5858764Y-4601464D01*
X5864148Y-4614976D01*
X5871159Y-4627727D01*
X5879693Y-4639513D01*
X5889650Y-4650130D01*
X5900877Y-4659426D01*
X5913170Y-4667199D01*
X5926328Y-4673396D01*
X5940196Y-4677918D01*
X5954471Y-4680610D01*
G37*
G36*
X7140651Y-4028744D02*
G01*
X7140651Y-3980129D01*
X7092035Y-3980129D01*
X7095286Y-3986733D01*
X7103008Y-3998214D01*
X7112152Y-4008628D01*
X7122566Y-4017772D01*
X7134047Y-4025493D01*
G37*
G36*
X7092035Y-3887419D02*
G01*
X7140651Y-3887419D01*
X7140651Y-3838803D01*
X7134047Y-3842054D01*
X7122566Y-3849776D01*
X7112152Y-3858920D01*
X7103008Y-3869334D01*
X7095286Y-3880815D01*
G37*
G36*
X1291793Y-3363874D02*
G01*
X1306271Y-3362960D01*
X1320596Y-3360216D01*
X1334414Y-3355746D01*
X1347622Y-3349548D01*
X1359865Y-3341725D01*
X1371092Y-3332479D01*
X1381048Y-3321862D01*
X1389634Y-3310077D01*
X1396644Y-3297326D01*
X1401978Y-3283813D01*
X1405585Y-3269691D01*
X1407414Y-3255264D01*
X1407414Y-3240735D01*
X1405585Y-3226257D01*
X1401978Y-3212185D01*
X1396644Y-3198672D01*
X1389634Y-3185922D01*
X1381048Y-3174136D01*
X1371092Y-3163519D01*
X1359865Y-3154222D01*
X1347622Y-3146450D01*
X1334414Y-3140252D01*
X1320596Y-3135731D01*
X1306271Y-3133039D01*
X1291793Y-3132124D01*
X1277264Y-3133039D01*
X1262938Y-3135731D01*
X1249121Y-3140252D01*
X1235964Y-3146450D01*
X1223670Y-3154222D01*
X1212443Y-3163519D01*
X1202486Y-3174136D01*
X1193901Y-3185922D01*
X1186891Y-3198672D01*
X1181557Y-3212185D01*
X1177950Y-3226257D01*
X1176121Y-3240735D01*
X1176121Y-3255264D01*
X1177950Y-3269691D01*
X1181557Y-3283813D01*
X1186891Y-3297326D01*
X1193901Y-3310077D01*
X1202486Y-3321862D01*
X1212443Y-3332479D01*
X1223670Y-3341725D01*
X1235964Y-3349548D01*
X1249121Y-3355746D01*
X1262938Y-3360216D01*
X1277264Y-3362960D01*
G37*
G36*
X469900Y-3363874D02*
G01*
X484428Y-3362960D01*
X498703Y-3360216D01*
X512572Y-3355746D01*
X525729Y-3349548D01*
X538022Y-3341725D01*
X549249Y-3332479D01*
X559206Y-3321862D01*
X567740Y-3310077D01*
X574751Y-3297326D01*
X580136Y-3283813D01*
X583742Y-3269691D01*
X585571Y-3255264D01*
X585571Y-3240735D01*
X583742Y-3226257D01*
X580136Y-3212185D01*
X574751Y-3198672D01*
X567740Y-3185922D01*
X559206Y-3174136D01*
X549249Y-3163519D01*
X538022Y-3154222D01*
X525729Y-3146450D01*
X512572Y-3140252D01*
X498703Y-3135731D01*
X484428Y-3133039D01*
X469900Y-3132124D01*
X455371Y-3133039D01*
X441096Y-3135731D01*
X427228Y-3140252D01*
X414070Y-3146450D01*
X401777Y-3154222D01*
X390550Y-3163519D01*
X380593Y-3174136D01*
X372059Y-3185922D01*
X365048Y-3198672D01*
X359664Y-3212185D01*
X356057Y-3226257D01*
X354228Y-3240735D01*
X354228Y-3255264D01*
X356057Y-3269691D01*
X359664Y-3283813D01*
X365048Y-3297326D01*
X372059Y-3310077D01*
X380593Y-3321862D01*
X390550Y-3332479D01*
X401777Y-3341725D01*
X414070Y-3349548D01*
X427228Y-3355746D01*
X441096Y-3360216D01*
X455371Y-3362960D01*
G37*
G36*
X6223000Y-3363874D02*
G01*
X6237528Y-3362960D01*
X6251803Y-3360216D01*
X6265672Y-3355746D01*
X6278829Y-3349548D01*
X6291122Y-3341725D01*
X6302349Y-3332479D01*
X6312306Y-3321862D01*
X6320840Y-3310077D01*
X6327851Y-3297326D01*
X6333236Y-3283813D01*
X6336842Y-3269691D01*
X6338671Y-3255264D01*
X6338671Y-3240735D01*
X6336842Y-3226257D01*
X6333236Y-3212185D01*
X6327851Y-3198672D01*
X6320840Y-3185922D01*
X6312306Y-3174136D01*
X6302349Y-3163519D01*
X6291122Y-3154222D01*
X6278829Y-3146450D01*
X6265672Y-3140252D01*
X6251803Y-3135731D01*
X6237528Y-3133039D01*
X6223000Y-3132124D01*
X6208471Y-3133039D01*
X6194196Y-3135731D01*
X6180328Y-3140252D01*
X6167170Y-3146450D01*
X6154877Y-3154222D01*
X6143650Y-3163519D01*
X6133693Y-3174136D01*
X6125159Y-3185922D01*
X6118148Y-3198672D01*
X6112764Y-3212185D01*
X6109157Y-3226257D01*
X6107328Y-3240735D01*
X6107328Y-3255264D01*
X6109157Y-3269691D01*
X6112764Y-3283813D01*
X6118148Y-3297326D01*
X6125159Y-3310077D01*
X6133693Y-3321862D01*
X6143650Y-3332479D01*
X6154877Y-3341725D01*
X6167170Y-3349548D01*
X6180328Y-3355746D01*
X6194196Y-3360216D01*
X6208471Y-3362960D01*
G37*
G36*
X2935528Y-3363874D02*
G01*
X2950057Y-3362960D01*
X2964332Y-3360216D01*
X2978150Y-3355746D01*
X2991358Y-3349548D01*
X3003651Y-3341725D01*
X3014827Y-3332479D01*
X3024784Y-3321862D01*
X3033369Y-3310077D01*
X3040380Y-3297326D01*
X3045714Y-3283813D01*
X3049371Y-3269691D01*
X3051149Y-3255264D01*
X3051149Y-3240735D01*
X3049371Y-3226257D01*
X3045714Y-3212185D01*
X3040380Y-3198672D01*
X3033369Y-3185922D01*
X3024784Y-3174136D01*
X3014827Y-3163519D01*
X3003651Y-3154222D01*
X2991358Y-3146450D01*
X2978150Y-3140252D01*
X2964332Y-3135731D01*
X2950057Y-3133039D01*
X2935528Y-3132124D01*
X2921000Y-3133039D01*
X2906674Y-3135731D01*
X2892856Y-3140252D01*
X2879699Y-3146450D01*
X2867406Y-3154222D01*
X2856179Y-3163519D01*
X2846222Y-3174136D01*
X2837688Y-3185922D01*
X2830677Y-3198672D01*
X2825292Y-3212185D01*
X2821686Y-3226257D01*
X2819857Y-3240735D01*
X2819857Y-3255264D01*
X2821686Y-3269691D01*
X2825292Y-3283813D01*
X2830677Y-3297326D01*
X2837688Y-3310077D01*
X2846222Y-3321862D01*
X2856179Y-3332479D01*
X2867406Y-3341725D01*
X2879699Y-3349548D01*
X2892856Y-3355746D01*
X2906674Y-3360216D01*
X2921000Y-3362960D01*
G37*
G36*
X4579264Y-3363874D02*
G01*
X4593793Y-3362960D01*
X4608068Y-3360216D01*
X4621936Y-3355746D01*
X4635093Y-3349548D01*
X4647387Y-3341725D01*
X4658563Y-3332479D01*
X4668570Y-3321862D01*
X4677105Y-3310077D01*
X4684115Y-3297326D01*
X4689449Y-3283813D01*
X4693107Y-3269691D01*
X4694936Y-3255264D01*
X4694936Y-3240735D01*
X4693107Y-3226257D01*
X4689449Y-3212185D01*
X4684115Y-3198672D01*
X4677105Y-3185922D01*
X4668570Y-3174136D01*
X4658563Y-3163519D01*
X4647387Y-3154222D01*
X4635093Y-3146450D01*
X4621936Y-3140252D01*
X4608068Y-3135731D01*
X4593793Y-3133039D01*
X4579264Y-3132124D01*
X4564735Y-3133039D01*
X4550460Y-3135731D01*
X4536592Y-3140252D01*
X4523435Y-3146450D01*
X4511141Y-3154222D01*
X4499914Y-3163519D01*
X4489958Y-3174136D01*
X4481423Y-3185922D01*
X4474413Y-3198672D01*
X4469028Y-3212185D01*
X4465421Y-3226257D01*
X4463592Y-3240735D01*
X4463592Y-3255264D01*
X4465421Y-3269691D01*
X4469028Y-3283813D01*
X4474413Y-3297326D01*
X4481423Y-3310077D01*
X4489958Y-3321862D01*
X4499914Y-3332479D01*
X4511141Y-3341725D01*
X4523435Y-3349548D01*
X4536592Y-3355746D01*
X4550460Y-3360216D01*
X4564735Y-3362960D01*
G37*
G36*
X5401106Y-3363874D02*
G01*
X5415635Y-3362960D01*
X5429961Y-3360216D01*
X5443778Y-3355746D01*
X5456936Y-3349548D01*
X5469229Y-3341725D01*
X5480456Y-3332479D01*
X5490413Y-3321862D01*
X5498998Y-3310077D01*
X5506008Y-3297326D01*
X5511342Y-3283813D01*
X5514949Y-3269691D01*
X5516778Y-3255264D01*
X5516778Y-3240735D01*
X5514949Y-3226257D01*
X5511342Y-3212185D01*
X5506008Y-3198672D01*
X5498998Y-3185922D01*
X5490413Y-3174136D01*
X5480456Y-3163519D01*
X5469229Y-3154222D01*
X5456936Y-3146450D01*
X5443778Y-3140252D01*
X5429961Y-3135731D01*
X5415635Y-3133039D01*
X5401106Y-3132124D01*
X5386628Y-3133039D01*
X5372303Y-3135731D01*
X5358485Y-3140252D01*
X5345277Y-3146450D01*
X5333034Y-3154222D01*
X5321808Y-3163519D01*
X5311851Y-3174136D01*
X5303266Y-3185922D01*
X5296255Y-3198672D01*
X5290921Y-3212185D01*
X5287314Y-3226257D01*
X5285486Y-3240735D01*
X5285486Y-3255264D01*
X5287314Y-3269691D01*
X5290921Y-3283813D01*
X5296255Y-3297326D01*
X5303266Y-3310077D01*
X5311851Y-3321862D01*
X5321808Y-3332479D01*
X5333034Y-3341725D01*
X5345277Y-3349548D01*
X5358485Y-3355746D01*
X5372303Y-3360216D01*
X5386628Y-3362960D01*
G37*
G36*
X6692392Y-3252825D02*
G01*
X6730441Y-3252825D01*
X6730441Y-3188258D01*
X6665874Y-3188258D01*
X6665874Y-3226308D01*
X6666585Y-3232658D01*
X6668516Y-3238093D01*
X6671614Y-3243021D01*
X6675678Y-3247085D01*
X6680606Y-3250184D01*
X6686042Y-3252114D01*
G37*
G36*
X6833158Y-3252825D02*
G01*
X6871208Y-3252825D01*
X6877558Y-3252114D01*
X6882993Y-3250184D01*
X6887921Y-3247085D01*
X6891985Y-3243021D01*
X6895084Y-3238093D01*
X6897014Y-3232658D01*
X6897725Y-3226308D01*
X6897725Y-3188258D01*
X6833158Y-3188258D01*
G37*
G36*
X7289800Y-3252774D02*
G01*
X7304328Y-3251860D01*
X7318603Y-3249168D01*
X7332472Y-3244646D01*
X7345629Y-3238449D01*
X7357922Y-3230676D01*
X7369149Y-3221380D01*
X7379106Y-3210763D01*
X7387640Y-3198977D01*
X7394651Y-3186226D01*
X7400036Y-3172714D01*
X7403642Y-3158591D01*
X7405471Y-3144164D01*
X7405471Y-3129635D01*
X7403642Y-3115208D01*
X7400036Y-3101086D01*
X7394651Y-3087573D01*
X7387640Y-3074822D01*
X7379106Y-3063036D01*
X7369149Y-3052419D01*
X7357922Y-3043123D01*
X7345629Y-3035350D01*
X7332472Y-3029153D01*
X7318603Y-3024632D01*
X7304328Y-3021939D01*
X7289800Y-3021025D01*
X7275271Y-3021939D01*
X7260996Y-3024632D01*
X7247128Y-3029153D01*
X7233970Y-3035350D01*
X7221677Y-3043123D01*
X7210450Y-3052419D01*
X7200493Y-3063036D01*
X7191959Y-3074822D01*
X7184948Y-3087573D01*
X7179564Y-3101086D01*
X7175957Y-3115208D01*
X7174128Y-3129635D01*
X7174128Y-3144164D01*
X7175957Y-3158591D01*
X7179564Y-3172714D01*
X7184948Y-3186226D01*
X7191959Y-3198977D01*
X7200493Y-3210763D01*
X7210450Y-3221380D01*
X7221677Y-3230676D01*
X7233970Y-3238449D01*
X7247128Y-3244646D01*
X7260996Y-3249168D01*
X7275271Y-3251860D01*
G37*
G36*
X6665874Y-3085541D02*
G01*
X6730441Y-3085541D01*
X6730441Y-3020974D01*
X6692392Y-3020974D01*
X6686042Y-3021685D01*
X6680606Y-3023616D01*
X6675678Y-3026714D01*
X6671614Y-3030778D01*
X6668516Y-3035706D01*
X6666585Y-3041142D01*
X6665874Y-3047492D01*
G37*
G36*
X6833158Y-3085541D02*
G01*
X6897725Y-3085541D01*
X6897725Y-3047492D01*
X6897014Y-3041142D01*
X6895084Y-3035706D01*
X6891985Y-3030778D01*
X6887921Y-3026714D01*
X6882993Y-3023616D01*
X6877558Y-3021685D01*
X6871208Y-3020974D01*
X6833158Y-3020974D01*
G37*
G36*
X6295136Y-2909671D02*
G01*
X6309664Y-2909671D01*
X6324142Y-2907842D01*
X6338214Y-2904236D01*
X6351727Y-2898851D01*
X6364478Y-2891840D01*
X6376263Y-2883306D01*
X6386880Y-2873349D01*
X6396177Y-2862122D01*
X6403949Y-2849829D01*
X6410147Y-2836672D01*
X6414668Y-2822803D01*
X6417360Y-2808528D01*
X6418275Y-2794000D01*
X6417360Y-2779471D01*
X6414668Y-2765196D01*
X6410147Y-2751328D01*
X6403949Y-2738170D01*
X6396177Y-2725877D01*
X6386880Y-2714650D01*
X6376263Y-2704693D01*
X6364478Y-2696159D01*
X6351727Y-2689148D01*
X6338214Y-2683764D01*
X6324142Y-2680157D01*
X6309664Y-2678328D01*
X6295136Y-2678328D01*
X6280708Y-2680157D01*
X6266586Y-2683764D01*
X6253073Y-2689148D01*
X6240322Y-2696159D01*
X6228537Y-2704693D01*
X6217920Y-2714650D01*
X6208674Y-2725877D01*
X6200851Y-2738170D01*
X6194653Y-2751328D01*
X6190183Y-2765196D01*
X6187440Y-2779471D01*
X6186525Y-2794000D01*
X6187440Y-2808528D01*
X6190183Y-2822803D01*
X6194653Y-2836672D01*
X6200851Y-2849829D01*
X6208674Y-2862122D01*
X6217920Y-2873349D01*
X6228537Y-2883306D01*
X6240322Y-2891840D01*
X6253073Y-2898851D01*
X6266586Y-2904236D01*
X6280708Y-2907842D01*
G37*
G36*
X5425135Y-2909671D02*
G01*
X5439664Y-2909671D01*
X5454091Y-2907842D01*
X5468213Y-2904236D01*
X5481726Y-2898851D01*
X5494477Y-2891840D01*
X5506262Y-2883306D01*
X5516880Y-2873349D01*
X5526125Y-2862122D01*
X5533948Y-2849829D01*
X5540146Y-2836672D01*
X5544616Y-2822803D01*
X5547360Y-2808528D01*
X5548274Y-2794000D01*
X5547360Y-2779471D01*
X5544616Y-2765196D01*
X5540146Y-2751328D01*
X5533948Y-2738170D01*
X5526125Y-2725877D01*
X5516880Y-2714650D01*
X5506262Y-2704693D01*
X5494477Y-2696159D01*
X5481726Y-2689148D01*
X5468213Y-2683764D01*
X5454091Y-2680157D01*
X5439664Y-2678328D01*
X5425135Y-2678328D01*
X5410657Y-2680157D01*
X5396585Y-2683764D01*
X5383072Y-2689148D01*
X5370322Y-2696159D01*
X5358536Y-2704693D01*
X5347919Y-2714650D01*
X5338622Y-2725877D01*
X5330850Y-2738170D01*
X5324652Y-2751328D01*
X5320131Y-2765196D01*
X5317439Y-2779471D01*
X5316524Y-2794000D01*
X5317439Y-2808528D01*
X5320131Y-2822803D01*
X5324652Y-2836672D01*
X5330850Y-2849829D01*
X5338622Y-2862122D01*
X5347919Y-2873349D01*
X5358536Y-2883306D01*
X5370322Y-2891840D01*
X5383072Y-2898851D01*
X5396585Y-2904236D01*
X5410657Y-2907842D01*
G37*
G36*
X6083300Y-2277567D02*
G01*
X6097117Y-2276703D01*
X6110681Y-2273960D01*
X6123838Y-2269540D01*
X6136233Y-2263394D01*
X6147765Y-2255723D01*
X6158179Y-2246579D01*
X6167323Y-2236165D01*
X6174994Y-2224633D01*
X6181140Y-2212238D01*
X6185560Y-2199081D01*
X6188303Y-2185517D01*
X6189218Y-2171700D01*
X6188303Y-2157882D01*
X6185560Y-2144268D01*
X6181140Y-2131161D01*
X6174994Y-2118766D01*
X6167323Y-2107234D01*
X6158179Y-2096820D01*
X6147765Y-2087676D01*
X6136233Y-2080006D01*
X6123838Y-2073859D01*
X6110681Y-2069388D01*
X6097117Y-2066696D01*
X6083300Y-2065782D01*
X6069482Y-2066696D01*
X6055868Y-2069388D01*
X6042761Y-2073859D01*
X6030366Y-2080006D01*
X6018834Y-2087676D01*
X6008420Y-2096820D01*
X5999276Y-2107234D01*
X5991606Y-2118766D01*
X5985459Y-2131161D01*
X5980988Y-2144268D01*
X5978296Y-2157882D01*
X5977382Y-2171700D01*
X5978296Y-2185517D01*
X5980988Y-2199081D01*
X5985459Y-2212238D01*
X5991606Y-2224633D01*
X5999276Y-2236165D01*
X6008420Y-2246579D01*
X6018834Y-2255723D01*
X6030366Y-2263394D01*
X6042761Y-2269540D01*
X6055868Y-2273960D01*
X6069482Y-2276703D01*
G37*
G36*
X6591300Y-2277567D02*
G01*
X6605117Y-2276703D01*
X6618681Y-2273960D01*
X6631838Y-2269540D01*
X6644233Y-2263394D01*
X6655765Y-2255723D01*
X6666179Y-2246579D01*
X6675323Y-2236165D01*
X6682994Y-2224633D01*
X6689140Y-2212238D01*
X6693560Y-2199081D01*
X6696303Y-2185517D01*
X6697218Y-2171700D01*
X6696303Y-2157882D01*
X6693560Y-2144268D01*
X6689140Y-2131161D01*
X6682994Y-2118766D01*
X6675323Y-2107234D01*
X6666179Y-2096820D01*
X6655765Y-2087676D01*
X6644233Y-2080006D01*
X6631838Y-2073859D01*
X6618681Y-2069388D01*
X6605117Y-2066696D01*
X6591300Y-2065782D01*
X6577482Y-2066696D01*
X6563868Y-2069388D01*
X6550761Y-2073859D01*
X6538366Y-2080006D01*
X6526834Y-2087676D01*
X6516420Y-2096820D01*
X6507276Y-2107234D01*
X6499606Y-2118766D01*
X6493459Y-2131161D01*
X6488988Y-2144268D01*
X6486296Y-2157882D01*
X6485382Y-2171700D01*
X6486296Y-2185517D01*
X6488988Y-2199081D01*
X6493459Y-2212238D01*
X6499606Y-2224633D01*
X6507276Y-2236165D01*
X6516420Y-2246579D01*
X6526834Y-2255723D01*
X6538366Y-2263394D01*
X6550761Y-2269540D01*
X6563868Y-2273960D01*
X6577482Y-2276703D01*
G37*
G36*
X6591300Y-1515567D02*
G01*
X6605117Y-1514703D01*
X6618681Y-1511960D01*
X6631838Y-1507540D01*
X6644233Y-1501394D01*
X6655765Y-1493723D01*
X6666179Y-1484579D01*
X6675323Y-1474165D01*
X6682994Y-1462633D01*
X6689140Y-1450238D01*
X6693560Y-1437081D01*
X6696303Y-1423517D01*
X6697218Y-1409700D01*
X6696303Y-1395882D01*
X6693560Y-1382268D01*
X6689140Y-1369161D01*
X6682994Y-1356766D01*
X6675323Y-1345234D01*
X6666179Y-1334820D01*
X6655765Y-1325676D01*
X6644233Y-1318006D01*
X6631838Y-1311859D01*
X6618681Y-1307388D01*
X6605117Y-1304696D01*
X6591300Y-1303782D01*
X6577482Y-1304696D01*
X6563868Y-1307388D01*
X6550761Y-1311859D01*
X6538366Y-1318006D01*
X6526834Y-1325676D01*
X6516420Y-1334820D01*
X6507276Y-1345234D01*
X6499606Y-1356766D01*
X6493459Y-1369161D01*
X6488988Y-1382268D01*
X6486296Y-1395882D01*
X6485382Y-1409700D01*
X6486296Y-1423517D01*
X6488988Y-1437081D01*
X6493459Y-1450238D01*
X6499606Y-1462633D01*
X6507276Y-1474165D01*
X6516420Y-1484579D01*
X6526834Y-1493723D01*
X6538366Y-1501394D01*
X6550761Y-1507540D01*
X6563868Y-1511960D01*
X6577482Y-1514703D01*
G37*
G36*
X6337300Y-1515567D02*
G01*
X6351117Y-1514703D01*
X6364681Y-1511960D01*
X6377838Y-1507540D01*
X6390233Y-1501394D01*
X6401765Y-1493723D01*
X6412179Y-1484579D01*
X6421323Y-1474165D01*
X6428994Y-1462633D01*
X6435140Y-1450238D01*
X6439560Y-1437081D01*
X6442303Y-1423517D01*
X6443218Y-1409700D01*
X6442303Y-1395882D01*
X6439560Y-1382268D01*
X6435140Y-1369161D01*
X6428994Y-1356766D01*
X6421323Y-1345234D01*
X6412179Y-1334820D01*
X6401765Y-1325676D01*
X6390233Y-1318006D01*
X6381597Y-1313688D01*
X6378600Y-1311452D01*
X6376619Y-1308252D01*
X6375908Y-1304594D01*
X6375908Y-451358D01*
X6376670Y-447446D01*
X6378905Y-444144D01*
X6380480Y-442569D01*
X6386118Y-434492D01*
X6390284Y-425602D01*
X6392824Y-416102D01*
X6393688Y-406349D01*
X6392824Y-396544D01*
X6390284Y-387045D01*
X6386118Y-378155D01*
X6380480Y-370078D01*
X6373520Y-363118D01*
X6365494Y-357530D01*
X6356604Y-353364D01*
X6347104Y-350824D01*
X6337300Y-349961D01*
X6327495Y-350824D01*
X6317996Y-353364D01*
X6309106Y-357530D01*
X6301079Y-363118D01*
X6294120Y-370078D01*
X6288481Y-378155D01*
X6284315Y-387045D01*
X6281775Y-396544D01*
X6280912Y-406349D01*
X6281775Y-416102D01*
X6284315Y-425602D01*
X6288481Y-434492D01*
X6294120Y-442569D01*
X6295694Y-444144D01*
X6297930Y-447446D01*
X6298692Y-451358D01*
X6298692Y-1304594D01*
X6297980Y-1308252D01*
X6295999Y-1311452D01*
X6293002Y-1313688D01*
X6284366Y-1318006D01*
X6272834Y-1325676D01*
X6262420Y-1334820D01*
X6253276Y-1345234D01*
X6245606Y-1356766D01*
X6239459Y-1369161D01*
X6234988Y-1382268D01*
X6232296Y-1395882D01*
X6231382Y-1409700D01*
X6232296Y-1423517D01*
X6234988Y-1437081D01*
X6239459Y-1450238D01*
X6245606Y-1462633D01*
X6253276Y-1474165D01*
X6262420Y-1484579D01*
X6272834Y-1493723D01*
X6284366Y-1501394D01*
X6296761Y-1507540D01*
X6309868Y-1511960D01*
X6323482Y-1514703D01*
G37*
G36*
X6129629Y-1504645D02*
G01*
X6136233Y-1501394D01*
X6147765Y-1493723D01*
X6158179Y-1484579D01*
X6167323Y-1474165D01*
X6174994Y-1462633D01*
X6178245Y-1456029D01*
X6129629Y-1456029D01*
G37*
G36*
X6129629Y-1363319D02*
G01*
X6178245Y-1363319D01*
X6174994Y-1356766D01*
X6167323Y-1345234D01*
X6158179Y-1334820D01*
X6147765Y-1325676D01*
X6136233Y-1318006D01*
X6129629Y-1314754D01*
G37*
G36*
X1502206Y-444906D02*
G01*
X1515821Y-444449D01*
X1529283Y-442214D01*
X1542288Y-438150D01*
X1554683Y-432409D01*
X1566164Y-425094D01*
X1576578Y-416306D01*
X1585722Y-406146D01*
X1593443Y-394919D01*
X1599590Y-382778D01*
X1604060Y-369874D01*
X1606753Y-356514D01*
X1607667Y-342900D01*
X1606753Y-329285D01*
X1604060Y-315925D01*
X1599590Y-303022D01*
X1593443Y-290880D01*
X1585722Y-279654D01*
X1576578Y-269494D01*
X1566164Y-260705D01*
X1554683Y-253390D01*
X1542288Y-247650D01*
X1529283Y-243586D01*
X1515821Y-241350D01*
X1502206Y-240893D01*
X1488643Y-242214D01*
X1475333Y-245414D01*
X1462633Y-250291D01*
X1450644Y-256844D01*
X1439672Y-264922D01*
X1429867Y-274421D01*
X1421434Y-285140D01*
X1414475Y-296875D01*
X1409141Y-309422D01*
X1405585Y-322580D01*
X1403756Y-336092D01*
X1403756Y-349707D01*
X1405585Y-363220D01*
X1409141Y-376377D01*
X1414475Y-388924D01*
X1421434Y-400659D01*
X1429867Y-411378D01*
X1439672Y-420878D01*
X1450644Y-428955D01*
X1462633Y-435508D01*
X1475333Y-440385D01*
X1488643Y-443585D01*
G37*
G36*
X1856486Y-444906D02*
G01*
X1870100Y-444449D01*
X1883562Y-442214D01*
X1896567Y-438150D01*
X1908962Y-432409D01*
X1920443Y-425094D01*
X1930857Y-416306D01*
X1940001Y-406146D01*
X1947722Y-394919D01*
X1953869Y-382778D01*
X1958339Y-369874D01*
X1961083Y-356514D01*
X1961997Y-342900D01*
X1961083Y-329285D01*
X1958339Y-315925D01*
X1953869Y-303022D01*
X1947722Y-290880D01*
X1940001Y-279654D01*
X1930857Y-269494D01*
X1920443Y-260705D01*
X1908962Y-253390D01*
X1896567Y-247650D01*
X1883562Y-243586D01*
X1870100Y-241350D01*
X1856486Y-240893D01*
X1842922Y-242214D01*
X1829663Y-245414D01*
X1816912Y-250291D01*
X1804974Y-256844D01*
X1794002Y-264922D01*
X1784197Y-274421D01*
X1775714Y-285140D01*
X1768805Y-296875D01*
X1763471Y-309422D01*
X1759864Y-322580D01*
X1758035Y-336092D01*
X1758035Y-349707D01*
X1759864Y-363220D01*
X1763471Y-376377D01*
X1768805Y-388924D01*
X1775714Y-400659D01*
X1784197Y-411378D01*
X1794002Y-420878D01*
X1804974Y-428955D01*
X1816912Y-435508D01*
X1829663Y-440385D01*
X1842922Y-443585D01*
G37*
G36*
X2886506Y-444906D02*
G01*
X2900121Y-444449D01*
X2913583Y-442214D01*
X2926588Y-438150D01*
X2938983Y-432409D01*
X2950464Y-425094D01*
X2960878Y-416306D01*
X2970022Y-406146D01*
X2977743Y-394919D01*
X2983890Y-382778D01*
X2988360Y-369874D01*
X2991053Y-356514D01*
X2991967Y-342900D01*
X2991053Y-329285D01*
X2988360Y-315925D01*
X2983890Y-303022D01*
X2977743Y-290880D01*
X2970022Y-279654D01*
X2960878Y-269494D01*
X2950464Y-260705D01*
X2938983Y-253390D01*
X2926588Y-247650D01*
X2913583Y-243586D01*
X2900121Y-241350D01*
X2886506Y-240893D01*
X2872943Y-242214D01*
X2859633Y-245414D01*
X2846933Y-250291D01*
X2834944Y-256844D01*
X2823972Y-264922D01*
X2814167Y-274421D01*
X2805734Y-285140D01*
X2798775Y-296875D01*
X2793441Y-309422D01*
X2789885Y-322580D01*
X2788056Y-336092D01*
X2788056Y-349707D01*
X2789885Y-363220D01*
X2793441Y-376377D01*
X2798775Y-388924D01*
X2805734Y-400659D01*
X2814167Y-411378D01*
X2823972Y-420878D01*
X2834944Y-428955D01*
X2846933Y-435508D01*
X2859633Y-440385D01*
X2872943Y-443585D01*
G37*
G36*
X431139Y-434695D02*
G01*
X431139Y-387350D01*
X383794Y-387350D01*
X384505Y-388924D01*
X391414Y-400659D01*
X399897Y-411378D01*
X409701Y-420878D01*
X420674Y-428955D01*
G37*
G36*
X520039Y-434543D02*
G01*
X524662Y-432409D01*
X536143Y-425094D01*
X546557Y-416306D01*
X555701Y-406146D01*
X563422Y-394919D01*
X567283Y-387350D01*
X520039Y-387350D01*
G37*
G36*
X520039Y-298450D02*
G01*
X567283Y-298450D01*
X563422Y-290880D01*
X555701Y-279654D01*
X546557Y-269494D01*
X536143Y-260705D01*
X524662Y-253390D01*
X520039Y-251256D01*
G37*
G36*
X383794Y-298450D02*
G01*
X431139Y-298450D01*
X431139Y-251104D01*
X420674Y-256844D01*
X409701Y-264922D01*
X399897Y-274421D01*
X391414Y-285140D01*
X384505Y-296875D01*
G37*

%LPD*%
D10*
X6337300Y-2171700D02*
G01*
X5956249Y-1790649D01*
X5956249Y-1366189D01*
X5215864Y-625805D01*
X4438904Y-625805D01*
X6337300Y-1409700D02*
G01*
X6337300Y-406323D01*
X3719271Y-5072989D02*
G01*
X4011396Y-4780864D01*
X4011396Y-4565650D01*
X2897428Y-5072989D02*
G01*
X3189528Y-4780889D01*
X3189528Y-4565650D01*
X6223000Y-4118000D02*
G01*
X6223000Y-4565650D01*
X5401132Y-4118000D02*
G01*
X5401132Y-4565650D01*
X4579264Y-4118000D02*
G01*
X4579264Y-4565650D01*
X3757396Y-4118000D02*
G01*
X3757396Y-4565650D01*
X2935503Y-4118000D02*
G01*
X2935528Y-4118025D01*
X2935528Y-4565650D01*
X2113635Y-4118000D02*
G01*
X2113661Y-4118025D01*
X2113661Y-4565650D01*
X1291767Y-4118000D02*
G01*
X1291767Y-4565650D01*
X469900Y-4118000D02*
G01*
X469900Y-4565650D01*
X7035800Y-4829225D02*
G01*
X7297648Y-4567377D01*
X7297648Y-3398748D01*
X7035800Y-3136900D01*
X431800Y-5072989D02*
G01*
X723900Y-4780889D01*
X723900Y-4565650D01*
X4541138Y-5072989D02*
G01*
X4833264Y-4780864D01*
X4833264Y-4565650D01*
X2075561Y-5072989D02*
G01*
X2367661Y-4780889D01*
X2367661Y-4565650D01*
X1253667Y-5072989D02*
G01*
X1545767Y-4780889D01*
X1545767Y-4565650D01*
X5829300Y-1409700D02*
G01*
X5721197Y-1517802D01*
X5721197Y-4317847D01*
X5969000Y-4565650D01*
X6781800Y-4874463D02*
G01*
X7187006Y-4469256D01*
X7187006Y-3933774D01*
X6781800Y-4829225D02*
G01*
X6781800Y-4874463D01*
X6781800Y-4887163D02*
G01*
X6781800Y-4947132D01*
X6781800Y-4887163D02*
G01*
X6781800Y-4874463D01*
X6083300Y-1409700D02*
G01*
X6781800Y-2108200D01*
X6781800Y-3136900D01*
X6781800Y-4947132D02*
G01*
X7187006Y-5352338D01*
X7187006Y-5626100D01*
X6781800Y-3136900D02*
G01*
X6781800Y-3528568D01*
X7187006Y-3933774D01*
X3719271Y-6103010D02*
G01*
X3609695Y-5993434D01*
X3609695Y-5035092D01*
X3630422Y-5014366D01*
X3630422Y-574395D01*
X6184900Y-6103010D02*
G01*
X6634937Y-5652973D01*
X6634937Y-4135831D01*
X6836994Y-3933774D01*
X2152904Y-594055D02*
G01*
X1988007Y-758952D01*
X1988007Y-4909946D01*
X1962861Y-4935093D01*
X1962861Y-5990310D01*
X2075561Y-6103010D01*
X7289800Y-4829225D02*
G01*
X7305141Y-4844567D01*
X7305141Y-5669661D01*
X7220635Y-5754166D01*
X6965061Y-5754166D01*
X6836994Y-5626100D01*
X2113635Y-3247999D02*
G01*
X2046579Y-3180943D01*
X2046579Y-3061385D01*
D11*
G01*
X7187006Y-3933774D03*
G01*
X6836994Y-3933774D03*
G01*
X7187006Y-5626100D03*
G01*
X6836994Y-5626100D03*
D12*
G01*
X5969000Y-4565650D03*
G01*
X6223000Y-4565650D03*
D13*
G01*
X6477000Y-4565650D03*
D12*
G01*
X5147132Y-4565650D03*
G01*
X5401132Y-4565650D03*
D13*
G01*
X5655132Y-4565650D03*
D12*
G01*
X4325264Y-4565650D03*
G01*
X4579264Y-4565650D03*
D13*
G01*
X4833264Y-4565650D03*
D12*
G01*
X3503396Y-4565650D03*
G01*
X3757396Y-4565650D03*
D13*
G01*
X4011396Y-4565650D03*
D12*
G01*
X2681528Y-4565650D03*
G01*
X2935528Y-4565650D03*
D13*
G01*
X3189528Y-4565650D03*
D14*
G01*
X6184900Y-6103010D03*
G01*
X6184900Y-5072989D03*
G01*
X5363032Y-6103010D03*
G01*
X5363032Y-5072989D03*
G01*
X4541138Y-6103010D03*
G01*
X4541138Y-5072989D03*
G01*
X3719271Y-6103010D03*
G01*
X3719271Y-5072989D03*
D15*
G01*
X5829300Y-2171700D03*
D16*
G01*
X6083300Y-2171700D03*
G01*
X6337300Y-2171700D03*
G01*
X6591300Y-2171700D03*
G01*
X6591300Y-1409700D03*
G01*
X6337300Y-1409700D03*
G01*
X6083300Y-1409700D03*
G01*
X5829300Y-1409700D03*
D17*
G01*
X6223000Y-4118000D03*
G01*
X6223000Y-3247999D03*
G01*
X5401132Y-4118000D03*
G01*
X5401132Y-3247999D03*
G01*
X4579264Y-4118000D03*
G01*
X4579264Y-3247999D03*
G01*
X3757396Y-4118000D03*
G01*
X3757396Y-3247999D03*
D12*
G01*
X1859661Y-4565650D03*
G01*
X2113661Y-4565650D03*
D13*
G01*
X2367661Y-4565650D03*
D12*
G01*
X1037767Y-4565650D03*
G01*
X1291767Y-4565650D03*
D13*
G01*
X1545767Y-4565650D03*
D12*
G01*
X215900Y-4565650D03*
G01*
X469900Y-4565650D03*
D13*
G01*
X723900Y-4565650D03*
D17*
G01*
X2935503Y-4118000D03*
G01*
X2935503Y-3247999D03*
G01*
X2113635Y-4118000D03*
G01*
X2113635Y-3247999D03*
G01*
X1291767Y-4118000D03*
G01*
X1291767Y-3247999D03*
G01*
X469900Y-4118000D03*
G01*
X469900Y-3247999D03*
D14*
G01*
X2897428Y-6103010D03*
G01*
X2897428Y-5072989D03*
G01*
X2075561Y-6103010D03*
G01*
X2075561Y-5072989D03*
G01*
X1253667Y-6103010D03*
G01*
X1253667Y-5072989D03*
G01*
X431800Y-6103010D03*
G01*
X431800Y-5072989D03*
G01*
X1859889Y-342900D03*
G01*
X2889910Y-342900D03*
G01*
X475589Y-342900D03*
G01*
X1505610Y-342900D03*
D17*
G01*
X6302400Y-2794000D03*
G01*
X5432399Y-2794000D03*
D12*
G01*
X7289800Y-4829225D03*
G01*
X7035800Y-4829225D03*
D13*
G01*
X6781800Y-4829225D03*
D12*
G01*
X7289800Y-3136900D03*
G01*
X7035800Y-3136900D03*
D13*
G01*
X6781800Y-3136900D03*
D18*
G01*
X4438904Y-625805D03*
G01*
X6337300Y-406323D03*
G01*
X3630422Y-574395D03*
G01*
X2152904Y-594055D03*
G01*
X2046579Y-3061385D03*
M02*
