G04 Layer: TopLayer*
G04 EasyEDA v6.5.47, 2024-09-23 22:29:33*
G04 5a6e75cfa2c046329717b22c304bfbd2,c2d4411aa706456985f533cd49438c3a,10*
G04 Gerber Generator version 0.2*
G04 Scale: 100 percent, Rotated: No, Reflected: No *
G04 Dimensions in millimeters *
G04 leading zeros omitted , absolute positions ,4 integer and 5 decimal *
%FSLAX45Y45*%
%MOMM*%

%ADD10C,0.2540*%
%ADD11R,1.6000X3.2000*%
%ADD12R,3.2000X1.6000*%
%ADD13R,1.5000X1.5000*%
%ADD14C,1.6000*%
%ADD15O,1.7999964X1.7999964*%
%ADD16R,1.8000X1.8000*%
%ADD17C,1.5240*%
%ADD18R,1.6002X1.6002*%
%ADD19C,1.6002*%
%ADD20C,1.8000*%
%ADD21C,0.6100*%
%ADD22C,0.0181*%

%LPD*%
G36*
X36068Y-6224066D02*
G01*
X32156Y-6223304D01*
X28905Y-6221120D01*
X26670Y-6217818D01*
X25908Y-6213906D01*
X25908Y-36068D01*
X26670Y-32156D01*
X28905Y-28905D01*
X32156Y-26670D01*
X36068Y-25908D01*
X7463942Y-25908D01*
X7467803Y-26670D01*
X7471105Y-28905D01*
X7473289Y-32156D01*
X7474102Y-36068D01*
X7474102Y-6213906D01*
X7473289Y-6217818D01*
X7471105Y-6221120D01*
X7467803Y-6223304D01*
X7463942Y-6224066D01*
X6200546Y-6224066D01*
X6196330Y-6223152D01*
X6192875Y-6220561D01*
X6190792Y-6216751D01*
X6190538Y-6212433D01*
X6192062Y-6208369D01*
X6195161Y-6205321D01*
X6199225Y-6203848D01*
X6205220Y-6203035D01*
X6218377Y-6199428D01*
X6230924Y-6194094D01*
X6242659Y-6187186D01*
X6253378Y-6178702D01*
X6262878Y-6168898D01*
X6270955Y-6157925D01*
X6277508Y-6145987D01*
X6282385Y-6133236D01*
X6285585Y-6119977D01*
X6286906Y-6106414D01*
X6286449Y-6092799D01*
X6284214Y-6079337D01*
X6280150Y-6066332D01*
X6274409Y-6053937D01*
X6267094Y-6042456D01*
X6258306Y-6032042D01*
X6248146Y-6022898D01*
X6236919Y-6015177D01*
X6224778Y-6009030D01*
X6211874Y-6004560D01*
X6198514Y-6001816D01*
X6184900Y-6000902D01*
X6171285Y-6001816D01*
X6157925Y-6004560D01*
X6145022Y-6009030D01*
X6132880Y-6015177D01*
X6121654Y-6022898D01*
X6111494Y-6032042D01*
X6102705Y-6042456D01*
X6095390Y-6053937D01*
X6093256Y-6058509D01*
X6091021Y-6061608D01*
X6087770Y-6063691D01*
X6084011Y-6064402D01*
X5463895Y-6064402D01*
X5460136Y-6063691D01*
X5456936Y-6061608D01*
X5454700Y-6058509D01*
X5452567Y-6053937D01*
X5445201Y-6042456D01*
X5436412Y-6032042D01*
X5426303Y-6022898D01*
X5415076Y-6015177D01*
X5402884Y-6009030D01*
X5389981Y-6004560D01*
X5376621Y-6001816D01*
X5363006Y-6000902D01*
X5349443Y-6001816D01*
X5336082Y-6004560D01*
X5323179Y-6009030D01*
X5310987Y-6015177D01*
X5299760Y-6022898D01*
X5289651Y-6032042D01*
X5280863Y-6042456D01*
X5273497Y-6053937D01*
X5271363Y-6058509D01*
X5269128Y-6061608D01*
X5265928Y-6063691D01*
X5262168Y-6064402D01*
X4642002Y-6064402D01*
X4638243Y-6063691D01*
X4635042Y-6061608D01*
X4632807Y-6058509D01*
X4630674Y-6053937D01*
X4623358Y-6042456D01*
X4614519Y-6032042D01*
X4604410Y-6022898D01*
X4593183Y-6015177D01*
X4580991Y-6009030D01*
X4568139Y-6004560D01*
X4554778Y-6001816D01*
X4541164Y-6000902D01*
X4527550Y-6001816D01*
X4514189Y-6004560D01*
X4501286Y-6009030D01*
X4489145Y-6015177D01*
X4477867Y-6022898D01*
X4467758Y-6032042D01*
X4458970Y-6042456D01*
X4451654Y-6053937D01*
X4449521Y-6058509D01*
X4447286Y-6061608D01*
X4444034Y-6063691D01*
X4440275Y-6064402D01*
X3820160Y-6064402D01*
X3816400Y-6063691D01*
X3813149Y-6061608D01*
X3810914Y-6058509D01*
X3808831Y-6053937D01*
X3801465Y-6042456D01*
X3792677Y-6032042D01*
X3782568Y-6022898D01*
X3771290Y-6015177D01*
X3759149Y-6009030D01*
X3746246Y-6004560D01*
X3732885Y-6001816D01*
X3719271Y-6000902D01*
X3705656Y-6001816D01*
X3692296Y-6004560D01*
X3679444Y-6009030D01*
X3667251Y-6015177D01*
X3656025Y-6022898D01*
X3645915Y-6032042D01*
X3637076Y-6042456D01*
X3629761Y-6053937D01*
X3624021Y-6066332D01*
X3619957Y-6079337D01*
X3617722Y-6092799D01*
X3617264Y-6106414D01*
X3618636Y-6119977D01*
X3621786Y-6133236D01*
X3626662Y-6145987D01*
X3633215Y-6157925D01*
X3641344Y-6168898D01*
X3650792Y-6178702D01*
X3661511Y-6187186D01*
X3673246Y-6194094D01*
X3685794Y-6199428D01*
X3698951Y-6203035D01*
X3704996Y-6203848D01*
X3709060Y-6205321D01*
X3712159Y-6208369D01*
X3713683Y-6212433D01*
X3713378Y-6216751D01*
X3711295Y-6220561D01*
X3707841Y-6223152D01*
X3703624Y-6224066D01*
X2913075Y-6224066D01*
X2908858Y-6223152D01*
X2905404Y-6220561D01*
X2903321Y-6216751D01*
X2903016Y-6212433D01*
X2904540Y-6208369D01*
X2907639Y-6205321D01*
X2911703Y-6203848D01*
X2917748Y-6203035D01*
X2930906Y-6199428D01*
X2943453Y-6194094D01*
X2955188Y-6187186D01*
X2965907Y-6178702D01*
X2975356Y-6168898D01*
X2983484Y-6157925D01*
X2990037Y-6145987D01*
X2994914Y-6133236D01*
X2998063Y-6119977D01*
X2999435Y-6106414D01*
X2998978Y-6092799D01*
X2996742Y-6079337D01*
X2993542Y-6069177D01*
X2993136Y-6065520D01*
X2993999Y-6061964D01*
X2996082Y-6058966D01*
X3387344Y-5667705D01*
X3390646Y-5665470D01*
X3394557Y-5664708D01*
X6731914Y-5664708D01*
X6735572Y-5665419D01*
X6738772Y-5667400D01*
X6741007Y-5670397D01*
X6745274Y-5679033D01*
X6752996Y-5690565D01*
X6762140Y-5700979D01*
X6772554Y-5710123D01*
X6784035Y-5717794D01*
X6796481Y-5723940D01*
X6809587Y-5728360D01*
X6823151Y-5731103D01*
X6836968Y-5731967D01*
X6850786Y-5731103D01*
X6864400Y-5728360D01*
X6877507Y-5723940D01*
X6889953Y-5717794D01*
X6901434Y-5710123D01*
X6911848Y-5700979D01*
X6920992Y-5690565D01*
X6928713Y-5679033D01*
X6934809Y-5666638D01*
X6939280Y-5653481D01*
X6941972Y-5639917D01*
X6942886Y-5626100D01*
X6941972Y-5612282D01*
X6939280Y-5598718D01*
X6934809Y-5585561D01*
X6928713Y-5573166D01*
X6920992Y-5561634D01*
X6911848Y-5551220D01*
X6901434Y-5542076D01*
X6889953Y-5534406D01*
X6877507Y-5528259D01*
X6864400Y-5523839D01*
X6850786Y-5521096D01*
X6836968Y-5520232D01*
X6823151Y-5521096D01*
X6809587Y-5523839D01*
X6796481Y-5528259D01*
X6784035Y-5534406D01*
X6772554Y-5542076D01*
X6762140Y-5551220D01*
X6752996Y-5561634D01*
X6745274Y-5573166D01*
X6741007Y-5581802D01*
X6738772Y-5584799D01*
X6735572Y-5586780D01*
X6731914Y-5587492D01*
X3374847Y-5587492D01*
X3366820Y-5588304D01*
X3359607Y-5590489D01*
X3352901Y-5594045D01*
X3346704Y-5599176D01*
X2941421Y-6004407D01*
X2938322Y-6006541D01*
X2934665Y-6007354D01*
X2930906Y-6006795D01*
X2924403Y-6004560D01*
X2911043Y-6001816D01*
X2897428Y-6000902D01*
X2883814Y-6001816D01*
X2870454Y-6004560D01*
X2857550Y-6009030D01*
X2845409Y-6015177D01*
X2834132Y-6022898D01*
X2824022Y-6032042D01*
X2815234Y-6042456D01*
X2807868Y-6053937D01*
X2805785Y-6058509D01*
X2803550Y-6061608D01*
X2800299Y-6063691D01*
X2796540Y-6064402D01*
X2176424Y-6064402D01*
X2172665Y-6063691D01*
X2169414Y-6061608D01*
X2167178Y-6058509D01*
X2165045Y-6053937D01*
X2157730Y-6042456D01*
X2148941Y-6032042D01*
X2138832Y-6022898D01*
X2127554Y-6015177D01*
X2115413Y-6009030D01*
X2102510Y-6004560D01*
X2089150Y-6001816D01*
X2075535Y-6000902D01*
X2061921Y-6001816D01*
X2048560Y-6004560D01*
X2035708Y-6009030D01*
X2023516Y-6015177D01*
X2012289Y-6022898D01*
X2002180Y-6032042D01*
X1993341Y-6042456D01*
X1986025Y-6053937D01*
X1983892Y-6058509D01*
X1981657Y-6061608D01*
X1978456Y-6063691D01*
X1974697Y-6064402D01*
X1354531Y-6064402D01*
X1350772Y-6063691D01*
X1347571Y-6061608D01*
X1345336Y-6058509D01*
X1343202Y-6053937D01*
X1335836Y-6042456D01*
X1327048Y-6032042D01*
X1316939Y-6022898D01*
X1305712Y-6015177D01*
X1293520Y-6009030D01*
X1280617Y-6004560D01*
X1267256Y-6001816D01*
X1253693Y-6000902D01*
X1240078Y-6001816D01*
X1226718Y-6004560D01*
X1213815Y-6009030D01*
X1201623Y-6015177D01*
X1190396Y-6022898D01*
X1180287Y-6032042D01*
X1171498Y-6042456D01*
X1164132Y-6053937D01*
X1161999Y-6058509D01*
X1159764Y-6061608D01*
X1156563Y-6063691D01*
X1152804Y-6064402D01*
X532688Y-6064402D01*
X528929Y-6063691D01*
X525678Y-6061608D01*
X523443Y-6058509D01*
X521309Y-6053937D01*
X513994Y-6042456D01*
X505206Y-6032042D01*
X495046Y-6022898D01*
X483819Y-6015177D01*
X471678Y-6009030D01*
X458774Y-6004560D01*
X445414Y-6001816D01*
X431800Y-6000902D01*
X418185Y-6001816D01*
X404825Y-6004560D01*
X391922Y-6009030D01*
X379780Y-6015177D01*
X368554Y-6022898D01*
X358394Y-6032042D01*
X349605Y-6042456D01*
X342290Y-6053937D01*
X336550Y-6066332D01*
X332486Y-6079337D01*
X330250Y-6092799D01*
X329793Y-6106414D01*
X331114Y-6119977D01*
X334314Y-6133236D01*
X339191Y-6145987D01*
X345744Y-6157925D01*
X353822Y-6168898D01*
X363321Y-6178702D01*
X374040Y-6187186D01*
X385775Y-6194094D01*
X398322Y-6199428D01*
X411480Y-6203035D01*
X417474Y-6203848D01*
X421538Y-6205321D01*
X424637Y-6208369D01*
X426161Y-6212433D01*
X425907Y-6216751D01*
X423824Y-6220561D01*
X420370Y-6223152D01*
X416153Y-6224066D01*
G37*

%LPC*%
G36*
X7186980Y-5731967D02*
G01*
X7200798Y-5731103D01*
X7214412Y-5728360D01*
X7227519Y-5723940D01*
X7239965Y-5717794D01*
X7251446Y-5710123D01*
X7261859Y-5700979D01*
X7271003Y-5690565D01*
X7278725Y-5679033D01*
X7284821Y-5666638D01*
X7289292Y-5653481D01*
X7291984Y-5639917D01*
X7292898Y-5626100D01*
X7291984Y-5612282D01*
X7289292Y-5598718D01*
X7284821Y-5585561D01*
X7278725Y-5573166D01*
X7271003Y-5561634D01*
X7261859Y-5551220D01*
X7251446Y-5542076D01*
X7239965Y-5534406D01*
X7227519Y-5528259D01*
X7214412Y-5523839D01*
X7200798Y-5521096D01*
X7186980Y-5520232D01*
X7173163Y-5521096D01*
X7159599Y-5523839D01*
X7146493Y-5528259D01*
X7134047Y-5534406D01*
X7122566Y-5542076D01*
X7112152Y-5551220D01*
X7103008Y-5561634D01*
X7095286Y-5573166D01*
X7089190Y-5585561D01*
X7084720Y-5598718D01*
X7082028Y-5612282D01*
X7081113Y-5626100D01*
X7082028Y-5639917D01*
X7084720Y-5653481D01*
X7089190Y-5666638D01*
X7095286Y-5679033D01*
X7103008Y-5690565D01*
X7112152Y-5700979D01*
X7122566Y-5710123D01*
X7134047Y-5717794D01*
X7146493Y-5723940D01*
X7159599Y-5728360D01*
X7173163Y-5731103D01*
G37*
G36*
X3712464Y-5174843D02*
G01*
X3726129Y-5174843D01*
X3739642Y-5173014D01*
X3752748Y-5169458D01*
X3765346Y-5164124D01*
X3777081Y-5157165D01*
X3787749Y-5148732D01*
X3797249Y-5138928D01*
X3805326Y-5127955D01*
X3811879Y-5115966D01*
X3816807Y-5103266D01*
X3819956Y-5089956D01*
X3821328Y-5076393D01*
X3820871Y-5062778D01*
X3818585Y-5049316D01*
X3814572Y-5036312D01*
X3808831Y-5023916D01*
X3801465Y-5012436D01*
X3792677Y-5002022D01*
X3782568Y-4992878D01*
X3771290Y-4985156D01*
X3759149Y-4979009D01*
X3746246Y-4974539D01*
X3732885Y-4971846D01*
X3719271Y-4970932D01*
X3705656Y-4971846D01*
X3692296Y-4974539D01*
X3679444Y-4979009D01*
X3667251Y-4985156D01*
X3656025Y-4992878D01*
X3645915Y-5002022D01*
X3637076Y-5012436D01*
X3629761Y-5023916D01*
X3624021Y-5036312D01*
X3619957Y-5049316D01*
X3617722Y-5062778D01*
X3617264Y-5076393D01*
X3618636Y-5089956D01*
X3621786Y-5103266D01*
X3626662Y-5115966D01*
X3633215Y-5127955D01*
X3641344Y-5138928D01*
X3650792Y-5148732D01*
X3661511Y-5157165D01*
X3673246Y-5164124D01*
X3685794Y-5169458D01*
X3698951Y-5173014D01*
G37*
G36*
X6178092Y-5174843D02*
G01*
X6191707Y-5174843D01*
X6205220Y-5173014D01*
X6218377Y-5169458D01*
X6230924Y-5164124D01*
X6242659Y-5157165D01*
X6253378Y-5148732D01*
X6262878Y-5138928D01*
X6270955Y-5127955D01*
X6277508Y-5115966D01*
X6282385Y-5103266D01*
X6285585Y-5089956D01*
X6286906Y-5076393D01*
X6286449Y-5062778D01*
X6284214Y-5049316D01*
X6280150Y-5036312D01*
X6274409Y-5023916D01*
X6267094Y-5012436D01*
X6258306Y-5002022D01*
X6248146Y-4992878D01*
X6236919Y-4985156D01*
X6224778Y-4979009D01*
X6211874Y-4974539D01*
X6198514Y-4971846D01*
X6184900Y-4970932D01*
X6171285Y-4971846D01*
X6157925Y-4974539D01*
X6145022Y-4979009D01*
X6132880Y-4985156D01*
X6121654Y-4992878D01*
X6111494Y-5002022D01*
X6102705Y-5012436D01*
X6095390Y-5023916D01*
X6089650Y-5036312D01*
X6085586Y-5049316D01*
X6083350Y-5062778D01*
X6082893Y-5076393D01*
X6084214Y-5089956D01*
X6087414Y-5103266D01*
X6092291Y-5115966D01*
X6098844Y-5127955D01*
X6106922Y-5138928D01*
X6116421Y-5148732D01*
X6127140Y-5157165D01*
X6138875Y-5164124D01*
X6151422Y-5169458D01*
X6164580Y-5173014D01*
G37*
G36*
X2890570Y-5174843D02*
G01*
X2904236Y-5174843D01*
X2917748Y-5173014D01*
X2930906Y-5169458D01*
X2943453Y-5164124D01*
X2955188Y-5157165D01*
X2965907Y-5148732D01*
X2975356Y-5138928D01*
X2983484Y-5127955D01*
X2990037Y-5115966D01*
X2994914Y-5103266D01*
X2998063Y-5089956D01*
X2999435Y-5076393D01*
X2998978Y-5062778D01*
X2996742Y-5049316D01*
X2992678Y-5036312D01*
X2986938Y-5023916D01*
X2979623Y-5012436D01*
X2970784Y-5002022D01*
X2960674Y-4992878D01*
X2949448Y-4985156D01*
X2937256Y-4979009D01*
X2924403Y-4974539D01*
X2911043Y-4971846D01*
X2897428Y-4970932D01*
X2883814Y-4971846D01*
X2870454Y-4974539D01*
X2857550Y-4979009D01*
X2845409Y-4985156D01*
X2834132Y-4992878D01*
X2824022Y-5002022D01*
X2815234Y-5012436D01*
X2807868Y-5023916D01*
X2802128Y-5036312D01*
X2798114Y-5049316D01*
X2795828Y-5062778D01*
X2795371Y-5076393D01*
X2796743Y-5089956D01*
X2799892Y-5103266D01*
X2804820Y-5115966D01*
X2811373Y-5127955D01*
X2819450Y-5138928D01*
X2828950Y-5148732D01*
X2839618Y-5157165D01*
X2851353Y-5164124D01*
X2863951Y-5169458D01*
X2877058Y-5173014D01*
G37*
G36*
X4534357Y-5174843D02*
G01*
X4547971Y-5174843D01*
X4561484Y-5173014D01*
X4574641Y-5169458D01*
X4587189Y-5164124D01*
X4598924Y-5157165D01*
X4609642Y-5148732D01*
X4619091Y-5138928D01*
X4627219Y-5127955D01*
X4633772Y-5115966D01*
X4638649Y-5103266D01*
X4641799Y-5089956D01*
X4643170Y-5076393D01*
X4642713Y-5062778D01*
X4640478Y-5049316D01*
X4636414Y-5036312D01*
X4630674Y-5023916D01*
X4623358Y-5012436D01*
X4614519Y-5002022D01*
X4604410Y-4992878D01*
X4593183Y-4985156D01*
X4580991Y-4979009D01*
X4568139Y-4974539D01*
X4554778Y-4971846D01*
X4541164Y-4970932D01*
X4527550Y-4971846D01*
X4514189Y-4974539D01*
X4501286Y-4979009D01*
X4489145Y-4985156D01*
X4477867Y-4992878D01*
X4467758Y-5002022D01*
X4458970Y-5012436D01*
X4451654Y-5023916D01*
X4445914Y-5036312D01*
X4441850Y-5049316D01*
X4439564Y-5062778D01*
X4439107Y-5076393D01*
X4440478Y-5089956D01*
X4443679Y-5103266D01*
X4448556Y-5115966D01*
X4455109Y-5127955D01*
X4463186Y-5138928D01*
X4472686Y-5148732D01*
X4483404Y-5157165D01*
X4495139Y-5164124D01*
X4507687Y-5169458D01*
X4520844Y-5173014D01*
G37*
G36*
X2068728Y-5174843D02*
G01*
X2082342Y-5174843D01*
X2095855Y-5173014D01*
X2109012Y-5169458D01*
X2121560Y-5164124D01*
X2133295Y-5157165D01*
X2144014Y-5148732D01*
X2153513Y-5138928D01*
X2161590Y-5127955D01*
X2168144Y-5115966D01*
X2173020Y-5103266D01*
X2176221Y-5089956D01*
X2177592Y-5076393D01*
X2177135Y-5062778D01*
X2174849Y-5049316D01*
X2170785Y-5036312D01*
X2165045Y-5023916D01*
X2157730Y-5012436D01*
X2148941Y-5002022D01*
X2138832Y-4992878D01*
X2127554Y-4985156D01*
X2115413Y-4979009D01*
X2102510Y-4974539D01*
X2089150Y-4971846D01*
X2075535Y-4970932D01*
X2061921Y-4971846D01*
X2048560Y-4974539D01*
X2035708Y-4979009D01*
X2023516Y-4985156D01*
X2012289Y-4992878D01*
X2002180Y-5002022D01*
X1993341Y-5012436D01*
X1986025Y-5023916D01*
X1980285Y-5036312D01*
X1976221Y-5049316D01*
X1973986Y-5062778D01*
X1973529Y-5076393D01*
X1974900Y-5089956D01*
X1978050Y-5103266D01*
X1982927Y-5115966D01*
X1989480Y-5127955D01*
X1997608Y-5138928D01*
X2007057Y-5148732D01*
X2017775Y-5157165D01*
X2029510Y-5164124D01*
X2042058Y-5169458D01*
X2055215Y-5173014D01*
G37*
G36*
X5356199Y-5174843D02*
G01*
X5369864Y-5174843D01*
X5383377Y-5173014D01*
X5396534Y-5169458D01*
X5409082Y-5164124D01*
X5420817Y-5157165D01*
X5431485Y-5148732D01*
X5440984Y-5138928D01*
X5449062Y-5127955D01*
X5455615Y-5115966D01*
X5460542Y-5103266D01*
X5463692Y-5089956D01*
X5465064Y-5076393D01*
X5464606Y-5062778D01*
X5462320Y-5049316D01*
X5458307Y-5036312D01*
X5452567Y-5023916D01*
X5445201Y-5012436D01*
X5436412Y-5002022D01*
X5426303Y-4992878D01*
X5415076Y-4985156D01*
X5402884Y-4979009D01*
X5389981Y-4974539D01*
X5376621Y-4971846D01*
X5363006Y-4970932D01*
X5349443Y-4971846D01*
X5336082Y-4974539D01*
X5323179Y-4979009D01*
X5310987Y-4985156D01*
X5299760Y-4992878D01*
X5289651Y-5002022D01*
X5280863Y-5012436D01*
X5273497Y-5023916D01*
X5267756Y-5036312D01*
X5263743Y-5049316D01*
X5261457Y-5062778D01*
X5261000Y-5076393D01*
X5262372Y-5089956D01*
X5265521Y-5103266D01*
X5270449Y-5115966D01*
X5277002Y-5127955D01*
X5285079Y-5138928D01*
X5294528Y-5148732D01*
X5305247Y-5157165D01*
X5316982Y-5164124D01*
X5329529Y-5169458D01*
X5342686Y-5173014D01*
G37*
G36*
X424992Y-5174843D02*
G01*
X438607Y-5174843D01*
X452120Y-5173014D01*
X465277Y-5169458D01*
X477824Y-5164124D01*
X489559Y-5157165D01*
X500278Y-5148732D01*
X509778Y-5138928D01*
X517855Y-5127955D01*
X524408Y-5115966D01*
X529285Y-5103266D01*
X532485Y-5089956D01*
X533806Y-5076393D01*
X533349Y-5062778D01*
X531114Y-5049316D01*
X527050Y-5036312D01*
X521309Y-5023916D01*
X513994Y-5012436D01*
X505206Y-5002022D01*
X495046Y-4992878D01*
X483819Y-4985156D01*
X471678Y-4979009D01*
X458774Y-4974539D01*
X445414Y-4971846D01*
X431800Y-4970932D01*
X418185Y-4971846D01*
X404825Y-4974539D01*
X391922Y-4979009D01*
X379780Y-4985156D01*
X368554Y-4992878D01*
X358394Y-5002022D01*
X349605Y-5012436D01*
X342290Y-5023916D01*
X336550Y-5036312D01*
X332486Y-5049316D01*
X330250Y-5062778D01*
X329793Y-5076393D01*
X331114Y-5089956D01*
X334314Y-5103266D01*
X339191Y-5115966D01*
X345744Y-5127955D01*
X353822Y-5138928D01*
X363321Y-5148732D01*
X374040Y-5157165D01*
X385775Y-5164124D01*
X398322Y-5169458D01*
X411480Y-5173014D01*
G37*
G36*
X1246835Y-5174843D02*
G01*
X1260500Y-5174843D01*
X1274013Y-5173014D01*
X1287170Y-5169458D01*
X1299718Y-5164124D01*
X1311452Y-5157165D01*
X1322171Y-5148732D01*
X1331620Y-5138928D01*
X1339697Y-5127955D01*
X1346250Y-5115966D01*
X1351178Y-5103266D01*
X1354328Y-5089956D01*
X1355699Y-5076393D01*
X1355242Y-5062778D01*
X1352956Y-5049316D01*
X1348943Y-5036312D01*
X1343202Y-5023916D01*
X1335836Y-5012436D01*
X1327048Y-5002022D01*
X1316939Y-4992878D01*
X1305712Y-4985156D01*
X1293520Y-4979009D01*
X1280617Y-4974539D01*
X1267256Y-4971846D01*
X1253693Y-4970932D01*
X1240078Y-4971846D01*
X1226718Y-4974539D01*
X1213815Y-4979009D01*
X1201623Y-4985156D01*
X1190396Y-4992878D01*
X1180287Y-5002022D01*
X1171498Y-5012436D01*
X1164132Y-5023916D01*
X1158392Y-5036312D01*
X1154379Y-5049316D01*
X1152093Y-5062778D01*
X1151636Y-5076393D01*
X1153007Y-5089956D01*
X1156157Y-5103266D01*
X1161084Y-5115966D01*
X1167638Y-5127955D01*
X1175715Y-5138928D01*
X1185214Y-5148732D01*
X1195882Y-5157165D01*
X1207617Y-5164124D01*
X1220165Y-5169458D01*
X1233322Y-5173014D01*
G37*
G36*
X7035800Y-4945126D02*
G01*
X7050328Y-4944211D01*
X7064603Y-4941468D01*
X7078472Y-4936947D01*
X7091629Y-4930749D01*
X7103922Y-4922977D01*
X7115149Y-4913680D01*
X7125106Y-4903063D01*
X7133640Y-4891328D01*
X7140651Y-4878578D01*
X7146036Y-4865014D01*
X7149642Y-4850942D01*
X7151471Y-4836515D01*
X7151471Y-4821936D01*
X7149642Y-4807508D01*
X7146036Y-4793386D01*
X7140651Y-4779873D01*
X7133640Y-4767122D01*
X7125106Y-4755337D01*
X7115149Y-4744720D01*
X7103922Y-4735474D01*
X7091629Y-4727651D01*
X7078472Y-4721453D01*
X7064603Y-4716983D01*
X7050328Y-4714240D01*
X7035800Y-4713325D01*
X7021271Y-4714240D01*
X7006996Y-4716983D01*
X6993128Y-4721453D01*
X6979970Y-4727651D01*
X6967677Y-4735474D01*
X6956450Y-4744720D01*
X6946493Y-4755337D01*
X6937959Y-4767122D01*
X6930948Y-4779873D01*
X6925564Y-4793386D01*
X6921957Y-4807508D01*
X6920128Y-4821936D01*
X6920128Y-4836515D01*
X6921957Y-4850942D01*
X6925564Y-4865014D01*
X6930948Y-4878578D01*
X6937959Y-4891328D01*
X6946493Y-4903063D01*
X6956450Y-4913680D01*
X6967677Y-4922977D01*
X6979970Y-4930749D01*
X6993128Y-4936947D01*
X7006996Y-4941468D01*
X7021271Y-4944211D01*
G37*
G36*
X7289800Y-4945126D02*
G01*
X7304328Y-4944211D01*
X7318603Y-4941468D01*
X7332472Y-4936947D01*
X7345629Y-4930749D01*
X7357922Y-4922977D01*
X7369149Y-4913680D01*
X7379106Y-4903063D01*
X7387640Y-4891328D01*
X7394651Y-4878578D01*
X7400036Y-4865014D01*
X7403642Y-4850942D01*
X7405471Y-4836515D01*
X7405471Y-4821936D01*
X7403642Y-4807508D01*
X7400036Y-4793386D01*
X7394651Y-4779873D01*
X7387640Y-4767122D01*
X7379106Y-4755337D01*
X7369149Y-4744720D01*
X7357922Y-4735474D01*
X7345629Y-4727651D01*
X7332472Y-4721453D01*
X7318603Y-4716983D01*
X7304328Y-4714240D01*
X7289800Y-4713325D01*
X7275271Y-4714240D01*
X7260996Y-4716983D01*
X7247128Y-4721453D01*
X7233970Y-4727651D01*
X7221677Y-4735474D01*
X7210450Y-4744720D01*
X7200493Y-4755337D01*
X7191959Y-4767122D01*
X7184948Y-4779873D01*
X7179564Y-4793386D01*
X7175957Y-4807508D01*
X7174128Y-4821936D01*
X7174128Y-4836515D01*
X7175957Y-4850942D01*
X7179564Y-4865014D01*
X7184948Y-4878578D01*
X7191959Y-4891328D01*
X7200493Y-4903063D01*
X7210450Y-4913680D01*
X7221677Y-4922977D01*
X7233970Y-4930749D01*
X7247128Y-4936947D01*
X7260996Y-4941468D01*
X7275271Y-4944211D01*
G37*
G36*
X6692392Y-4945126D02*
G01*
X6871208Y-4945126D01*
X6877558Y-4944414D01*
X6882993Y-4942484D01*
X6887921Y-4939436D01*
X6891985Y-4935321D01*
X6895084Y-4930444D01*
X6897014Y-4924958D01*
X6897725Y-4918659D01*
X6897725Y-4739792D01*
X6897014Y-4733442D01*
X6895084Y-4728006D01*
X6891985Y-4723079D01*
X6887921Y-4719015D01*
X6882993Y-4715916D01*
X6877558Y-4714036D01*
X6871208Y-4713325D01*
X6692392Y-4713325D01*
X6686042Y-4714036D01*
X6680606Y-4715916D01*
X6675678Y-4719015D01*
X6671614Y-4723079D01*
X6668516Y-4728006D01*
X6666585Y-4733442D01*
X6665874Y-4739792D01*
X6665874Y-4918659D01*
X6666585Y-4924958D01*
X6668516Y-4930444D01*
X6671614Y-4935321D01*
X6675678Y-4939436D01*
X6680606Y-4942484D01*
X6686042Y-4944414D01*
G37*
G36*
X1456334Y-4681575D02*
G01*
X1635201Y-4681575D01*
X1641551Y-4680864D01*
X1646986Y-4678934D01*
X1651863Y-4675835D01*
X1655978Y-4671771D01*
X1659077Y-4666843D01*
X1660956Y-4661408D01*
X1661668Y-4655058D01*
X1661668Y-4476242D01*
X1660956Y-4469892D01*
X1659077Y-4464456D01*
X1655978Y-4459528D01*
X1651863Y-4455464D01*
X1646986Y-4452366D01*
X1641551Y-4450435D01*
X1635201Y-4449724D01*
X1456334Y-4449724D01*
X1450035Y-4450435D01*
X1444548Y-4452366D01*
X1439672Y-4455464D01*
X1435557Y-4459528D01*
X1432509Y-4464456D01*
X1430578Y-4469892D01*
X1429867Y-4476242D01*
X1429867Y-4655058D01*
X1430578Y-4661408D01*
X1432509Y-4666843D01*
X1435557Y-4671771D01*
X1439672Y-4675835D01*
X1444548Y-4678934D01*
X1450035Y-4680864D01*
G37*
G36*
X634492Y-4681575D02*
G01*
X813308Y-4681575D01*
X819658Y-4680864D01*
X825093Y-4678934D01*
X830021Y-4675835D01*
X834085Y-4671771D01*
X837184Y-4666843D01*
X839114Y-4661408D01*
X839825Y-4655058D01*
X839825Y-4476242D01*
X839114Y-4469892D01*
X837184Y-4464456D01*
X834085Y-4459528D01*
X830021Y-4455464D01*
X825093Y-4452366D01*
X819658Y-4450435D01*
X813308Y-4449724D01*
X634492Y-4449724D01*
X628142Y-4450435D01*
X622706Y-4452366D01*
X617778Y-4455464D01*
X613714Y-4459528D01*
X610616Y-4464456D01*
X608685Y-4469892D01*
X607974Y-4476242D01*
X607974Y-4655058D01*
X608685Y-4661408D01*
X610616Y-4666843D01*
X613714Y-4671771D01*
X617778Y-4675835D01*
X622706Y-4678934D01*
X628142Y-4680864D01*
G37*
G36*
X4743805Y-4681575D02*
G01*
X4922672Y-4681575D01*
X4929022Y-4680864D01*
X4934458Y-4678934D01*
X4939385Y-4675835D01*
X4943449Y-4671771D01*
X4946548Y-4666843D01*
X4948478Y-4661408D01*
X4949190Y-4655108D01*
X4949190Y-4476242D01*
X4948478Y-4469892D01*
X4946548Y-4464456D01*
X4943449Y-4459528D01*
X4939385Y-4455464D01*
X4934458Y-4452366D01*
X4929022Y-4450435D01*
X4922672Y-4449724D01*
X4743805Y-4449724D01*
X4737506Y-4450435D01*
X4732070Y-4452366D01*
X4727143Y-4455464D01*
X4723079Y-4459528D01*
X4719980Y-4464456D01*
X4718050Y-4469892D01*
X4717338Y-4476242D01*
X4717338Y-4655108D01*
X4718050Y-4661408D01*
X4719980Y-4666843D01*
X4723079Y-4671771D01*
X4727143Y-4675835D01*
X4732070Y-4678934D01*
X4737506Y-4680864D01*
G37*
G36*
X6387592Y-4681575D02*
G01*
X6566408Y-4681575D01*
X6572758Y-4680864D01*
X6578193Y-4678934D01*
X6583121Y-4675835D01*
X6587185Y-4671771D01*
X6590284Y-4666843D01*
X6592214Y-4661408D01*
X6592925Y-4655058D01*
X6592925Y-4476242D01*
X6592214Y-4469892D01*
X6590284Y-4464456D01*
X6587185Y-4459528D01*
X6583121Y-4455464D01*
X6578193Y-4452366D01*
X6572758Y-4450435D01*
X6566408Y-4449724D01*
X6387592Y-4449724D01*
X6381242Y-4450435D01*
X6375806Y-4452366D01*
X6370878Y-4455464D01*
X6366814Y-4459528D01*
X6363716Y-4464456D01*
X6361785Y-4469892D01*
X6361074Y-4476242D01*
X6361074Y-4655058D01*
X6361785Y-4661408D01*
X6363716Y-4666843D01*
X6366814Y-4671771D01*
X6370878Y-4675835D01*
X6375806Y-4678934D01*
X6381242Y-4680864D01*
G37*
G36*
X3100120Y-4681575D02*
G01*
X3278936Y-4681575D01*
X3285286Y-4680864D01*
X3290722Y-4678934D01*
X3295650Y-4675835D01*
X3299714Y-4671771D01*
X3302812Y-4666843D01*
X3304743Y-4661408D01*
X3305454Y-4655058D01*
X3305454Y-4476242D01*
X3304743Y-4469892D01*
X3302812Y-4464456D01*
X3299714Y-4459528D01*
X3295650Y-4455464D01*
X3290722Y-4452366D01*
X3285286Y-4450435D01*
X3278936Y-4449724D01*
X3100120Y-4449724D01*
X3093770Y-4450435D01*
X3088335Y-4452366D01*
X3083407Y-4455464D01*
X3079343Y-4459528D01*
X3076244Y-4464456D01*
X3074314Y-4469892D01*
X3073603Y-4476242D01*
X3073603Y-4655058D01*
X3074314Y-4661408D01*
X3076244Y-4666843D01*
X3079343Y-4671771D01*
X3083407Y-4675835D01*
X3088335Y-4678934D01*
X3093770Y-4680864D01*
G37*
G36*
X2278227Y-4681575D02*
G01*
X2457094Y-4681575D01*
X2463393Y-4680864D01*
X2468880Y-4678934D01*
X2473756Y-4675835D01*
X2477871Y-4671771D01*
X2480919Y-4666843D01*
X2482850Y-4661408D01*
X2483561Y-4655058D01*
X2483561Y-4476242D01*
X2482850Y-4469892D01*
X2480919Y-4464456D01*
X2477871Y-4459528D01*
X2473756Y-4455464D01*
X2468880Y-4452366D01*
X2463393Y-4450435D01*
X2457094Y-4449724D01*
X2278227Y-4449724D01*
X2271877Y-4450435D01*
X2266442Y-4452366D01*
X2261514Y-4455464D01*
X2257450Y-4459528D01*
X2254351Y-4464456D01*
X2252472Y-4469892D01*
X2251760Y-4476242D01*
X2251760Y-4655058D01*
X2252472Y-4661408D01*
X2254351Y-4666843D01*
X2257450Y-4671771D01*
X2261514Y-4675835D01*
X2266442Y-4678934D01*
X2271877Y-4680864D01*
G37*
G36*
X3921963Y-4681575D02*
G01*
X4100829Y-4681575D01*
X4107129Y-4680864D01*
X4112615Y-4678934D01*
X4117492Y-4675835D01*
X4121607Y-4671771D01*
X4124655Y-4666843D01*
X4126585Y-4661408D01*
X4127296Y-4655108D01*
X4127296Y-4476242D01*
X4126585Y-4469892D01*
X4124655Y-4464456D01*
X4121607Y-4459528D01*
X4117492Y-4455464D01*
X4112615Y-4452366D01*
X4107129Y-4450435D01*
X4100829Y-4449724D01*
X3921963Y-4449724D01*
X3915664Y-4450435D01*
X3910177Y-4452366D01*
X3905300Y-4455464D01*
X3901186Y-4459528D01*
X3898087Y-4464456D01*
X3896207Y-4469892D01*
X3895496Y-4476242D01*
X3895496Y-4655108D01*
X3896207Y-4661408D01*
X3898087Y-4666843D01*
X3901186Y-4671771D01*
X3905300Y-4675835D01*
X3910177Y-4678934D01*
X3915664Y-4680864D01*
G37*
G36*
X5565698Y-4681575D02*
G01*
X5744565Y-4681575D01*
X5750864Y-4680864D01*
X5756351Y-4678934D01*
X5761228Y-4675835D01*
X5765342Y-4671771D01*
X5768390Y-4666843D01*
X5770321Y-4661408D01*
X5771032Y-4655108D01*
X5771032Y-4476242D01*
X5770321Y-4469892D01*
X5768390Y-4464456D01*
X5765342Y-4459528D01*
X5761228Y-4455464D01*
X5756351Y-4452366D01*
X5750864Y-4450435D01*
X5744565Y-4449724D01*
X5565698Y-4449724D01*
X5559348Y-4450435D01*
X5553913Y-4452366D01*
X5548985Y-4455464D01*
X5544921Y-4459528D01*
X5541822Y-4464456D01*
X5539943Y-4469892D01*
X5539232Y-4476242D01*
X5539232Y-4655108D01*
X5539943Y-4661408D01*
X5541822Y-4666843D01*
X5544921Y-4671771D01*
X5548985Y-4675835D01*
X5553913Y-4678934D01*
X5559348Y-4680864D01*
G37*
G36*
X1291793Y-4681524D02*
G01*
X1306322Y-4680610D01*
X1320596Y-4677918D01*
X1334414Y-4673396D01*
X1347622Y-4667199D01*
X1359916Y-4659426D01*
X1371092Y-4650130D01*
X1381048Y-4639513D01*
X1389634Y-4627727D01*
X1396644Y-4614976D01*
X1401978Y-4601464D01*
X1405585Y-4587341D01*
X1407414Y-4572914D01*
X1407414Y-4558385D01*
X1405585Y-4543958D01*
X1401978Y-4529836D01*
X1396644Y-4516323D01*
X1389634Y-4503572D01*
X1381048Y-4491786D01*
X1371092Y-4481169D01*
X1359916Y-4471873D01*
X1347622Y-4464100D01*
X1334414Y-4457903D01*
X1320596Y-4453382D01*
X1306322Y-4450689D01*
X1291793Y-4449775D01*
X1277264Y-4450689D01*
X1262938Y-4453382D01*
X1249121Y-4457903D01*
X1235964Y-4464100D01*
X1223670Y-4471873D01*
X1212443Y-4481169D01*
X1202486Y-4491786D01*
X1193952Y-4503572D01*
X1186942Y-4516323D01*
X1181557Y-4529836D01*
X1177950Y-4543958D01*
X1176121Y-4558385D01*
X1176121Y-4572914D01*
X1177950Y-4587341D01*
X1181557Y-4601464D01*
X1186942Y-4614976D01*
X1193952Y-4627727D01*
X1202486Y-4639513D01*
X1212443Y-4650130D01*
X1223670Y-4659426D01*
X1235964Y-4667199D01*
X1249121Y-4673396D01*
X1262938Y-4677918D01*
X1277264Y-4680610D01*
G37*
G36*
X469900Y-4681524D02*
G01*
X484428Y-4680610D01*
X498703Y-4677918D01*
X512572Y-4673396D01*
X525729Y-4667199D01*
X538022Y-4659426D01*
X549249Y-4650130D01*
X559206Y-4639513D01*
X567740Y-4627727D01*
X574751Y-4614976D01*
X580136Y-4601464D01*
X583742Y-4587341D01*
X585571Y-4572914D01*
X585571Y-4558385D01*
X583742Y-4543958D01*
X580136Y-4529836D01*
X574751Y-4516323D01*
X567740Y-4503572D01*
X559206Y-4491786D01*
X549249Y-4481169D01*
X538022Y-4471873D01*
X525729Y-4464100D01*
X512572Y-4457903D01*
X498703Y-4453382D01*
X484428Y-4450689D01*
X469900Y-4449775D01*
X455371Y-4450689D01*
X441096Y-4453382D01*
X427228Y-4457903D01*
X414070Y-4464100D01*
X401777Y-4471873D01*
X390550Y-4481169D01*
X380593Y-4491786D01*
X372059Y-4503572D01*
X365048Y-4516323D01*
X359664Y-4529836D01*
X356057Y-4543958D01*
X354228Y-4558385D01*
X354228Y-4572914D01*
X356057Y-4587341D01*
X359664Y-4601464D01*
X365048Y-4614976D01*
X372059Y-4627727D01*
X380593Y-4639513D01*
X390550Y-4650130D01*
X401777Y-4659426D01*
X414070Y-4667199D01*
X427228Y-4673396D01*
X441096Y-4677918D01*
X455371Y-4680610D01*
G37*
G36*
X3757371Y-4681524D02*
G01*
X3771900Y-4680610D01*
X3786225Y-4677918D01*
X3800043Y-4673396D01*
X3813200Y-4667199D01*
X3825494Y-4659426D01*
X3836720Y-4650130D01*
X3846677Y-4639513D01*
X3855262Y-4627727D01*
X3862273Y-4614976D01*
X3867607Y-4601464D01*
X3871214Y-4587392D01*
X3873042Y-4572914D01*
X3873042Y-4558385D01*
X3871214Y-4543958D01*
X3867607Y-4529836D01*
X3862273Y-4516323D01*
X3855262Y-4503572D01*
X3846677Y-4491786D01*
X3836720Y-4481169D01*
X3825494Y-4471924D01*
X3813200Y-4464100D01*
X3800043Y-4457903D01*
X3786225Y-4453432D01*
X3771900Y-4450689D01*
X3757371Y-4449775D01*
X3742893Y-4450689D01*
X3728567Y-4453432D01*
X3714750Y-4457903D01*
X3701542Y-4464100D01*
X3689299Y-4471924D01*
X3678072Y-4481169D01*
X3668115Y-4491786D01*
X3659530Y-4503572D01*
X3652520Y-4516323D01*
X3647186Y-4529836D01*
X3643579Y-4543958D01*
X3641750Y-4558385D01*
X3641750Y-4572914D01*
X3643579Y-4587392D01*
X3647186Y-4601464D01*
X3652520Y-4614976D01*
X3659530Y-4627727D01*
X3668115Y-4639513D01*
X3678072Y-4650130D01*
X3689299Y-4659426D01*
X3701542Y-4667199D01*
X3714750Y-4673396D01*
X3728567Y-4677918D01*
X3742893Y-4680610D01*
G37*
G36*
X4579264Y-4681524D02*
G01*
X4593793Y-4680610D01*
X4608068Y-4677918D01*
X4621936Y-4673396D01*
X4635093Y-4667199D01*
X4647387Y-4659426D01*
X4658614Y-4650130D01*
X4668570Y-4639513D01*
X4677105Y-4627727D01*
X4684115Y-4614976D01*
X4689500Y-4601464D01*
X4693107Y-4587392D01*
X4694936Y-4572914D01*
X4694936Y-4558385D01*
X4693107Y-4543958D01*
X4689500Y-4529836D01*
X4684115Y-4516323D01*
X4677105Y-4503572D01*
X4668570Y-4491786D01*
X4658614Y-4481169D01*
X4647387Y-4471924D01*
X4635093Y-4464100D01*
X4621936Y-4457903D01*
X4608068Y-4453432D01*
X4593793Y-4450689D01*
X4579264Y-4449775D01*
X4564735Y-4450689D01*
X4550460Y-4453432D01*
X4536592Y-4457903D01*
X4523435Y-4464100D01*
X4511141Y-4471924D01*
X4499914Y-4481169D01*
X4489958Y-4491786D01*
X4481423Y-4503572D01*
X4474413Y-4516323D01*
X4469028Y-4529836D01*
X4465421Y-4543958D01*
X4463592Y-4558385D01*
X4463592Y-4572914D01*
X4465421Y-4587392D01*
X4469028Y-4601464D01*
X4474413Y-4614976D01*
X4481423Y-4627727D01*
X4489958Y-4639513D01*
X4499914Y-4650130D01*
X4511141Y-4659426D01*
X4523435Y-4667199D01*
X4536592Y-4673396D01*
X4550460Y-4677918D01*
X4564735Y-4680610D01*
G37*
G36*
X2113635Y-4681524D02*
G01*
X2128164Y-4680610D01*
X2142490Y-4677918D01*
X2156307Y-4673396D01*
X2169464Y-4667199D01*
X2181758Y-4659426D01*
X2192985Y-4650130D01*
X2202942Y-4639513D01*
X2211476Y-4627727D01*
X2218486Y-4614976D01*
X2223871Y-4601464D01*
X2227478Y-4587341D01*
X2229307Y-4572914D01*
X2229307Y-4558385D01*
X2227478Y-4543958D01*
X2223871Y-4529836D01*
X2218486Y-4516323D01*
X2211476Y-4503572D01*
X2202942Y-4491786D01*
X2192985Y-4481169D01*
X2181758Y-4471873D01*
X2169464Y-4464100D01*
X2156307Y-4457903D01*
X2142490Y-4453382D01*
X2128164Y-4450689D01*
X2113635Y-4449775D01*
X2099106Y-4450689D01*
X2084832Y-4453382D01*
X2071014Y-4457903D01*
X2057806Y-4464100D01*
X2045512Y-4471873D01*
X2034336Y-4481169D01*
X2024380Y-4491786D01*
X2015794Y-4503572D01*
X2008784Y-4516323D01*
X2003450Y-4529836D01*
X1999792Y-4543958D01*
X1998014Y-4558385D01*
X1998014Y-4572914D01*
X1999792Y-4587341D01*
X2003450Y-4601464D01*
X2008784Y-4614976D01*
X2015794Y-4627727D01*
X2024380Y-4639513D01*
X2034336Y-4650130D01*
X2045512Y-4659426D01*
X2057806Y-4667199D01*
X2071014Y-4673396D01*
X2084832Y-4677918D01*
X2099106Y-4680610D01*
G37*
G36*
X6223000Y-4681524D02*
G01*
X6237528Y-4680610D01*
X6251803Y-4677918D01*
X6265672Y-4673396D01*
X6278829Y-4667199D01*
X6291122Y-4659426D01*
X6302349Y-4650130D01*
X6312306Y-4639513D01*
X6320840Y-4627727D01*
X6327851Y-4614976D01*
X6333236Y-4601464D01*
X6336842Y-4587341D01*
X6338671Y-4572914D01*
X6338671Y-4558385D01*
X6336842Y-4543958D01*
X6333236Y-4529836D01*
X6327851Y-4516323D01*
X6320840Y-4503572D01*
X6312306Y-4491786D01*
X6302349Y-4481169D01*
X6291122Y-4471873D01*
X6278829Y-4464100D01*
X6265672Y-4457903D01*
X6251803Y-4453382D01*
X6237528Y-4450689D01*
X6223000Y-4449775D01*
X6208471Y-4450689D01*
X6194196Y-4453382D01*
X6180328Y-4457903D01*
X6167170Y-4464100D01*
X6154877Y-4471873D01*
X6143650Y-4481169D01*
X6133693Y-4491786D01*
X6125159Y-4503572D01*
X6118148Y-4516323D01*
X6112764Y-4529836D01*
X6109157Y-4543958D01*
X6107328Y-4558385D01*
X6107328Y-4572914D01*
X6109157Y-4587341D01*
X6112764Y-4601464D01*
X6118148Y-4614976D01*
X6125159Y-4627727D01*
X6133693Y-4639513D01*
X6143650Y-4650130D01*
X6154877Y-4659426D01*
X6167170Y-4667199D01*
X6180328Y-4673396D01*
X6194196Y-4677918D01*
X6208471Y-4680610D01*
G37*
G36*
X5401106Y-4681524D02*
G01*
X5415635Y-4680610D01*
X5429961Y-4677918D01*
X5443778Y-4673396D01*
X5456936Y-4667199D01*
X5469229Y-4659426D01*
X5480456Y-4650130D01*
X5490413Y-4639513D01*
X5498947Y-4627727D01*
X5505958Y-4614976D01*
X5511342Y-4601464D01*
X5514949Y-4587392D01*
X5516778Y-4572914D01*
X5516778Y-4558385D01*
X5514949Y-4543958D01*
X5511342Y-4529836D01*
X5505958Y-4516323D01*
X5498947Y-4503572D01*
X5490413Y-4491786D01*
X5480456Y-4481169D01*
X5469229Y-4471924D01*
X5456936Y-4464100D01*
X5443778Y-4457903D01*
X5429961Y-4453432D01*
X5415635Y-4450689D01*
X5401106Y-4449775D01*
X5386578Y-4450689D01*
X5372303Y-4453432D01*
X5358485Y-4457903D01*
X5345277Y-4464100D01*
X5332984Y-4471924D01*
X5321808Y-4481169D01*
X5311851Y-4491786D01*
X5303266Y-4503572D01*
X5296255Y-4516323D01*
X5290921Y-4529836D01*
X5287264Y-4543958D01*
X5285486Y-4558385D01*
X5285486Y-4572914D01*
X5287264Y-4587392D01*
X5290921Y-4601464D01*
X5296255Y-4614976D01*
X5303266Y-4627727D01*
X5311851Y-4639513D01*
X5321808Y-4650130D01*
X5332984Y-4659426D01*
X5345277Y-4667199D01*
X5358485Y-4673396D01*
X5372303Y-4677918D01*
X5386578Y-4680610D01*
G37*
G36*
X2935528Y-4681524D02*
G01*
X2950057Y-4680610D01*
X2964332Y-4677918D01*
X2978200Y-4673396D01*
X2991358Y-4667199D01*
X3003651Y-4659426D01*
X3014878Y-4650130D01*
X3024835Y-4639513D01*
X3033369Y-4627727D01*
X3040380Y-4614976D01*
X3045764Y-4601464D01*
X3049371Y-4587341D01*
X3051200Y-4572914D01*
X3051200Y-4558385D01*
X3049371Y-4543958D01*
X3045764Y-4529836D01*
X3040380Y-4516323D01*
X3033369Y-4503572D01*
X3024835Y-4491786D01*
X3014878Y-4481169D01*
X3003651Y-4471873D01*
X2991358Y-4464100D01*
X2978200Y-4457903D01*
X2964332Y-4453382D01*
X2950057Y-4450689D01*
X2935528Y-4449775D01*
X2921000Y-4450689D01*
X2906725Y-4453382D01*
X2892856Y-4457903D01*
X2879699Y-4464100D01*
X2867406Y-4471873D01*
X2856179Y-4481169D01*
X2846222Y-4491786D01*
X2837688Y-4503572D01*
X2830677Y-4516323D01*
X2825292Y-4529836D01*
X2821686Y-4543958D01*
X2819857Y-4558385D01*
X2819857Y-4572914D01*
X2821686Y-4587341D01*
X2825292Y-4601464D01*
X2830677Y-4614976D01*
X2837688Y-4627727D01*
X2846222Y-4639513D01*
X2856179Y-4650130D01*
X2867406Y-4659426D01*
X2879699Y-4667199D01*
X2892856Y-4673396D01*
X2906725Y-4677918D01*
X2921000Y-4680610D01*
G37*
G36*
X267258Y-4669332D02*
G01*
X271729Y-4667199D01*
X284022Y-4659426D01*
X295249Y-4650130D01*
X305206Y-4639513D01*
X313740Y-4627727D01*
X319633Y-4617008D01*
X267258Y-4617008D01*
G37*
G36*
X986434Y-4669332D02*
G01*
X986434Y-4617008D01*
X934008Y-4617008D01*
X939952Y-4627727D01*
X948486Y-4639513D01*
X958443Y-4650130D01*
X969670Y-4659426D01*
X981964Y-4667199D01*
G37*
G36*
X1089101Y-4669332D02*
G01*
X1093622Y-4667199D01*
X1105916Y-4659426D01*
X1117092Y-4650130D01*
X1127048Y-4639513D01*
X1135634Y-4627727D01*
X1141526Y-4617008D01*
X1089101Y-4617008D01*
G37*
G36*
X164541Y-4669332D02*
G01*
X164541Y-4617008D01*
X112166Y-4617008D01*
X118059Y-4627727D01*
X126593Y-4639513D01*
X136550Y-4650130D01*
X147777Y-4659426D01*
X160070Y-4667199D01*
G37*
G36*
X1808276Y-4669332D02*
G01*
X1808276Y-4617008D01*
X1755902Y-4617008D01*
X1761794Y-4627727D01*
X1770380Y-4639513D01*
X1780336Y-4650130D01*
X1791512Y-4659426D01*
X1803806Y-4667199D01*
G37*
G36*
X3452063Y-4669332D02*
G01*
X3452063Y-4617008D01*
X3399637Y-4617008D01*
X3405530Y-4627727D01*
X3414115Y-4639513D01*
X3424072Y-4650130D01*
X3435299Y-4659426D01*
X3447542Y-4667199D01*
G37*
G36*
X4376623Y-4669332D02*
G01*
X4381093Y-4667199D01*
X4393387Y-4659426D01*
X4404614Y-4650130D01*
X4414570Y-4639513D01*
X4423105Y-4627727D01*
X4428998Y-4617008D01*
X4376623Y-4617008D01*
G37*
G36*
X4273905Y-4669332D02*
G01*
X4273905Y-4617008D01*
X4221480Y-4617008D01*
X4227423Y-4627727D01*
X4235958Y-4639513D01*
X4245914Y-4650130D01*
X4257141Y-4659426D01*
X4269435Y-4667199D01*
G37*
G36*
X5917641Y-4669332D02*
G01*
X5917641Y-4617008D01*
X5865266Y-4617008D01*
X5871159Y-4627727D01*
X5879693Y-4639513D01*
X5889650Y-4650130D01*
X5900877Y-4659426D01*
X5913170Y-4667199D01*
G37*
G36*
X6020358Y-4669332D02*
G01*
X6024829Y-4667199D01*
X6037122Y-4659426D01*
X6048349Y-4650130D01*
X6058306Y-4639513D01*
X6066840Y-4627727D01*
X6072733Y-4617008D01*
X6020358Y-4617008D01*
G37*
G36*
X1910994Y-4669332D02*
G01*
X1915464Y-4667199D01*
X1927758Y-4659426D01*
X1938985Y-4650130D01*
X1948942Y-4639513D01*
X1957476Y-4627727D01*
X1963420Y-4617008D01*
X1910994Y-4617008D01*
G37*
G36*
X2630170Y-4669332D02*
G01*
X2630170Y-4617008D01*
X2577795Y-4617008D01*
X2583688Y-4627727D01*
X2592222Y-4639513D01*
X2602179Y-4650130D01*
X2613406Y-4659426D01*
X2625699Y-4667199D01*
G37*
G36*
X2732887Y-4669332D02*
G01*
X2737358Y-4667199D01*
X2749651Y-4659426D01*
X2760878Y-4650130D01*
X2770835Y-4639513D01*
X2779369Y-4627727D01*
X2785262Y-4617008D01*
X2732887Y-4617008D01*
G37*
G36*
X5198465Y-4669332D02*
G01*
X5202936Y-4667199D01*
X5215229Y-4659426D01*
X5226456Y-4650130D01*
X5236413Y-4639513D01*
X5244947Y-4627727D01*
X5250891Y-4617008D01*
X5198465Y-4617008D01*
G37*
G36*
X5095748Y-4669332D02*
G01*
X5095748Y-4617008D01*
X5043373Y-4617008D01*
X5049266Y-4627727D01*
X5057851Y-4639513D01*
X5067808Y-4650130D01*
X5078984Y-4659426D01*
X5091277Y-4667199D01*
G37*
G36*
X3554729Y-4669332D02*
G01*
X3559200Y-4667199D01*
X3571494Y-4659426D01*
X3582720Y-4650130D01*
X3592677Y-4639513D01*
X3601262Y-4627727D01*
X3607155Y-4617008D01*
X3554729Y-4617008D01*
G37*
G36*
X934008Y-4514291D02*
G01*
X986434Y-4514291D01*
X986434Y-4461967D01*
X981964Y-4464100D01*
X969670Y-4471873D01*
X958443Y-4481169D01*
X948486Y-4491786D01*
X939952Y-4503572D01*
G37*
G36*
X1089101Y-4514291D02*
G01*
X1141526Y-4514291D01*
X1135634Y-4503572D01*
X1127048Y-4491786D01*
X1117092Y-4481169D01*
X1105916Y-4471873D01*
X1093622Y-4464100D01*
X1089101Y-4461967D01*
G37*
G36*
X267258Y-4514291D02*
G01*
X319633Y-4514291D01*
X313740Y-4503572D01*
X305206Y-4491786D01*
X295249Y-4481169D01*
X284022Y-4471873D01*
X271729Y-4464100D01*
X267258Y-4461967D01*
G37*
G36*
X1755902Y-4514291D02*
G01*
X1808276Y-4514291D01*
X1808276Y-4461967D01*
X1803806Y-4464100D01*
X1791512Y-4471873D01*
X1780336Y-4481169D01*
X1770380Y-4491786D01*
X1761794Y-4503572D01*
G37*
G36*
X112166Y-4514291D02*
G01*
X164541Y-4514291D01*
X164541Y-4461967D01*
X160070Y-4464100D01*
X147777Y-4471873D01*
X136550Y-4481169D01*
X126593Y-4491786D01*
X118059Y-4503572D01*
G37*
G36*
X3399637Y-4514291D02*
G01*
X3452063Y-4514291D01*
X3452063Y-4462018D01*
X3447542Y-4464100D01*
X3435299Y-4471924D01*
X3424072Y-4481169D01*
X3414115Y-4491786D01*
X3405530Y-4503572D01*
G37*
G36*
X4376623Y-4514291D02*
G01*
X4428998Y-4514291D01*
X4423105Y-4503572D01*
X4414570Y-4491786D01*
X4404614Y-4481169D01*
X4393387Y-4471924D01*
X4381093Y-4464100D01*
X4376623Y-4462018D01*
G37*
G36*
X4221480Y-4514291D02*
G01*
X4273905Y-4514291D01*
X4273905Y-4462018D01*
X4269435Y-4464100D01*
X4257141Y-4471924D01*
X4245914Y-4481169D01*
X4235958Y-4491786D01*
X4227423Y-4503572D01*
G37*
G36*
X5865266Y-4514291D02*
G01*
X5917641Y-4514291D01*
X5917641Y-4461967D01*
X5913170Y-4464100D01*
X5900877Y-4471873D01*
X5889650Y-4481169D01*
X5879693Y-4491786D01*
X5871159Y-4503572D01*
G37*
G36*
X1910994Y-4514291D02*
G01*
X1963420Y-4514291D01*
X1957476Y-4503572D01*
X1948942Y-4491786D01*
X1938985Y-4481169D01*
X1927758Y-4471873D01*
X1915464Y-4464100D01*
X1910994Y-4461967D01*
G37*
G36*
X2577795Y-4514291D02*
G01*
X2630170Y-4514291D01*
X2630170Y-4461967D01*
X2625699Y-4464100D01*
X2613406Y-4471873D01*
X2602179Y-4481169D01*
X2592222Y-4491786D01*
X2583688Y-4503572D01*
G37*
G36*
X6020358Y-4514291D02*
G01*
X6072733Y-4514291D01*
X6066840Y-4503572D01*
X6058306Y-4491786D01*
X6048349Y-4481169D01*
X6037122Y-4471873D01*
X6024829Y-4464100D01*
X6020358Y-4461967D01*
G37*
G36*
X5198465Y-4514291D02*
G01*
X5250891Y-4514291D01*
X5244947Y-4503572D01*
X5236413Y-4491786D01*
X5226456Y-4481169D01*
X5215229Y-4471924D01*
X5202936Y-4464100D01*
X5198465Y-4462018D01*
G37*
G36*
X5043373Y-4514291D02*
G01*
X5095748Y-4514291D01*
X5095748Y-4462018D01*
X5091277Y-4464100D01*
X5078984Y-4471924D01*
X5067808Y-4481169D01*
X5057851Y-4491786D01*
X5049266Y-4503572D01*
G37*
G36*
X2732887Y-4514291D02*
G01*
X2785262Y-4514291D01*
X2779369Y-4503572D01*
X2770835Y-4491786D01*
X2760878Y-4481169D01*
X2749651Y-4471873D01*
X2737358Y-4464100D01*
X2732887Y-4461967D01*
G37*
G36*
X3554729Y-4514291D02*
G01*
X3607155Y-4514291D01*
X3601262Y-4503572D01*
X3592677Y-4491786D01*
X3582720Y-4481169D01*
X3571494Y-4471924D01*
X3559200Y-4464100D01*
X3554729Y-4462018D01*
G37*
G36*
X469900Y-4233875D02*
G01*
X484428Y-4232960D01*
X498703Y-4230268D01*
X512572Y-4225747D01*
X525729Y-4219549D01*
X538022Y-4211777D01*
X549249Y-4202480D01*
X559206Y-4191863D01*
X567740Y-4180078D01*
X574751Y-4167327D01*
X580136Y-4153814D01*
X583742Y-4139742D01*
X585571Y-4125264D01*
X585571Y-4110736D01*
X583742Y-4096308D01*
X580136Y-4082186D01*
X574751Y-4068673D01*
X567740Y-4055922D01*
X559206Y-4044137D01*
X549249Y-4033520D01*
X538022Y-4024274D01*
X525729Y-4016451D01*
X512572Y-4010253D01*
X498703Y-4005783D01*
X484428Y-4003040D01*
X469900Y-4002125D01*
X455371Y-4003040D01*
X441096Y-4005783D01*
X427228Y-4010253D01*
X414070Y-4016451D01*
X401777Y-4024274D01*
X390550Y-4033520D01*
X380593Y-4044137D01*
X372059Y-4055922D01*
X365048Y-4068673D01*
X359664Y-4082186D01*
X356057Y-4096308D01*
X354228Y-4110736D01*
X354228Y-4125264D01*
X356057Y-4139742D01*
X359664Y-4153814D01*
X365048Y-4167327D01*
X372059Y-4180078D01*
X380593Y-4191863D01*
X390550Y-4202480D01*
X401777Y-4211777D01*
X414070Y-4219549D01*
X427228Y-4225747D01*
X441096Y-4230268D01*
X455371Y-4232960D01*
G37*
G36*
X1291793Y-4233875D02*
G01*
X1306271Y-4232960D01*
X1320596Y-4230268D01*
X1334414Y-4225747D01*
X1347622Y-4219549D01*
X1359865Y-4211777D01*
X1371092Y-4202480D01*
X1381048Y-4191863D01*
X1389634Y-4180078D01*
X1396644Y-4167327D01*
X1401978Y-4153814D01*
X1405585Y-4139742D01*
X1407414Y-4125264D01*
X1407414Y-4110736D01*
X1405585Y-4096308D01*
X1401978Y-4082186D01*
X1396644Y-4068673D01*
X1389634Y-4055922D01*
X1381048Y-4044137D01*
X1371092Y-4033520D01*
X1359865Y-4024274D01*
X1347622Y-4016451D01*
X1334414Y-4010253D01*
X1320596Y-4005783D01*
X1306271Y-4003040D01*
X1291793Y-4002125D01*
X1277264Y-4003040D01*
X1262938Y-4005783D01*
X1249121Y-4010253D01*
X1235964Y-4016451D01*
X1223670Y-4024274D01*
X1212443Y-4033520D01*
X1202486Y-4044137D01*
X1193901Y-4055922D01*
X1186891Y-4068673D01*
X1181557Y-4082186D01*
X1177950Y-4096308D01*
X1176121Y-4110736D01*
X1176121Y-4125264D01*
X1177950Y-4139742D01*
X1181557Y-4153814D01*
X1186891Y-4167327D01*
X1193901Y-4180078D01*
X1202486Y-4191863D01*
X1212443Y-4202480D01*
X1223670Y-4211777D01*
X1235964Y-4219549D01*
X1249121Y-4225747D01*
X1262938Y-4230268D01*
X1277264Y-4232960D01*
G37*
G36*
X2113635Y-4233875D02*
G01*
X2128164Y-4232960D01*
X2142439Y-4230268D01*
X2156307Y-4225747D01*
X2169464Y-4219549D01*
X2181758Y-4211777D01*
X2192985Y-4202480D01*
X2202942Y-4191863D01*
X2211476Y-4180078D01*
X2218486Y-4167327D01*
X2223871Y-4153814D01*
X2227478Y-4139742D01*
X2229307Y-4125264D01*
X2229307Y-4110736D01*
X2227478Y-4096308D01*
X2223871Y-4082186D01*
X2218486Y-4068673D01*
X2211476Y-4055922D01*
X2202942Y-4044137D01*
X2192985Y-4033520D01*
X2181758Y-4024274D01*
X2169464Y-4016451D01*
X2156307Y-4010253D01*
X2142439Y-4005783D01*
X2128164Y-4003040D01*
X2113635Y-4002125D01*
X2099106Y-4003040D01*
X2084832Y-4005783D01*
X2070963Y-4010253D01*
X2057806Y-4016451D01*
X2045512Y-4024274D01*
X2034336Y-4033520D01*
X2024329Y-4044137D01*
X2015794Y-4055922D01*
X2008784Y-4068673D01*
X2003450Y-4082186D01*
X1999792Y-4096308D01*
X1997964Y-4110736D01*
X1997964Y-4125264D01*
X1999792Y-4139742D01*
X2003450Y-4153814D01*
X2008784Y-4167327D01*
X2015794Y-4180078D01*
X2024329Y-4191863D01*
X2034336Y-4202480D01*
X2045512Y-4211777D01*
X2057806Y-4219549D01*
X2070963Y-4225747D01*
X2084832Y-4230268D01*
X2099106Y-4232960D01*
G37*
G36*
X4579264Y-4233875D02*
G01*
X4593793Y-4232960D01*
X4608068Y-4230268D01*
X4621936Y-4225747D01*
X4635093Y-4219549D01*
X4647387Y-4211777D01*
X4658563Y-4202480D01*
X4668570Y-4191863D01*
X4677105Y-4180078D01*
X4684115Y-4167327D01*
X4689449Y-4153814D01*
X4693107Y-4139742D01*
X4694936Y-4125264D01*
X4694936Y-4110736D01*
X4693107Y-4096308D01*
X4689449Y-4082186D01*
X4684115Y-4068673D01*
X4677105Y-4055922D01*
X4668570Y-4044137D01*
X4658563Y-4033520D01*
X4647387Y-4024274D01*
X4635093Y-4016451D01*
X4621936Y-4010253D01*
X4608068Y-4005783D01*
X4593793Y-4003040D01*
X4579264Y-4002125D01*
X4564735Y-4003040D01*
X4550460Y-4005783D01*
X4536592Y-4010253D01*
X4523435Y-4016451D01*
X4511141Y-4024274D01*
X4499914Y-4033520D01*
X4489958Y-4044137D01*
X4481423Y-4055922D01*
X4474413Y-4068673D01*
X4469028Y-4082186D01*
X4465421Y-4096308D01*
X4463592Y-4110736D01*
X4463592Y-4125264D01*
X4465421Y-4139742D01*
X4469028Y-4153814D01*
X4474413Y-4167327D01*
X4481423Y-4180078D01*
X4489958Y-4191863D01*
X4499914Y-4202480D01*
X4511141Y-4211777D01*
X4523435Y-4219549D01*
X4536592Y-4225747D01*
X4550460Y-4230268D01*
X4564735Y-4232960D01*
G37*
G36*
X3757371Y-4233875D02*
G01*
X3771900Y-4232960D01*
X3786225Y-4230268D01*
X3800043Y-4225747D01*
X3813200Y-4219549D01*
X3825494Y-4211777D01*
X3836720Y-4202480D01*
X3846677Y-4191863D01*
X3855212Y-4180078D01*
X3862222Y-4167327D01*
X3867607Y-4153814D01*
X3871214Y-4139742D01*
X3873042Y-4125264D01*
X3873042Y-4110736D01*
X3871214Y-4096308D01*
X3867607Y-4082186D01*
X3862222Y-4068673D01*
X3855212Y-4055922D01*
X3846677Y-4044137D01*
X3836720Y-4033520D01*
X3825494Y-4024274D01*
X3813200Y-4016451D01*
X3800043Y-4010253D01*
X3786225Y-4005783D01*
X3771900Y-4003040D01*
X3757371Y-4002125D01*
X3742842Y-4003040D01*
X3728567Y-4005783D01*
X3714750Y-4010253D01*
X3701542Y-4016451D01*
X3689248Y-4024274D01*
X3678072Y-4033520D01*
X3668115Y-4044137D01*
X3659530Y-4055922D01*
X3652520Y-4068673D01*
X3647186Y-4082186D01*
X3643528Y-4096308D01*
X3641750Y-4110736D01*
X3641750Y-4125264D01*
X3643528Y-4139742D01*
X3647186Y-4153814D01*
X3652520Y-4167327D01*
X3659530Y-4180078D01*
X3668115Y-4191863D01*
X3678072Y-4202480D01*
X3689248Y-4211777D01*
X3701542Y-4219549D01*
X3714750Y-4225747D01*
X3728567Y-4230268D01*
X3742842Y-4232960D01*
G37*
G36*
X6223000Y-4233875D02*
G01*
X6237528Y-4232960D01*
X6251803Y-4230268D01*
X6265672Y-4225747D01*
X6278829Y-4219549D01*
X6291122Y-4211777D01*
X6302349Y-4202480D01*
X6312306Y-4191863D01*
X6320840Y-4180078D01*
X6327851Y-4167327D01*
X6333236Y-4153814D01*
X6336842Y-4139742D01*
X6338671Y-4125264D01*
X6338671Y-4110736D01*
X6336842Y-4096308D01*
X6333236Y-4082186D01*
X6327851Y-4068673D01*
X6320840Y-4055922D01*
X6312306Y-4044137D01*
X6302349Y-4033520D01*
X6291122Y-4024274D01*
X6278829Y-4016451D01*
X6265672Y-4010253D01*
X6251803Y-4005783D01*
X6237528Y-4003040D01*
X6223000Y-4002125D01*
X6208471Y-4003040D01*
X6194196Y-4005783D01*
X6180328Y-4010253D01*
X6167170Y-4016451D01*
X6154877Y-4024274D01*
X6143650Y-4033520D01*
X6133693Y-4044137D01*
X6125159Y-4055922D01*
X6118148Y-4068673D01*
X6112764Y-4082186D01*
X6109157Y-4096308D01*
X6107328Y-4110736D01*
X6107328Y-4125264D01*
X6109157Y-4139742D01*
X6112764Y-4153814D01*
X6118148Y-4167327D01*
X6125159Y-4180078D01*
X6133693Y-4191863D01*
X6143650Y-4202480D01*
X6154877Y-4211777D01*
X6167170Y-4219549D01*
X6180328Y-4225747D01*
X6194196Y-4230268D01*
X6208471Y-4232960D01*
G37*
G36*
X2935528Y-4233875D02*
G01*
X2950057Y-4232960D01*
X2964332Y-4230268D01*
X2978150Y-4225747D01*
X2991358Y-4219549D01*
X3003651Y-4211777D01*
X3014827Y-4202480D01*
X3024784Y-4191863D01*
X3033369Y-4180078D01*
X3040380Y-4167327D01*
X3045714Y-4153814D01*
X3049371Y-4139742D01*
X3051149Y-4125264D01*
X3051149Y-4110736D01*
X3049371Y-4096308D01*
X3045714Y-4082186D01*
X3040380Y-4068673D01*
X3033369Y-4055922D01*
X3024784Y-4044137D01*
X3014827Y-4033520D01*
X3003651Y-4024274D01*
X2991358Y-4016451D01*
X2978150Y-4010253D01*
X2964332Y-4005783D01*
X2950057Y-4003040D01*
X2935528Y-4002125D01*
X2921000Y-4003040D01*
X2906674Y-4005783D01*
X2892856Y-4010253D01*
X2879699Y-4016451D01*
X2867406Y-4024274D01*
X2856179Y-4033520D01*
X2846222Y-4044137D01*
X2837688Y-4055922D01*
X2830677Y-4068673D01*
X2825292Y-4082186D01*
X2821686Y-4096308D01*
X2819857Y-4110736D01*
X2819857Y-4125264D01*
X2821686Y-4139742D01*
X2825292Y-4153814D01*
X2830677Y-4167327D01*
X2837688Y-4180078D01*
X2846222Y-4191863D01*
X2856179Y-4202480D01*
X2867406Y-4211777D01*
X2879699Y-4219549D01*
X2892856Y-4225747D01*
X2906674Y-4230268D01*
X2921000Y-4232960D01*
G37*
G36*
X5401106Y-4233875D02*
G01*
X5415635Y-4232960D01*
X5429961Y-4230268D01*
X5443778Y-4225747D01*
X5456936Y-4219549D01*
X5469229Y-4211777D01*
X5480456Y-4202480D01*
X5490413Y-4191863D01*
X5498998Y-4180078D01*
X5506008Y-4167327D01*
X5511342Y-4153814D01*
X5514949Y-4139742D01*
X5516778Y-4125264D01*
X5516778Y-4110736D01*
X5514949Y-4096308D01*
X5511342Y-4082186D01*
X5506008Y-4068673D01*
X5498998Y-4055922D01*
X5490413Y-4044137D01*
X5480456Y-4033520D01*
X5469229Y-4024274D01*
X5456936Y-4016451D01*
X5443778Y-4010253D01*
X5429961Y-4005783D01*
X5415635Y-4003040D01*
X5401106Y-4002125D01*
X5386628Y-4003040D01*
X5372303Y-4005783D01*
X5358485Y-4010253D01*
X5345277Y-4016451D01*
X5333034Y-4024274D01*
X5321808Y-4033520D01*
X5311851Y-4044137D01*
X5303266Y-4055922D01*
X5296255Y-4068673D01*
X5290921Y-4082186D01*
X5287314Y-4096308D01*
X5285486Y-4110736D01*
X5285486Y-4125264D01*
X5287314Y-4139742D01*
X5290921Y-4153814D01*
X5296255Y-4167327D01*
X5303266Y-4180078D01*
X5311851Y-4191863D01*
X5321808Y-4202480D01*
X5333034Y-4211777D01*
X5345277Y-4219549D01*
X5358485Y-4225747D01*
X5372303Y-4230268D01*
X5386628Y-4232960D01*
G37*
G36*
X7186980Y-4039666D02*
G01*
X7200798Y-4038752D01*
X7214412Y-4036060D01*
X7227519Y-4031589D01*
X7239965Y-4025493D01*
X7251446Y-4017772D01*
X7261859Y-4008628D01*
X7271003Y-3998214D01*
X7278725Y-3986733D01*
X7284821Y-3974287D01*
X7289292Y-3961180D01*
X7291984Y-3947617D01*
X7292898Y-3933799D01*
X7291984Y-3919982D01*
X7289292Y-3906367D01*
X7284821Y-3893261D01*
X7278725Y-3880815D01*
X7271003Y-3869334D01*
X7261859Y-3858920D01*
X7251446Y-3849776D01*
X7239965Y-3842054D01*
X7227519Y-3835958D01*
X7214412Y-3831488D01*
X7200798Y-3828796D01*
X7186980Y-3827881D01*
X7173163Y-3828796D01*
X7159599Y-3831488D01*
X7146493Y-3835958D01*
X7134047Y-3842054D01*
X7122566Y-3849776D01*
X7112152Y-3858920D01*
X7103008Y-3869334D01*
X7095286Y-3880815D01*
X7089190Y-3893261D01*
X7084720Y-3906367D01*
X7082028Y-3919982D01*
X7081113Y-3933799D01*
X7082028Y-3947617D01*
X7084720Y-3961180D01*
X7089190Y-3974287D01*
X7095286Y-3986733D01*
X7103008Y-3998214D01*
X7112152Y-4008628D01*
X7122566Y-4017772D01*
X7134047Y-4025493D01*
X7146493Y-4031589D01*
X7159599Y-4036060D01*
X7173163Y-4038752D01*
G37*
G36*
X6836968Y-4039666D02*
G01*
X6850786Y-4038752D01*
X6864400Y-4036060D01*
X6877507Y-4031589D01*
X6889953Y-4025493D01*
X6901434Y-4017772D01*
X6911848Y-4008628D01*
X6920992Y-3998214D01*
X6928713Y-3986733D01*
X6934809Y-3974287D01*
X6939280Y-3961180D01*
X6941972Y-3947617D01*
X6942886Y-3933799D01*
X6941972Y-3919982D01*
X6939280Y-3906367D01*
X6934809Y-3893261D01*
X6928713Y-3880815D01*
X6920992Y-3869334D01*
X6911848Y-3858920D01*
X6901434Y-3849776D01*
X6889953Y-3842054D01*
X6881266Y-3837787D01*
X6878269Y-3835552D01*
X6876288Y-3832351D01*
X6875627Y-3828694D01*
X6875627Y-3609898D01*
X6876389Y-3606037D01*
X6878574Y-3602736D01*
X7234936Y-3246323D01*
X7238390Y-3244088D01*
X7242454Y-3243376D01*
X7247128Y-3244646D01*
X7260996Y-3249168D01*
X7275271Y-3251860D01*
X7289800Y-3252774D01*
X7304328Y-3251860D01*
X7318603Y-3249168D01*
X7332472Y-3244646D01*
X7345629Y-3238449D01*
X7357922Y-3230676D01*
X7369149Y-3221380D01*
X7379106Y-3210763D01*
X7387640Y-3198977D01*
X7394651Y-3186226D01*
X7400036Y-3172714D01*
X7403642Y-3158591D01*
X7405471Y-3144164D01*
X7405471Y-3129635D01*
X7403642Y-3115208D01*
X7400036Y-3101086D01*
X7394651Y-3087573D01*
X7387640Y-3074822D01*
X7379106Y-3063036D01*
X7369149Y-3052419D01*
X7357922Y-3043123D01*
X7345629Y-3035350D01*
X7332472Y-3029153D01*
X7318603Y-3024632D01*
X7304328Y-3021939D01*
X7289800Y-3021025D01*
X7275271Y-3021939D01*
X7260996Y-3024632D01*
X7247128Y-3029153D01*
X7233970Y-3035350D01*
X7221677Y-3043123D01*
X7210450Y-3052419D01*
X7200493Y-3063036D01*
X7191959Y-3074822D01*
X7184948Y-3087573D01*
X7179564Y-3101086D01*
X7175957Y-3115208D01*
X7174128Y-3129635D01*
X7174128Y-3144164D01*
X7175957Y-3158591D01*
X7179564Y-3172714D01*
X7182764Y-3180689D01*
X7183475Y-3184550D01*
X7182662Y-3188360D01*
X7180478Y-3191611D01*
X6810044Y-3562045D01*
X6804914Y-3568293D01*
X6801358Y-3574948D01*
X6799173Y-3582162D01*
X6798411Y-3590188D01*
X6798411Y-3828694D01*
X6797700Y-3832351D01*
X6795719Y-3835552D01*
X6792722Y-3837787D01*
X6784035Y-3842054D01*
X6772554Y-3849776D01*
X6762140Y-3858920D01*
X6752996Y-3869334D01*
X6745274Y-3880815D01*
X6739178Y-3893261D01*
X6734708Y-3906367D01*
X6732016Y-3919982D01*
X6731101Y-3933799D01*
X6732016Y-3947617D01*
X6734708Y-3961180D01*
X6739178Y-3974287D01*
X6745274Y-3986733D01*
X6752996Y-3998214D01*
X6762140Y-4008628D01*
X6772554Y-4017772D01*
X6784035Y-4025493D01*
X6796481Y-4031589D01*
X6809587Y-4036060D01*
X6823151Y-4038752D01*
G37*
G36*
X904240Y-3533901D02*
G01*
X5975197Y-3533901D01*
X5983224Y-3533089D01*
X5990437Y-3530904D01*
X5997143Y-3527348D01*
X6003340Y-3522218D01*
X6168136Y-3357422D01*
X6171590Y-3355187D01*
X6175654Y-3354476D01*
X6180328Y-3355746D01*
X6194196Y-3360216D01*
X6208471Y-3362960D01*
X6223000Y-3363874D01*
X6237528Y-3362960D01*
X6251803Y-3360216D01*
X6265672Y-3355746D01*
X6278829Y-3349548D01*
X6291122Y-3341725D01*
X6302349Y-3332479D01*
X6312306Y-3321862D01*
X6320840Y-3310077D01*
X6327851Y-3297326D01*
X6333236Y-3283813D01*
X6336842Y-3269691D01*
X6338671Y-3255264D01*
X6338671Y-3240735D01*
X6336842Y-3226257D01*
X6333236Y-3212185D01*
X6327851Y-3198672D01*
X6320840Y-3185922D01*
X6312306Y-3174136D01*
X6302349Y-3163519D01*
X6291122Y-3154222D01*
X6278829Y-3146450D01*
X6265672Y-3140252D01*
X6251803Y-3135731D01*
X6237528Y-3133039D01*
X6223000Y-3132124D01*
X6208471Y-3133039D01*
X6194196Y-3135731D01*
X6180328Y-3140252D01*
X6167170Y-3146450D01*
X6154877Y-3154222D01*
X6143650Y-3163519D01*
X6133693Y-3174136D01*
X6125159Y-3185922D01*
X6118148Y-3198672D01*
X6112764Y-3212185D01*
X6109157Y-3226257D01*
X6107328Y-3240735D01*
X6107328Y-3255264D01*
X6109157Y-3269691D01*
X6112764Y-3283813D01*
X6115964Y-3291789D01*
X6116675Y-3295650D01*
X6115862Y-3299460D01*
X6113678Y-3302711D01*
X5962700Y-3453688D01*
X5959398Y-3455924D01*
X5955487Y-3456686D01*
X5271566Y-3456686D01*
X5267706Y-3455924D01*
X5264404Y-3453688D01*
X5262168Y-3450437D01*
X5261406Y-3446526D01*
X5262168Y-3442614D01*
X5264404Y-3439363D01*
X5346293Y-3357422D01*
X5349748Y-3355187D01*
X5353812Y-3354476D01*
X5358485Y-3355746D01*
X5372303Y-3360216D01*
X5386628Y-3362960D01*
X5401106Y-3363874D01*
X5415635Y-3362960D01*
X5429961Y-3360216D01*
X5443778Y-3355746D01*
X5456936Y-3349548D01*
X5469229Y-3341725D01*
X5480456Y-3332479D01*
X5490413Y-3321862D01*
X5498998Y-3310077D01*
X5506008Y-3297326D01*
X5511342Y-3283813D01*
X5514949Y-3269691D01*
X5516778Y-3255264D01*
X5516778Y-3240735D01*
X5514949Y-3226257D01*
X5511342Y-3212185D01*
X5506008Y-3198672D01*
X5498998Y-3185922D01*
X5490413Y-3174136D01*
X5480456Y-3163519D01*
X5469229Y-3154222D01*
X5456936Y-3146450D01*
X5443778Y-3140252D01*
X5429961Y-3135731D01*
X5415635Y-3133039D01*
X5401106Y-3132124D01*
X5386628Y-3133039D01*
X5372303Y-3135731D01*
X5358485Y-3140252D01*
X5345277Y-3146450D01*
X5333034Y-3154222D01*
X5321808Y-3163519D01*
X5311851Y-3174136D01*
X5303266Y-3185922D01*
X5296255Y-3198672D01*
X5290921Y-3212185D01*
X5287314Y-3226257D01*
X5285486Y-3240735D01*
X5285486Y-3255264D01*
X5287314Y-3269691D01*
X5290921Y-3283813D01*
X5294071Y-3291789D01*
X5294782Y-3295650D01*
X5294020Y-3299460D01*
X5291836Y-3302711D01*
X5184902Y-3409645D01*
X5181600Y-3411829D01*
X5177688Y-3412642D01*
X4493768Y-3412642D01*
X4489907Y-3411829D01*
X4486605Y-3409645D01*
X4484370Y-3406343D01*
X4483608Y-3402482D01*
X4484370Y-3398570D01*
X4486605Y-3395268D01*
X4524400Y-3357422D01*
X4527854Y-3355187D01*
X4531918Y-3354476D01*
X4536592Y-3355746D01*
X4550460Y-3360216D01*
X4564735Y-3362960D01*
X4579264Y-3363874D01*
X4593793Y-3362960D01*
X4608068Y-3360216D01*
X4621936Y-3355746D01*
X4635093Y-3349548D01*
X4647387Y-3341725D01*
X4658563Y-3332479D01*
X4668570Y-3321862D01*
X4677105Y-3310077D01*
X4684115Y-3297326D01*
X4689449Y-3283813D01*
X4693107Y-3269691D01*
X4694936Y-3255264D01*
X4694936Y-3240735D01*
X4693107Y-3226257D01*
X4689449Y-3212185D01*
X4684115Y-3198672D01*
X4677105Y-3185922D01*
X4668570Y-3174136D01*
X4658563Y-3163519D01*
X4647387Y-3154222D01*
X4635093Y-3146450D01*
X4621936Y-3140252D01*
X4608068Y-3135731D01*
X4593793Y-3133039D01*
X4579264Y-3132124D01*
X4564735Y-3133039D01*
X4550460Y-3135731D01*
X4536592Y-3140252D01*
X4523435Y-3146450D01*
X4511141Y-3154222D01*
X4499914Y-3163519D01*
X4489958Y-3174136D01*
X4481423Y-3185922D01*
X4474413Y-3198672D01*
X4469028Y-3212185D01*
X4465421Y-3226257D01*
X4463592Y-3240735D01*
X4463592Y-3255264D01*
X4465421Y-3269691D01*
X4469028Y-3283813D01*
X4472228Y-3291789D01*
X4472940Y-3295650D01*
X4472127Y-3299460D01*
X4469942Y-3302711D01*
X4404106Y-3368548D01*
X4400804Y-3370783D01*
X4396892Y-3371545D01*
X3811930Y-3371545D01*
X3808120Y-3370783D01*
X3804818Y-3368649D01*
X3802634Y-3365449D01*
X3801770Y-3361639D01*
X3802430Y-3357829D01*
X3804462Y-3354476D01*
X3807612Y-3352190D01*
X3813200Y-3349548D01*
X3825494Y-3341725D01*
X3836720Y-3332479D01*
X3846677Y-3321862D01*
X3855212Y-3310077D01*
X3862222Y-3297326D01*
X3867607Y-3283813D01*
X3871214Y-3269691D01*
X3873042Y-3255264D01*
X3873042Y-3240735D01*
X3871214Y-3226257D01*
X3867607Y-3212185D01*
X3862222Y-3198672D01*
X3855212Y-3185922D01*
X3846677Y-3174136D01*
X3836720Y-3163519D01*
X3825494Y-3154222D01*
X3813200Y-3146450D01*
X3800043Y-3140252D01*
X3786225Y-3135731D01*
X3771900Y-3133039D01*
X3757371Y-3132124D01*
X3742842Y-3133039D01*
X3728567Y-3135731D01*
X3714750Y-3140252D01*
X3701542Y-3146450D01*
X3689248Y-3154222D01*
X3678072Y-3163519D01*
X3668115Y-3174136D01*
X3659530Y-3185922D01*
X3652520Y-3198672D01*
X3647186Y-3212185D01*
X3643528Y-3226257D01*
X3641750Y-3240735D01*
X3641750Y-3255264D01*
X3643528Y-3269691D01*
X3647186Y-3283813D01*
X3650335Y-3291789D01*
X3651046Y-3295650D01*
X3650234Y-3299460D01*
X3648049Y-3302711D01*
X3626307Y-3324504D01*
X3623005Y-3326688D01*
X3619093Y-3327501D01*
X3040684Y-3327501D01*
X3036366Y-3326485D01*
X3032861Y-3323793D01*
X3030829Y-3319830D01*
X3030677Y-3315411D01*
X3032455Y-3311347D01*
X3033369Y-3310077D01*
X3040380Y-3297326D01*
X3045714Y-3283813D01*
X3049371Y-3269691D01*
X3051149Y-3255264D01*
X3051149Y-3240735D01*
X3049371Y-3226257D01*
X3045714Y-3212185D01*
X3040380Y-3198672D01*
X3033369Y-3185922D01*
X3024784Y-3174136D01*
X3014827Y-3163519D01*
X3003651Y-3154222D01*
X2991358Y-3146450D01*
X2978150Y-3140252D01*
X2964332Y-3135731D01*
X2950057Y-3133039D01*
X2935528Y-3132124D01*
X2921000Y-3133039D01*
X2906674Y-3135731D01*
X2892856Y-3140252D01*
X2888183Y-3141522D01*
X2884119Y-3140811D01*
X2880664Y-3138576D01*
X2836113Y-3094024D01*
X2829915Y-3088894D01*
X2823210Y-3085338D01*
X2815996Y-3083153D01*
X2807970Y-3082391D01*
X2112213Y-3082391D01*
X2108098Y-3081528D01*
X2104694Y-3079089D01*
X2102561Y-3075482D01*
X2102104Y-3071317D01*
X2102967Y-3061411D01*
X2102104Y-3051454D01*
X2102561Y-3047339D01*
X2104694Y-3043732D01*
X2108098Y-3041294D01*
X2112213Y-3040430D01*
X4550918Y-3040430D01*
X4558385Y-3039719D01*
X4562805Y-3040227D01*
X4566564Y-3042615D01*
X4569917Y-3045917D01*
X4576114Y-3051048D01*
X4582820Y-3054604D01*
X4590034Y-3056788D01*
X4598060Y-3057601D01*
X6525768Y-3057601D01*
X6529679Y-3058363D01*
X6532981Y-3060598D01*
X6636258Y-3163824D01*
X6642455Y-3168954D01*
X6649161Y-3172510D01*
X6660286Y-3175812D01*
X6663283Y-3178048D01*
X6665214Y-3181197D01*
X6665874Y-3184855D01*
X6665874Y-3226308D01*
X6666585Y-3232658D01*
X6668516Y-3238093D01*
X6671614Y-3243021D01*
X6675678Y-3247085D01*
X6680606Y-3250184D01*
X6686042Y-3252114D01*
X6692392Y-3252825D01*
X6871208Y-3252825D01*
X6877558Y-3252114D01*
X6882993Y-3250184D01*
X6887921Y-3247085D01*
X6891985Y-3243021D01*
X6895084Y-3238093D01*
X6897014Y-3232658D01*
X6897725Y-3226308D01*
X6897725Y-3077921D01*
X6898487Y-3074060D01*
X6900672Y-3070758D01*
X6903974Y-3068574D01*
X6907885Y-3067761D01*
X6911746Y-3068574D01*
X6915048Y-3070758D01*
X6926478Y-3082188D01*
X6928662Y-3085439D01*
X6929475Y-3089249D01*
X6928764Y-3093110D01*
X6925564Y-3101086D01*
X6921957Y-3115208D01*
X6920128Y-3129635D01*
X6920128Y-3144164D01*
X6921957Y-3158591D01*
X6925564Y-3172714D01*
X6930948Y-3186226D01*
X6937959Y-3198977D01*
X6946493Y-3210763D01*
X6956450Y-3221380D01*
X6967677Y-3230676D01*
X6979970Y-3238449D01*
X6993128Y-3244646D01*
X7006996Y-3249168D01*
X7021271Y-3251860D01*
X7035800Y-3252774D01*
X7050328Y-3251860D01*
X7064603Y-3249168D01*
X7078472Y-3244646D01*
X7091629Y-3238449D01*
X7103922Y-3230676D01*
X7115149Y-3221380D01*
X7125106Y-3210763D01*
X7133640Y-3198977D01*
X7140651Y-3186226D01*
X7146036Y-3172714D01*
X7149642Y-3158591D01*
X7151471Y-3144164D01*
X7151471Y-3129635D01*
X7149642Y-3115208D01*
X7146036Y-3101086D01*
X7140651Y-3087573D01*
X7133640Y-3074822D01*
X7125106Y-3063036D01*
X7115149Y-3052419D01*
X7103922Y-3043123D01*
X7091629Y-3035350D01*
X7078472Y-3029153D01*
X7064603Y-3024632D01*
X7050328Y-3021939D01*
X7035800Y-3021025D01*
X7021271Y-3021939D01*
X7006996Y-3024632D01*
X6993128Y-3029153D01*
X6988454Y-3030423D01*
X6984390Y-3029712D01*
X6980936Y-3027476D01*
X6720535Y-2767076D01*
X6714337Y-2761945D01*
X6707631Y-2758389D01*
X6700418Y-2756204D01*
X6692392Y-2755392D01*
X6418529Y-2755392D01*
X6414770Y-2754680D01*
X6411569Y-2752648D01*
X6409334Y-2749550D01*
X6403949Y-2738170D01*
X6396177Y-2725877D01*
X6386880Y-2714650D01*
X6376263Y-2704693D01*
X6364478Y-2696159D01*
X6351727Y-2689148D01*
X6338214Y-2683764D01*
X6324142Y-2680157D01*
X6309664Y-2678328D01*
X6295136Y-2678328D01*
X6280708Y-2680157D01*
X6266586Y-2683764D01*
X6253073Y-2689148D01*
X6240322Y-2696159D01*
X6228537Y-2704693D01*
X6217920Y-2714650D01*
X6208674Y-2725877D01*
X6200851Y-2738170D01*
X6194653Y-2751328D01*
X6190183Y-2765196D01*
X6187440Y-2779471D01*
X6186525Y-2794000D01*
X6187440Y-2808528D01*
X6190183Y-2822803D01*
X6194653Y-2836672D01*
X6200851Y-2849829D01*
X6208674Y-2862122D01*
X6217920Y-2873349D01*
X6228537Y-2883306D01*
X6240322Y-2891840D01*
X6253073Y-2898851D01*
X6266586Y-2904236D01*
X6280708Y-2907842D01*
X6295136Y-2909671D01*
X6309664Y-2909671D01*
X6324142Y-2907842D01*
X6338214Y-2904236D01*
X6351727Y-2898851D01*
X6364478Y-2891840D01*
X6376263Y-2883306D01*
X6386880Y-2873349D01*
X6396177Y-2862122D01*
X6403949Y-2849829D01*
X6409334Y-2838450D01*
X6411569Y-2835351D01*
X6414770Y-2833319D01*
X6418529Y-2832608D01*
X6672681Y-2832608D01*
X6676593Y-2833370D01*
X6679895Y-2835605D01*
X6847941Y-3003651D01*
X6850125Y-3006953D01*
X6850938Y-3010814D01*
X6850125Y-3014726D01*
X6847941Y-3018028D01*
X6844639Y-3020212D01*
X6840778Y-3020974D01*
X6692392Y-3020974D01*
X6686042Y-3021685D01*
X6680606Y-3023616D01*
X6675678Y-3026714D01*
X6671614Y-3030778D01*
X6668516Y-3035706D01*
X6666585Y-3041142D01*
X6665874Y-3047492D01*
X6665874Y-3059785D01*
X6665112Y-3063646D01*
X6662928Y-3066948D01*
X6659625Y-3069132D01*
X6655714Y-3069945D01*
X6651853Y-3069132D01*
X6648551Y-3066948D01*
X6573621Y-2992069D01*
X6567424Y-2986938D01*
X6560718Y-2983382D01*
X6553504Y-2981198D01*
X6545478Y-2980385D01*
X5188102Y-2980385D01*
X5184292Y-2979674D01*
X5181092Y-2977591D01*
X5178856Y-2974441D01*
X5177942Y-2970682D01*
X5179060Y-2965196D01*
X5179822Y-2958896D01*
X5179822Y-2660294D01*
X5180584Y-2656382D01*
X5182768Y-2653131D01*
X5186070Y-2650896D01*
X5189982Y-2650134D01*
X5229707Y-2650134D01*
X5233619Y-2650896D01*
X5236921Y-2653131D01*
X5322976Y-2739136D01*
X5325211Y-2742590D01*
X5325922Y-2746654D01*
X5324652Y-2751328D01*
X5320131Y-2765196D01*
X5317439Y-2779471D01*
X5316524Y-2794000D01*
X5317439Y-2808528D01*
X5320131Y-2822803D01*
X5324652Y-2836672D01*
X5330850Y-2849829D01*
X5338622Y-2862122D01*
X5347919Y-2873349D01*
X5358536Y-2883306D01*
X5370322Y-2891840D01*
X5383072Y-2898851D01*
X5396585Y-2904236D01*
X5410657Y-2907842D01*
X5425135Y-2909671D01*
X5439664Y-2909671D01*
X5454091Y-2907842D01*
X5468213Y-2904236D01*
X5481726Y-2898851D01*
X5494477Y-2891840D01*
X5506262Y-2883306D01*
X5516880Y-2873349D01*
X5526125Y-2862122D01*
X5533948Y-2849829D01*
X5540146Y-2836672D01*
X5544616Y-2822803D01*
X5547360Y-2808528D01*
X5548274Y-2794000D01*
X5547360Y-2779471D01*
X5544616Y-2765196D01*
X5540146Y-2751328D01*
X5533948Y-2738170D01*
X5526125Y-2725877D01*
X5516880Y-2714650D01*
X5506262Y-2704693D01*
X5494477Y-2696159D01*
X5481726Y-2689148D01*
X5468213Y-2683764D01*
X5454091Y-2680157D01*
X5439664Y-2678328D01*
X5425135Y-2678328D01*
X5410657Y-2680157D01*
X5396585Y-2683764D01*
X5388610Y-2686964D01*
X5384749Y-2687675D01*
X5380939Y-2686862D01*
X5377688Y-2684678D01*
X5277561Y-2584602D01*
X5271363Y-2579471D01*
X5264658Y-2575915D01*
X5257444Y-2573731D01*
X5249418Y-2572918D01*
X5074412Y-2572918D01*
X5066385Y-2573731D01*
X5059172Y-2575915D01*
X5052466Y-2579471D01*
X5046624Y-2584246D01*
X5041849Y-2590088D01*
X5038293Y-2596794D01*
X5034991Y-2607970D01*
X5032756Y-2610916D01*
X5029606Y-2612847D01*
X5025948Y-2613558D01*
X4994452Y-2613558D01*
X4988153Y-2614269D01*
X4982667Y-2616149D01*
X4977790Y-2619248D01*
X4973675Y-2623362D01*
X4970627Y-2628239D01*
X4968697Y-2633726D01*
X4967986Y-2640025D01*
X4967986Y-2958896D01*
X4968697Y-2965196D01*
X4969814Y-2970682D01*
X4968951Y-2974441D01*
X4966716Y-2977591D01*
X4963464Y-2979674D01*
X4959705Y-2980385D01*
X4934102Y-2980385D01*
X4930292Y-2979674D01*
X4927092Y-2977591D01*
X4924856Y-2974441D01*
X4923942Y-2970682D01*
X4925060Y-2965196D01*
X4925822Y-2958896D01*
X4925822Y-2640025D01*
X4925060Y-2633726D01*
X4923180Y-2628239D01*
X4920081Y-2623362D01*
X4916017Y-2619248D01*
X4911090Y-2616149D01*
X4905654Y-2614269D01*
X4899304Y-2613558D01*
X4740452Y-2613558D01*
X4734153Y-2614269D01*
X4728667Y-2616149D01*
X4723790Y-2619248D01*
X4719675Y-2623362D01*
X4716627Y-2628239D01*
X4714697Y-2633726D01*
X4713986Y-2640025D01*
X4713986Y-2958896D01*
X4714697Y-2965196D01*
X4715814Y-2970682D01*
X4714951Y-2974441D01*
X4712716Y-2977591D01*
X4709464Y-2979674D01*
X4705705Y-2980385D01*
X4680102Y-2980385D01*
X4676292Y-2979674D01*
X4673092Y-2977591D01*
X4670856Y-2974441D01*
X4669942Y-2970682D01*
X4671110Y-2965196D01*
X4671822Y-2958896D01*
X4671822Y-2640025D01*
X4671110Y-2633726D01*
X4669180Y-2628239D01*
X4666081Y-2623362D01*
X4662017Y-2619248D01*
X4657090Y-2616149D01*
X4651654Y-2614269D01*
X4645304Y-2613558D01*
X4486452Y-2613558D01*
X4480153Y-2614269D01*
X4474667Y-2616149D01*
X4469790Y-2619248D01*
X4465675Y-2623362D01*
X4462627Y-2628239D01*
X4460697Y-2633726D01*
X4459986Y-2640025D01*
X4459986Y-2953054D01*
X4459224Y-2956966D01*
X4456988Y-2960217D01*
X4453686Y-2962452D01*
X4449826Y-2963214D01*
X4427982Y-2963214D01*
X4424070Y-2962452D01*
X4420768Y-2960217D01*
X4418584Y-2956966D01*
X4417822Y-2953054D01*
X4417822Y-2640025D01*
X4417110Y-2633726D01*
X4415180Y-2628239D01*
X4412081Y-2623362D01*
X4408017Y-2619248D01*
X4403090Y-2616149D01*
X4397654Y-2614269D01*
X4391304Y-2613558D01*
X4232452Y-2613558D01*
X4226153Y-2614269D01*
X4220667Y-2616149D01*
X4215790Y-2619248D01*
X4211675Y-2623362D01*
X4208627Y-2628239D01*
X4206697Y-2633726D01*
X4205986Y-2640025D01*
X4205986Y-2953054D01*
X4205224Y-2956966D01*
X4202988Y-2960217D01*
X4199686Y-2962452D01*
X4195826Y-2963214D01*
X4173982Y-2963214D01*
X4170070Y-2962452D01*
X4166768Y-2960217D01*
X4164584Y-2956966D01*
X4163822Y-2953054D01*
X4163822Y-2640025D01*
X4163110Y-2633726D01*
X4161180Y-2628239D01*
X4158081Y-2623362D01*
X4154017Y-2619248D01*
X4149090Y-2616149D01*
X4143654Y-2614269D01*
X4137304Y-2613558D01*
X3978452Y-2613558D01*
X3972153Y-2614269D01*
X3966667Y-2616149D01*
X3961790Y-2619248D01*
X3957675Y-2623362D01*
X3954627Y-2628239D01*
X3952697Y-2633726D01*
X3951986Y-2640025D01*
X3951986Y-2953054D01*
X3951224Y-2956966D01*
X3948988Y-2960217D01*
X3945686Y-2962452D01*
X3941826Y-2963214D01*
X3919982Y-2963214D01*
X3916070Y-2962452D01*
X3912768Y-2960217D01*
X3910584Y-2956966D01*
X3909822Y-2953054D01*
X3909822Y-2640025D01*
X3909110Y-2633726D01*
X3907180Y-2628239D01*
X3904081Y-2623362D01*
X3900017Y-2619248D01*
X3895090Y-2616149D01*
X3889654Y-2614269D01*
X3883304Y-2613558D01*
X3724452Y-2613558D01*
X3718153Y-2614269D01*
X3712667Y-2616149D01*
X3707790Y-2619248D01*
X3703675Y-2623362D01*
X3700627Y-2628239D01*
X3698697Y-2633726D01*
X3697986Y-2640025D01*
X3697986Y-2953054D01*
X3697224Y-2956966D01*
X3694988Y-2960217D01*
X3691686Y-2962452D01*
X3687826Y-2963214D01*
X3665982Y-2963214D01*
X3662070Y-2962452D01*
X3658768Y-2960217D01*
X3656584Y-2956966D01*
X3655822Y-2953054D01*
X3655822Y-2640025D01*
X3655110Y-2633726D01*
X3653180Y-2628239D01*
X3650081Y-2623362D01*
X3646017Y-2619248D01*
X3641090Y-2616149D01*
X3635654Y-2614269D01*
X3629304Y-2613558D01*
X3470452Y-2613558D01*
X3464153Y-2614269D01*
X3458667Y-2616149D01*
X3453790Y-2619248D01*
X3449675Y-2623362D01*
X3446627Y-2628239D01*
X3444697Y-2633726D01*
X3443986Y-2640025D01*
X3443986Y-2953054D01*
X3443224Y-2956966D01*
X3440988Y-2960217D01*
X3437686Y-2962452D01*
X3433826Y-2963214D01*
X3411982Y-2963214D01*
X3408070Y-2962452D01*
X3404768Y-2960217D01*
X3402584Y-2956966D01*
X3401822Y-2953054D01*
X3401822Y-2640025D01*
X3401110Y-2633726D01*
X3399180Y-2628239D01*
X3396081Y-2623362D01*
X3392017Y-2619248D01*
X3387090Y-2616149D01*
X3381654Y-2614269D01*
X3375304Y-2613558D01*
X3216452Y-2613558D01*
X3210153Y-2614269D01*
X3204667Y-2616149D01*
X3199790Y-2619248D01*
X3195675Y-2623362D01*
X3192627Y-2628239D01*
X3190697Y-2633726D01*
X3189986Y-2640025D01*
X3189986Y-2953054D01*
X3189224Y-2956966D01*
X3186988Y-2960217D01*
X3183737Y-2962452D01*
X3179826Y-2963214D01*
X3157982Y-2963214D01*
X3154070Y-2962452D01*
X3150768Y-2960217D01*
X3148584Y-2956966D01*
X3147822Y-2953054D01*
X3147822Y-2640025D01*
X3147110Y-2633726D01*
X3145180Y-2628239D01*
X3142081Y-2623362D01*
X3138017Y-2619248D01*
X3133090Y-2616149D01*
X3127654Y-2614269D01*
X3121304Y-2613558D01*
X2962452Y-2613558D01*
X2956153Y-2614269D01*
X2950667Y-2616149D01*
X2945790Y-2619248D01*
X2941675Y-2623362D01*
X2938627Y-2628239D01*
X2936697Y-2633726D01*
X2935986Y-2640025D01*
X2935986Y-2953054D01*
X2935224Y-2956966D01*
X2932988Y-2960217D01*
X2929737Y-2962452D01*
X2925826Y-2963214D01*
X2903982Y-2963214D01*
X2900070Y-2962452D01*
X2896768Y-2960217D01*
X2894584Y-2956966D01*
X2893822Y-2953054D01*
X2893822Y-2640025D01*
X2893110Y-2633726D01*
X2891180Y-2628239D01*
X2888081Y-2623362D01*
X2884017Y-2619248D01*
X2879090Y-2616149D01*
X2873654Y-2614269D01*
X2867304Y-2613558D01*
X2708452Y-2613558D01*
X2702153Y-2614269D01*
X2696667Y-2616149D01*
X2691790Y-2619248D01*
X2687675Y-2623362D01*
X2684627Y-2628239D01*
X2682697Y-2633726D01*
X2681986Y-2640025D01*
X2681986Y-2953054D01*
X2681224Y-2956966D01*
X2678988Y-2960217D01*
X2675737Y-2962452D01*
X2671826Y-2963214D01*
X2649982Y-2963214D01*
X2646070Y-2962452D01*
X2642768Y-2960217D01*
X2640584Y-2956966D01*
X2639822Y-2953054D01*
X2639822Y-2640025D01*
X2639110Y-2633726D01*
X2637180Y-2628239D01*
X2634081Y-2623362D01*
X2630017Y-2619248D01*
X2625090Y-2616149D01*
X2619654Y-2614269D01*
X2613304Y-2613558D01*
X2581859Y-2613558D01*
X2578201Y-2612847D01*
X2575052Y-2610916D01*
X2572816Y-2607970D01*
X2569514Y-2596794D01*
X2565958Y-2590088D01*
X2560828Y-2583891D01*
X2466797Y-2489809D01*
X2460548Y-2484678D01*
X2453894Y-2481122D01*
X2446680Y-2478938D01*
X2438654Y-2478176D01*
X239928Y-2478176D01*
X231902Y-2478938D01*
X224688Y-2481122D01*
X218033Y-2484678D01*
X211785Y-2489809D01*
X112877Y-2588768D01*
X107746Y-2594965D01*
X104190Y-2601671D01*
X102006Y-2608884D01*
X101193Y-2616911D01*
X101193Y-2972562D01*
X102006Y-2980588D01*
X104190Y-2987802D01*
X107746Y-2994456D01*
X112877Y-3000705D01*
X351282Y-3239109D01*
X353466Y-3242411D01*
X354228Y-3246272D01*
X354228Y-3255264D01*
X356057Y-3269691D01*
X359664Y-3283813D01*
X365048Y-3297326D01*
X372059Y-3310077D01*
X380593Y-3321862D01*
X390550Y-3332479D01*
X401777Y-3341725D01*
X414070Y-3349548D01*
X427228Y-3355746D01*
X441096Y-3360216D01*
X455371Y-3362960D01*
X469900Y-3363874D01*
X484428Y-3362960D01*
X498703Y-3360216D01*
X512572Y-3355746D01*
X525729Y-3349548D01*
X538022Y-3341725D01*
X549249Y-3332479D01*
X559206Y-3321862D01*
X567740Y-3310077D01*
X574751Y-3297326D01*
X580136Y-3283813D01*
X583742Y-3269691D01*
X585622Y-3254959D01*
X587146Y-3250692D01*
X590346Y-3247542D01*
X594614Y-3246120D01*
X599084Y-3246628D01*
X602843Y-3249015D01*
X876096Y-3522218D01*
X882294Y-3527348D01*
X889000Y-3530904D01*
X896213Y-3533089D01*
G37*
G36*
X5749848Y-2277618D02*
G01*
X5908751Y-2277618D01*
X5915050Y-2276906D01*
X5920536Y-2274976D01*
X5925413Y-2271928D01*
X5929528Y-2267813D01*
X5932576Y-2262936D01*
X5934506Y-2257450D01*
X5935218Y-2251151D01*
X5935218Y-2102764D01*
X5935980Y-2098852D01*
X5938215Y-2095550D01*
X5941466Y-2093366D01*
X5945378Y-2092604D01*
X5949238Y-2093366D01*
X5952540Y-2095550D01*
X5981700Y-2124659D01*
X5983782Y-2127758D01*
X5984646Y-2131415D01*
X5984138Y-2135124D01*
X5980988Y-2144268D01*
X5978296Y-2157882D01*
X5977382Y-2171700D01*
X5978296Y-2185517D01*
X5980988Y-2199081D01*
X5985459Y-2212238D01*
X5991606Y-2224633D01*
X5999276Y-2236165D01*
X6008420Y-2246579D01*
X6018834Y-2255723D01*
X6030366Y-2263394D01*
X6042761Y-2269540D01*
X6055868Y-2273960D01*
X6069482Y-2276703D01*
X6083300Y-2277567D01*
X6097117Y-2276703D01*
X6110681Y-2273960D01*
X6123838Y-2269540D01*
X6136233Y-2263394D01*
X6147765Y-2255723D01*
X6158179Y-2246579D01*
X6167323Y-2236165D01*
X6174994Y-2224633D01*
X6181140Y-2212238D01*
X6185560Y-2199081D01*
X6188303Y-2185517D01*
X6189218Y-2171700D01*
X6188303Y-2157882D01*
X6185560Y-2144268D01*
X6181140Y-2131161D01*
X6174994Y-2118766D01*
X6167323Y-2107234D01*
X6158179Y-2096820D01*
X6147765Y-2087676D01*
X6136233Y-2080006D01*
X6123838Y-2073859D01*
X6110681Y-2069388D01*
X6097117Y-2066696D01*
X6083300Y-2065782D01*
X6069482Y-2066696D01*
X6055868Y-2069388D01*
X6046724Y-2072487D01*
X6043015Y-2073046D01*
X6039358Y-2072182D01*
X6036259Y-2070100D01*
X5134559Y-1168349D01*
X5132324Y-1165047D01*
X5131562Y-1161186D01*
X5132324Y-1157274D01*
X5134559Y-1153972D01*
X5137861Y-1151788D01*
X5141722Y-1151026D01*
X5765800Y-1151026D01*
X5769660Y-1151788D01*
X5772962Y-1153972D01*
X5981700Y-1362659D01*
X5983782Y-1365758D01*
X5984646Y-1369415D01*
X5984138Y-1373124D01*
X5980988Y-1382268D01*
X5978296Y-1395882D01*
X5977382Y-1409700D01*
X5978296Y-1423517D01*
X5980988Y-1437081D01*
X5985459Y-1450238D01*
X5991606Y-1462633D01*
X5999276Y-1474165D01*
X6008420Y-1484579D01*
X6018834Y-1493723D01*
X6030366Y-1501394D01*
X6042761Y-1507540D01*
X6055868Y-1511960D01*
X6069482Y-1514703D01*
X6083300Y-1515567D01*
X6097117Y-1514703D01*
X6110681Y-1511960D01*
X6123838Y-1507540D01*
X6136233Y-1501394D01*
X6147765Y-1493723D01*
X6158179Y-1484579D01*
X6167323Y-1474165D01*
X6174994Y-1462633D01*
X6181140Y-1450238D01*
X6185560Y-1437081D01*
X6188303Y-1423517D01*
X6189218Y-1409700D01*
X6188303Y-1395882D01*
X6185560Y-1382268D01*
X6181140Y-1369161D01*
X6174994Y-1356766D01*
X6167323Y-1345234D01*
X6158179Y-1334820D01*
X6147765Y-1325676D01*
X6136233Y-1318006D01*
X6123838Y-1311859D01*
X6110681Y-1307388D01*
X6097117Y-1304696D01*
X6083300Y-1303782D01*
X6069482Y-1304696D01*
X6055868Y-1307388D01*
X6046724Y-1310487D01*
X6043015Y-1311046D01*
X6039358Y-1310182D01*
X6036259Y-1308100D01*
X5813653Y-1085443D01*
X5807405Y-1080312D01*
X5800750Y-1076756D01*
X5793536Y-1074572D01*
X5785510Y-1073810D01*
X5142839Y-1073810D01*
X5138928Y-1072997D01*
X5135626Y-1070813D01*
X5090668Y-1025804D01*
X5088432Y-1022553D01*
X5087670Y-1018641D01*
X5088432Y-1014730D01*
X5090668Y-1011478D01*
X5093970Y-1009243D01*
X5097830Y-1008481D01*
X6131255Y-1008481D01*
X6135166Y-1009243D01*
X6138468Y-1011478D01*
X6489700Y-1362659D01*
X6491782Y-1365758D01*
X6492646Y-1369415D01*
X6492138Y-1373124D01*
X6488988Y-1382268D01*
X6486296Y-1395882D01*
X6485382Y-1409700D01*
X6486296Y-1423517D01*
X6488988Y-1437081D01*
X6493459Y-1450238D01*
X6499606Y-1462633D01*
X6507276Y-1474165D01*
X6516420Y-1484579D01*
X6526834Y-1493723D01*
X6538366Y-1501394D01*
X6550761Y-1507540D01*
X6563868Y-1511960D01*
X6577482Y-1514703D01*
X6591300Y-1515567D01*
X6605117Y-1514703D01*
X6618681Y-1511960D01*
X6631838Y-1507540D01*
X6644233Y-1501394D01*
X6645706Y-1500428D01*
X6649770Y-1498854D01*
X6654088Y-1499108D01*
X6657949Y-1501140D01*
X6660591Y-1504645D01*
X6661505Y-1508861D01*
X6661505Y-2042668D01*
X6660743Y-2046579D01*
X6658508Y-2049881D01*
X6638340Y-2070100D01*
X6635242Y-2072182D01*
X6631584Y-2073046D01*
X6627875Y-2072538D01*
X6618681Y-2069388D01*
X6605117Y-2066696D01*
X6591300Y-2065782D01*
X6577482Y-2066696D01*
X6563868Y-2069388D01*
X6550761Y-2073859D01*
X6538366Y-2080006D01*
X6526834Y-2087676D01*
X6516420Y-2096820D01*
X6507276Y-2107234D01*
X6499606Y-2118766D01*
X6493459Y-2131161D01*
X6488988Y-2144268D01*
X6486296Y-2157882D01*
X6485382Y-2171700D01*
X6486296Y-2185517D01*
X6488988Y-2199081D01*
X6493459Y-2212238D01*
X6499606Y-2224633D01*
X6507276Y-2236165D01*
X6516420Y-2246579D01*
X6526834Y-2255723D01*
X6538366Y-2263394D01*
X6550761Y-2269540D01*
X6563868Y-2273960D01*
X6577482Y-2276703D01*
X6591300Y-2277567D01*
X6605117Y-2276703D01*
X6618681Y-2273960D01*
X6631838Y-2269540D01*
X6644233Y-2263394D01*
X6655765Y-2255723D01*
X6666179Y-2246579D01*
X6675323Y-2236165D01*
X6682994Y-2224633D01*
X6689140Y-2212238D01*
X6693560Y-2199081D01*
X6696303Y-2185517D01*
X6697218Y-2171700D01*
X6696303Y-2157882D01*
X6693560Y-2144268D01*
X6690461Y-2135124D01*
X6689953Y-2131415D01*
X6690817Y-2127758D01*
X6692900Y-2124659D01*
X6727037Y-2090521D01*
X6732168Y-2084324D01*
X6735724Y-2077618D01*
X6737908Y-2070404D01*
X6738721Y-2062378D01*
X6738721Y-1362456D01*
X6737908Y-1354429D01*
X6735724Y-1347216D01*
X6732168Y-1340510D01*
X6727037Y-1334312D01*
X5916777Y-524052D01*
X5910580Y-518922D01*
X5903874Y-515366D01*
X5896660Y-513181D01*
X5888634Y-512368D01*
X4101490Y-512368D01*
X4093464Y-513181D01*
X4086250Y-515366D01*
X4079544Y-518922D01*
X4073347Y-524052D01*
X4030979Y-566420D01*
X4025849Y-572617D01*
X4022293Y-579323D01*
X4018991Y-590448D01*
X4016756Y-593394D01*
X4013606Y-595376D01*
X4009948Y-596036D01*
X3978452Y-596036D01*
X3972153Y-596747D01*
X3966667Y-598678D01*
X3961790Y-601776D01*
X3957675Y-605840D01*
X3954627Y-610768D01*
X3952697Y-616204D01*
X3951986Y-622503D01*
X3951986Y-925728D01*
X3951224Y-929589D01*
X3948988Y-932891D01*
X3945686Y-935075D01*
X3941826Y-935888D01*
X3919982Y-935888D01*
X3916070Y-935075D01*
X3912768Y-932891D01*
X3910584Y-929589D01*
X3909822Y-925728D01*
X3909822Y-622503D01*
X3909110Y-616204D01*
X3907180Y-610768D01*
X3904081Y-605840D01*
X3900017Y-601776D01*
X3895090Y-598678D01*
X3889654Y-596747D01*
X3883304Y-596036D01*
X3881018Y-596036D01*
X3877157Y-595274D01*
X3873855Y-593090D01*
X3871671Y-589788D01*
X3870858Y-585876D01*
X3871671Y-582015D01*
X3873855Y-578713D01*
X4004665Y-447903D01*
X4007967Y-445719D01*
X4011828Y-444957D01*
X6292291Y-444957D01*
X6296152Y-445719D01*
X6299454Y-447903D01*
X6301079Y-449529D01*
X6309106Y-455117D01*
X6317996Y-459282D01*
X6327495Y-461822D01*
X6337300Y-462686D01*
X6347104Y-461822D01*
X6356604Y-459282D01*
X6365494Y-455117D01*
X6373520Y-449529D01*
X6380480Y-442569D01*
X6386118Y-434492D01*
X6390284Y-425602D01*
X6392824Y-416102D01*
X6393688Y-406349D01*
X6392824Y-396544D01*
X6390284Y-387045D01*
X6386118Y-378155D01*
X6380480Y-370078D01*
X6373520Y-363118D01*
X6365494Y-357530D01*
X6356604Y-353364D01*
X6347104Y-350824D01*
X6337300Y-349961D01*
X6327495Y-350824D01*
X6317996Y-353364D01*
X6309106Y-357530D01*
X6301079Y-363118D01*
X6299454Y-364744D01*
X6296152Y-366928D01*
X6292291Y-367741D01*
X3992118Y-367741D01*
X3984091Y-368503D01*
X3976878Y-370687D01*
X3970223Y-374243D01*
X3963974Y-379374D01*
X3776979Y-566420D01*
X3771849Y-572617D01*
X3768293Y-579323D01*
X3764991Y-590448D01*
X3762756Y-593394D01*
X3759606Y-595376D01*
X3755948Y-596036D01*
X3724452Y-596036D01*
X3718153Y-596747D01*
X3712667Y-598678D01*
X3707790Y-601776D01*
X3703675Y-605840D01*
X3700627Y-610768D01*
X3698697Y-616204D01*
X3697986Y-622503D01*
X3697986Y-925728D01*
X3697224Y-929589D01*
X3694988Y-932891D01*
X3691686Y-935075D01*
X3687826Y-935888D01*
X3665982Y-935888D01*
X3662070Y-935075D01*
X3658768Y-932891D01*
X3656584Y-929589D01*
X3655822Y-925728D01*
X3655822Y-630478D01*
X3656329Y-627278D01*
X3657803Y-624382D01*
X3660140Y-622147D01*
X3666642Y-617575D01*
X3673601Y-610616D01*
X3679240Y-602589D01*
X3683406Y-593699D01*
X3685946Y-584200D01*
X3686810Y-574395D01*
X3685946Y-564591D01*
X3683406Y-555091D01*
X3679240Y-546201D01*
X3673601Y-538175D01*
X3666642Y-531215D01*
X3658615Y-525576D01*
X3649726Y-521411D01*
X3640226Y-518871D01*
X3630422Y-518007D01*
X3620617Y-518871D01*
X3611118Y-521411D01*
X3602228Y-525576D01*
X3594201Y-531215D01*
X3592576Y-532790D01*
X3589274Y-535025D01*
X3585413Y-535787D01*
X2554071Y-535787D01*
X2546045Y-536600D01*
X2538831Y-538784D01*
X2532126Y-542340D01*
X2525928Y-547471D01*
X2506980Y-566420D01*
X2501849Y-572617D01*
X2498293Y-579323D01*
X2494991Y-590448D01*
X2492756Y-593394D01*
X2489606Y-595376D01*
X2485948Y-596036D01*
X2454452Y-596036D01*
X2448153Y-596747D01*
X2442667Y-598678D01*
X2437790Y-601776D01*
X2433675Y-605840D01*
X2430627Y-610768D01*
X2428697Y-616204D01*
X2427986Y-622503D01*
X2427986Y-923442D01*
X2427224Y-927353D01*
X2424988Y-930605D01*
X2421737Y-932840D01*
X2417826Y-933602D01*
X2395982Y-933602D01*
X2392070Y-932840D01*
X2388768Y-930605D01*
X2386584Y-927353D01*
X2385822Y-923442D01*
X2385822Y-622503D01*
X2385110Y-616204D01*
X2383180Y-610768D01*
X2380081Y-605840D01*
X2376017Y-601776D01*
X2371090Y-598678D01*
X2365654Y-596747D01*
X2359304Y-596036D01*
X2327859Y-596036D01*
X2324201Y-595376D01*
X2321052Y-593394D01*
X2318816Y-590448D01*
X2315514Y-579323D01*
X2311958Y-572617D01*
X2307183Y-566775D01*
X2301341Y-562000D01*
X2294636Y-558444D01*
X2287422Y-556260D01*
X2279396Y-555447D01*
X2197912Y-555447D01*
X2194052Y-554685D01*
X2190750Y-552450D01*
X2189124Y-550875D01*
X2181098Y-545236D01*
X2172208Y-541070D01*
X2162708Y-538530D01*
X2152904Y-537667D01*
X2143099Y-538530D01*
X2133600Y-541070D01*
X2124710Y-545236D01*
X2116683Y-550875D01*
X2109724Y-557834D01*
X2104085Y-565861D01*
X2099919Y-574751D01*
X2097379Y-584250D01*
X2097176Y-586790D01*
X2096160Y-590397D01*
X2093925Y-593394D01*
X2090724Y-595376D01*
X2087067Y-596036D01*
X1946452Y-596036D01*
X1940153Y-596747D01*
X1934667Y-598678D01*
X1929790Y-601776D01*
X1925675Y-605840D01*
X1922627Y-610768D01*
X1920697Y-616204D01*
X1919986Y-622503D01*
X1919986Y-923442D01*
X1919224Y-927353D01*
X1916988Y-930605D01*
X1913737Y-932840D01*
X1909825Y-933602D01*
X1887982Y-933602D01*
X1884070Y-932840D01*
X1880768Y-930605D01*
X1878584Y-927353D01*
X1877822Y-923442D01*
X1877822Y-622503D01*
X1877110Y-616204D01*
X1875180Y-610768D01*
X1872081Y-605840D01*
X1868017Y-601776D01*
X1863089Y-598678D01*
X1857654Y-596747D01*
X1851304Y-596036D01*
X1692452Y-596036D01*
X1686153Y-596747D01*
X1680667Y-598678D01*
X1675790Y-601776D01*
X1671675Y-605840D01*
X1668627Y-610768D01*
X1666697Y-616204D01*
X1665986Y-622503D01*
X1665986Y-923442D01*
X1665224Y-927353D01*
X1662988Y-930605D01*
X1659737Y-932840D01*
X1655825Y-933602D01*
X1633982Y-933602D01*
X1630070Y-932840D01*
X1626768Y-930605D01*
X1624584Y-927353D01*
X1623822Y-923442D01*
X1623822Y-622503D01*
X1623110Y-616204D01*
X1621180Y-610768D01*
X1618081Y-605840D01*
X1614017Y-601776D01*
X1609090Y-598678D01*
X1603654Y-596747D01*
X1597304Y-596036D01*
X1566672Y-596036D01*
X1562760Y-595274D01*
X1559509Y-593090D01*
X1557274Y-589788D01*
X1556512Y-585876D01*
X1556512Y-436829D01*
X1557070Y-433476D01*
X1558696Y-430530D01*
X1561185Y-428243D01*
X1566164Y-425094D01*
X1576578Y-416306D01*
X1585722Y-406146D01*
X1593443Y-394919D01*
X1597406Y-387096D01*
X1599641Y-384149D01*
X1602790Y-382168D01*
X1606448Y-381508D01*
X1758899Y-381508D01*
X1762760Y-382270D01*
X1766062Y-384454D01*
X1775714Y-400659D01*
X1784197Y-411378D01*
X1794002Y-420878D01*
X1804974Y-428955D01*
X1816912Y-435508D01*
X1829663Y-440385D01*
X1842922Y-443585D01*
X1856486Y-444906D01*
X1870100Y-444449D01*
X1883562Y-442214D01*
X1896567Y-438150D01*
X1908962Y-432409D01*
X1920443Y-425094D01*
X1930857Y-416306D01*
X1940001Y-406146D01*
X1947722Y-394919D01*
X1953869Y-382778D01*
X1958339Y-369874D01*
X1961083Y-356514D01*
X1961997Y-342900D01*
X1961083Y-329285D01*
X1958339Y-315925D01*
X1953869Y-303022D01*
X1947722Y-290880D01*
X1943455Y-284632D01*
X1941779Y-280568D01*
X1942033Y-276199D01*
X1944065Y-272288D01*
X1947519Y-269646D01*
X1951837Y-268732D01*
X2756916Y-268732D01*
X2760776Y-269494D01*
X2764078Y-271678D01*
X2791104Y-298704D01*
X2793136Y-301599D01*
X2794050Y-305054D01*
X2793695Y-308610D01*
X2789834Y-322580D01*
X2788056Y-336092D01*
X2788056Y-349707D01*
X2789885Y-363220D01*
X2793441Y-376377D01*
X2798775Y-388924D01*
X2805734Y-400659D01*
X2814167Y-411378D01*
X2823972Y-420878D01*
X2834944Y-428955D01*
X2846933Y-435508D01*
X2859633Y-440385D01*
X2872943Y-443585D01*
X2886506Y-444906D01*
X2900121Y-444449D01*
X2913583Y-442214D01*
X2926588Y-438150D01*
X2938983Y-432409D01*
X2950464Y-425094D01*
X2960878Y-416306D01*
X2970022Y-406146D01*
X2977743Y-394919D01*
X2983890Y-382778D01*
X2988360Y-369874D01*
X2991053Y-356514D01*
X2991967Y-342900D01*
X2991053Y-329285D01*
X2988360Y-315925D01*
X2983890Y-303022D01*
X2977743Y-290880D01*
X2970022Y-279654D01*
X2960878Y-269494D01*
X2950464Y-260705D01*
X2938983Y-253390D01*
X2926588Y-247650D01*
X2913583Y-243586D01*
X2900121Y-241350D01*
X2886506Y-240893D01*
X2872943Y-242214D01*
X2859633Y-245414D01*
X2856687Y-246532D01*
X2852877Y-247192D01*
X2849067Y-246430D01*
X2845866Y-244246D01*
X2804769Y-203149D01*
X2798521Y-198018D01*
X2791866Y-194462D01*
X2784652Y-192278D01*
X2776626Y-191516D01*
X1452270Y-191516D01*
X1444244Y-192278D01*
X1437030Y-194462D01*
X1430324Y-198018D01*
X1424127Y-203149D01*
X1236980Y-390296D01*
X1231849Y-396544D01*
X1228293Y-403199D01*
X1226108Y-410413D01*
X1225296Y-418439D01*
X1225296Y-585876D01*
X1224534Y-589788D01*
X1222298Y-593090D01*
X1219047Y-595274D01*
X1215136Y-596036D01*
X1184452Y-596036D01*
X1178153Y-596747D01*
X1172667Y-598678D01*
X1167790Y-601776D01*
X1163675Y-605840D01*
X1160627Y-610768D01*
X1158697Y-616204D01*
X1157986Y-622503D01*
X1157986Y-923442D01*
X1157224Y-927353D01*
X1154988Y-930605D01*
X1151737Y-932840D01*
X1147826Y-933602D01*
X1125982Y-933602D01*
X1122070Y-932840D01*
X1118768Y-930605D01*
X1116584Y-927353D01*
X1115822Y-923442D01*
X1115822Y-622503D01*
X1115110Y-616204D01*
X1113180Y-610768D01*
X1110081Y-605840D01*
X1106017Y-601776D01*
X1101090Y-598678D01*
X1095654Y-596747D01*
X1089304Y-596036D01*
X930452Y-596036D01*
X924153Y-596747D01*
X918667Y-598678D01*
X913790Y-601776D01*
X909675Y-605840D01*
X906627Y-610768D01*
X904697Y-616204D01*
X903986Y-622503D01*
X903986Y-923442D01*
X903224Y-927353D01*
X900988Y-930605D01*
X897737Y-932840D01*
X893826Y-933602D01*
X871982Y-933602D01*
X868070Y-932840D01*
X864768Y-930605D01*
X862584Y-927353D01*
X861821Y-923442D01*
X861821Y-622503D01*
X861110Y-616204D01*
X859180Y-610768D01*
X856081Y-605840D01*
X852017Y-601776D01*
X847090Y-598678D01*
X841654Y-596747D01*
X835304Y-596036D01*
X803859Y-596036D01*
X800201Y-595376D01*
X797052Y-593394D01*
X794816Y-590448D01*
X791514Y-579323D01*
X787958Y-572617D01*
X783183Y-566775D01*
X777341Y-562000D01*
X770636Y-558444D01*
X763422Y-556260D01*
X755396Y-555447D01*
X746963Y-555447D01*
X743051Y-554685D01*
X739749Y-552450D01*
X574192Y-386892D01*
X572058Y-383794D01*
X571246Y-380136D01*
X571804Y-376377D01*
X574040Y-369874D01*
X576783Y-356514D01*
X577697Y-342900D01*
X576783Y-329285D01*
X574040Y-315925D01*
X569569Y-303022D01*
X563422Y-290880D01*
X555701Y-279654D01*
X546557Y-269494D01*
X536143Y-260705D01*
X524662Y-253390D01*
X512267Y-247650D01*
X499262Y-243586D01*
X485800Y-241350D01*
X472185Y-240893D01*
X458622Y-242214D01*
X445363Y-245414D01*
X432612Y-250291D01*
X420674Y-256844D01*
X409701Y-264922D01*
X399897Y-274421D01*
X391414Y-285140D01*
X384505Y-296875D01*
X379171Y-309422D01*
X375564Y-322580D01*
X373735Y-336092D01*
X373735Y-349707D01*
X375564Y-363220D01*
X379171Y-376377D01*
X384505Y-388924D01*
X391414Y-400659D01*
X399897Y-411378D01*
X409701Y-420878D01*
X420674Y-428955D01*
X432612Y-435508D01*
X445363Y-440385D01*
X458622Y-443585D01*
X472185Y-444906D01*
X485800Y-444449D01*
X499262Y-442214D01*
X509473Y-439064D01*
X513080Y-438607D01*
X516635Y-439470D01*
X519633Y-441553D01*
X663092Y-585012D01*
X665175Y-588010D01*
X666038Y-591515D01*
X665632Y-595122D01*
X664006Y-598322D01*
X659790Y-601776D01*
X655675Y-605840D01*
X652627Y-610768D01*
X650697Y-616204D01*
X649986Y-622503D01*
X649986Y-941374D01*
X650697Y-947724D01*
X652627Y-953160D01*
X655675Y-958087D01*
X659790Y-962152D01*
X664667Y-965250D01*
X670153Y-967130D01*
X676452Y-967841D01*
X707948Y-967841D01*
X711606Y-968552D01*
X714756Y-970483D01*
X716991Y-973480D01*
X720293Y-984605D01*
X723849Y-991311D01*
X728980Y-997508D01*
X730605Y-999134D01*
X736803Y-1004265D01*
X743508Y-1007821D01*
X750722Y-1010005D01*
X758748Y-1010818D01*
X3286607Y-1010818D01*
X3289554Y-1011275D01*
X3292957Y-1012291D01*
X3300984Y-1013104D01*
X4560824Y-1013104D01*
X4568850Y-1012291D01*
X4576064Y-1010107D01*
X4582718Y-1006551D01*
X4588967Y-1001420D01*
X4592828Y-997508D01*
X4597958Y-991311D01*
X4601514Y-984605D01*
X4604816Y-973480D01*
X4607052Y-970483D01*
X4610201Y-968552D01*
X4613859Y-967841D01*
X4645304Y-967841D01*
X4651654Y-967130D01*
X4657090Y-965250D01*
X4662017Y-962152D01*
X4666081Y-958087D01*
X4669180Y-953160D01*
X4671110Y-947724D01*
X4671822Y-941374D01*
X4671822Y-642670D01*
X4672584Y-638759D01*
X4674768Y-635508D01*
X4678070Y-633272D01*
X4681982Y-632510D01*
X4703826Y-632510D01*
X4707686Y-633272D01*
X4710988Y-635508D01*
X4713224Y-638759D01*
X4713986Y-642670D01*
X4713986Y-941374D01*
X4714697Y-947724D01*
X4716627Y-953160D01*
X4719675Y-958087D01*
X4723790Y-962152D01*
X4728667Y-965250D01*
X4734153Y-967130D01*
X4740452Y-967841D01*
X4771948Y-967841D01*
X4775606Y-968552D01*
X4778756Y-970483D01*
X4780991Y-973480D01*
X4784293Y-984605D01*
X4787849Y-991311D01*
X4792624Y-997153D01*
X4798466Y-1001928D01*
X4805172Y-1005484D01*
X4812385Y-1007668D01*
X4820412Y-1008481D01*
X4861255Y-1008481D01*
X4865166Y-1009243D01*
X4868468Y-1011478D01*
X5270449Y-1413459D01*
X5272684Y-1416761D01*
X5273446Y-1420622D01*
X5272684Y-1424533D01*
X5270449Y-1427835D01*
X5267147Y-1430020D01*
X5263286Y-1430782D01*
X4994452Y-1430782D01*
X4988153Y-1431493D01*
X4982667Y-1433423D01*
X4977790Y-1436522D01*
X4973675Y-1440586D01*
X4970576Y-1445514D01*
X4968697Y-1450949D01*
X4967986Y-1457299D01*
X4967986Y-1616151D01*
X4968697Y-1622450D01*
X4970576Y-1627936D01*
X4973675Y-1632813D01*
X4977790Y-1636928D01*
X4982667Y-1639976D01*
X4988153Y-1641906D01*
X4994452Y-1642618D01*
X5313324Y-1642618D01*
X5319623Y-1641906D01*
X5325110Y-1639976D01*
X5329986Y-1636928D01*
X5334101Y-1632813D01*
X5337149Y-1627936D01*
X5339080Y-1622450D01*
X5339791Y-1616151D01*
X5339791Y-1507337D01*
X5340553Y-1503426D01*
X5342788Y-1500124D01*
X5346039Y-1497939D01*
X5349951Y-1497177D01*
X5353812Y-1497939D01*
X5357114Y-1500124D01*
X5905449Y-2048408D01*
X5907633Y-2051710D01*
X5908395Y-2055622D01*
X5907633Y-2059482D01*
X5905449Y-2062784D01*
X5902147Y-2065020D01*
X5898235Y-2065782D01*
X5749848Y-2065782D01*
X5743549Y-2066493D01*
X5738063Y-2068372D01*
X5733186Y-2071471D01*
X5729071Y-2075586D01*
X5726023Y-2080463D01*
X5724093Y-2085949D01*
X5723382Y-2092248D01*
X5723382Y-2094585D01*
X5722620Y-2098446D01*
X5720384Y-2101748D01*
X5717082Y-2103983D01*
X5713222Y-2104745D01*
X5709310Y-2103983D01*
X5706059Y-2101748D01*
X5513933Y-1909673D01*
X5507736Y-1904542D01*
X5501030Y-1900986D01*
X5493816Y-1898802D01*
X5485790Y-1898040D01*
X5345430Y-1898040D01*
X5341213Y-1897125D01*
X5337810Y-1894535D01*
X5335727Y-1890775D01*
X5335371Y-1886508D01*
X5339080Y-1876450D01*
X5339791Y-1870151D01*
X5339791Y-1711299D01*
X5339080Y-1704949D01*
X5337149Y-1699514D01*
X5334101Y-1694586D01*
X5329986Y-1690522D01*
X5325110Y-1687423D01*
X5319623Y-1685493D01*
X5313324Y-1684782D01*
X4994452Y-1684782D01*
X4988153Y-1685493D01*
X4982667Y-1687423D01*
X4977790Y-1690522D01*
X4973675Y-1694586D01*
X4970576Y-1699514D01*
X4968697Y-1704949D01*
X4967986Y-1711299D01*
X4967986Y-1870151D01*
X4968697Y-1876450D01*
X4972405Y-1886508D01*
X4972050Y-1890775D01*
X4969967Y-1894535D01*
X4966512Y-1897125D01*
X4962347Y-1898040D01*
X1234846Y-1898040D01*
X1230985Y-1897227D01*
X1227683Y-1895043D01*
X317855Y-985215D01*
X315620Y-981913D01*
X314858Y-978001D01*
X315620Y-974140D01*
X317855Y-970838D01*
X321157Y-968654D01*
X325018Y-967841D01*
X327304Y-967841D01*
X333654Y-967130D01*
X339090Y-965250D01*
X344017Y-962152D01*
X348081Y-958087D01*
X351180Y-953160D01*
X353110Y-947724D01*
X353822Y-941374D01*
X353822Y-622503D01*
X353110Y-616204D01*
X351180Y-610768D01*
X348081Y-605840D01*
X344017Y-601776D01*
X339090Y-598678D01*
X333654Y-596747D01*
X327304Y-596036D01*
X168452Y-596036D01*
X162153Y-596747D01*
X156667Y-598678D01*
X151790Y-601776D01*
X147675Y-605840D01*
X144627Y-610768D01*
X142697Y-616204D01*
X141986Y-622503D01*
X141986Y-941374D01*
X142697Y-947724D01*
X144627Y-953160D01*
X147675Y-958087D01*
X151790Y-962152D01*
X156667Y-965250D01*
X162153Y-967130D01*
X168452Y-967841D01*
X199948Y-967841D01*
X203606Y-968552D01*
X206756Y-970483D01*
X208991Y-973480D01*
X212293Y-984605D01*
X215849Y-991311D01*
X220979Y-997508D01*
X1145895Y-1922424D01*
X1148080Y-1925726D01*
X1148842Y-1929638D01*
X1148080Y-1933498D01*
X1145895Y-1936800D01*
X1142593Y-1939036D01*
X1138682Y-1939798D01*
X1099159Y-1939798D01*
X1092860Y-1940509D01*
X1087374Y-1942439D01*
X1082497Y-1945487D01*
X1078382Y-1949602D01*
X1075334Y-1954479D01*
X1073404Y-1959965D01*
X1072692Y-1966264D01*
X1072692Y-2115108D01*
X1073404Y-2121458D01*
X1075334Y-2126894D01*
X1078382Y-2131822D01*
X1082497Y-2135886D01*
X1087374Y-2138984D01*
X1092860Y-2140915D01*
X1099159Y-2141626D01*
X1248054Y-2141626D01*
X1254353Y-2140915D01*
X1259840Y-2138984D01*
X1264716Y-2135886D01*
X1268831Y-2131822D01*
X1271879Y-2126894D01*
X1273810Y-2121458D01*
X1274521Y-2115108D01*
X1274521Y-1985416D01*
X1275283Y-1981504D01*
X1277467Y-1978202D01*
X1280769Y-1976018D01*
X1284681Y-1975256D01*
X1299819Y-1975256D01*
X1303731Y-1976018D01*
X1307033Y-1978202D01*
X1309217Y-1981504D01*
X1309979Y-1985416D01*
X1309979Y-2115108D01*
X1310690Y-2121458D01*
X1312621Y-2126894D01*
X1315669Y-2131822D01*
X1319784Y-2135886D01*
X1324660Y-2138984D01*
X1330147Y-2140915D01*
X1336446Y-2141626D01*
X1485341Y-2141626D01*
X1491640Y-2140915D01*
X1497126Y-2138984D01*
X1502003Y-2135886D01*
X1506118Y-2131822D01*
X1509166Y-2126894D01*
X1511096Y-2121458D01*
X1511808Y-2115108D01*
X1511808Y-1985416D01*
X1512570Y-1981504D01*
X1514805Y-1978202D01*
X1518056Y-1976018D01*
X1521968Y-1975256D01*
X4957826Y-1975256D01*
X4961686Y-1976018D01*
X4964988Y-1978202D01*
X4967224Y-1981504D01*
X4967986Y-1985416D01*
X4967986Y-2124151D01*
X4968697Y-2130450D01*
X4970576Y-2135936D01*
X4973675Y-2140813D01*
X4977790Y-2144928D01*
X4982667Y-2147976D01*
X4988153Y-2149906D01*
X4994452Y-2150618D01*
X5313324Y-2150618D01*
X5319623Y-2149906D01*
X5325110Y-2147976D01*
X5329986Y-2144928D01*
X5334101Y-2140813D01*
X5337149Y-2135936D01*
X5339080Y-2130450D01*
X5339791Y-2124151D01*
X5339791Y-1985416D01*
X5340553Y-1981504D01*
X5342788Y-1978202D01*
X5346039Y-1976018D01*
X5349951Y-1975256D01*
X5466080Y-1975256D01*
X5469991Y-1976018D01*
X5473293Y-1978202D01*
X5693714Y-2198624D01*
X5699963Y-2203754D01*
X5706618Y-2207310D01*
X5717794Y-2210612D01*
X5720740Y-2212848D01*
X5722721Y-2215997D01*
X5723382Y-2219655D01*
X5723382Y-2251151D01*
X5724093Y-2257450D01*
X5726023Y-2262936D01*
X5729071Y-2267813D01*
X5733186Y-2271928D01*
X5738063Y-2274976D01*
X5743549Y-2276906D01*
G37*
G36*
X6337300Y-2277567D02*
G01*
X6351117Y-2276703D01*
X6364681Y-2273960D01*
X6377838Y-2269540D01*
X6390233Y-2263394D01*
X6401765Y-2255723D01*
X6412179Y-2246579D01*
X6421323Y-2236165D01*
X6428994Y-2224633D01*
X6435140Y-2212238D01*
X6439560Y-2199081D01*
X6442303Y-2185517D01*
X6443218Y-2171700D01*
X6442303Y-2157882D01*
X6439560Y-2144268D01*
X6435140Y-2131161D01*
X6428994Y-2118766D01*
X6421323Y-2107234D01*
X6412179Y-2096820D01*
X6401765Y-2087676D01*
X6390233Y-2080006D01*
X6377838Y-2073859D01*
X6364681Y-2069388D01*
X6351117Y-2066696D01*
X6337300Y-2065782D01*
X6323482Y-2066696D01*
X6309868Y-2069388D01*
X6296761Y-2073859D01*
X6284366Y-2080006D01*
X6272834Y-2087676D01*
X6262420Y-2096820D01*
X6253276Y-2107234D01*
X6245606Y-2118766D01*
X6239459Y-2131161D01*
X6234988Y-2144268D01*
X6232296Y-2157882D01*
X6231382Y-2171700D01*
X6232296Y-2185517D01*
X6234988Y-2199081D01*
X6239459Y-2212238D01*
X6245606Y-2224633D01*
X6253276Y-2236165D01*
X6262420Y-2246579D01*
X6272834Y-2255723D01*
X6284366Y-2263394D01*
X6296761Y-2269540D01*
X6309868Y-2273960D01*
X6323482Y-2276703D01*
G37*
G36*
X836472Y-2141626D02*
G01*
X985316Y-2141626D01*
X991666Y-2140915D01*
X997102Y-2138984D01*
X1002030Y-2135886D01*
X1006094Y-2131822D01*
X1009192Y-2126894D01*
X1011072Y-2121458D01*
X1011783Y-2115108D01*
X1011783Y-1966264D01*
X1011072Y-1959965D01*
X1009192Y-1954479D01*
X1006094Y-1949602D01*
X1002030Y-1945487D01*
X997102Y-1942439D01*
X991666Y-1940509D01*
X985316Y-1939798D01*
X836472Y-1939798D01*
X830173Y-1940509D01*
X824687Y-1942439D01*
X819810Y-1945487D01*
X815695Y-1949602D01*
X812596Y-1954479D01*
X810717Y-1959965D01*
X810006Y-1966264D01*
X810006Y-2115108D01*
X810717Y-2121458D01*
X812596Y-2126894D01*
X815695Y-2131822D01*
X819810Y-2135886D01*
X824687Y-2138984D01*
X830173Y-2140915D01*
G37*
G36*
X156464Y-1991614D02*
G01*
X305308Y-1991614D01*
X311658Y-1990902D01*
X317093Y-1988972D01*
X322021Y-1985924D01*
X326085Y-1981809D01*
X329184Y-1976932D01*
X331114Y-1971446D01*
X331825Y-1965147D01*
X331825Y-1816252D01*
X331114Y-1809953D01*
X329184Y-1804466D01*
X326085Y-1799589D01*
X324408Y-1797862D01*
X322224Y-1794611D01*
X321411Y-1790700D01*
X322224Y-1786788D01*
X324408Y-1783537D01*
X326085Y-1781810D01*
X329184Y-1776933D01*
X331114Y-1771446D01*
X331825Y-1765147D01*
X331825Y-1616252D01*
X331114Y-1609953D01*
X329184Y-1604467D01*
X326085Y-1599590D01*
X322021Y-1595475D01*
X317093Y-1592427D01*
X311658Y-1590497D01*
X305308Y-1589786D01*
X156464Y-1589786D01*
X150164Y-1590497D01*
X144678Y-1592427D01*
X139801Y-1595475D01*
X135686Y-1599590D01*
X132638Y-1604467D01*
X130708Y-1609953D01*
X129997Y-1616252D01*
X129997Y-1765147D01*
X130708Y-1771446D01*
X132638Y-1776933D01*
X135686Y-1781810D01*
X137414Y-1783537D01*
X139598Y-1786788D01*
X140360Y-1790700D01*
X139598Y-1794611D01*
X137414Y-1797862D01*
X135686Y-1799589D01*
X132638Y-1804466D01*
X130708Y-1809953D01*
X129997Y-1816252D01*
X129997Y-1965147D01*
X130708Y-1971446D01*
X132638Y-1976932D01*
X135686Y-1981809D01*
X139801Y-1985924D01*
X144678Y-1988972D01*
X150164Y-1990902D01*
G37*
G36*
X486460Y-1891588D02*
G01*
X635304Y-1891588D01*
X641654Y-1890877D01*
X647090Y-1888998D01*
X652018Y-1885899D01*
X656082Y-1881835D01*
X659180Y-1876907D01*
X661111Y-1871472D01*
X661822Y-1865122D01*
X661822Y-1716278D01*
X661111Y-1709978D01*
X659180Y-1704492D01*
X656082Y-1699615D01*
X652018Y-1695500D01*
X647090Y-1692402D01*
X641654Y-1690522D01*
X635304Y-1689811D01*
X486460Y-1689811D01*
X480161Y-1690522D01*
X474675Y-1692402D01*
X469798Y-1695500D01*
X465683Y-1699615D01*
X462635Y-1704492D01*
X460705Y-1709978D01*
X459993Y-1716278D01*
X459993Y-1865122D01*
X460705Y-1871472D01*
X462635Y-1876907D01*
X465683Y-1881835D01*
X469798Y-1885899D01*
X474675Y-1888998D01*
X480161Y-1890877D01*
G37*
G36*
X6337300Y-1515567D02*
G01*
X6351117Y-1514703D01*
X6364681Y-1511960D01*
X6377838Y-1507540D01*
X6390233Y-1501394D01*
X6401765Y-1493723D01*
X6412179Y-1484579D01*
X6421323Y-1474165D01*
X6428994Y-1462633D01*
X6435140Y-1450238D01*
X6439560Y-1437081D01*
X6442303Y-1423517D01*
X6443218Y-1409700D01*
X6442303Y-1395882D01*
X6439560Y-1382268D01*
X6435140Y-1369161D01*
X6428994Y-1356766D01*
X6421323Y-1345234D01*
X6412179Y-1334820D01*
X6401765Y-1325676D01*
X6390233Y-1318006D01*
X6377838Y-1311859D01*
X6364681Y-1307388D01*
X6351117Y-1304696D01*
X6337300Y-1303782D01*
X6323482Y-1304696D01*
X6309868Y-1307388D01*
X6296761Y-1311859D01*
X6284366Y-1318006D01*
X6272834Y-1325676D01*
X6262420Y-1334820D01*
X6253276Y-1345234D01*
X6245606Y-1356766D01*
X6239459Y-1369161D01*
X6234988Y-1382268D01*
X6232296Y-1395882D01*
X6231382Y-1409700D01*
X6232296Y-1423517D01*
X6234988Y-1437081D01*
X6239459Y-1450238D01*
X6245606Y-1462633D01*
X6253276Y-1474165D01*
X6262420Y-1484579D01*
X6272834Y-1493723D01*
X6284366Y-1501394D01*
X6296761Y-1507540D01*
X6309868Y-1511960D01*
X6323482Y-1514703D01*
G37*
G36*
X5875629Y-1504645D02*
G01*
X5882233Y-1501394D01*
X5893765Y-1493723D01*
X5904179Y-1484579D01*
X5913323Y-1474165D01*
X5920994Y-1462633D01*
X5924245Y-1456029D01*
X5875629Y-1456029D01*
G37*
G36*
X5782919Y-1504645D02*
G01*
X5782919Y-1456029D01*
X5734354Y-1456029D01*
X5737606Y-1462633D01*
X5745276Y-1474165D01*
X5754420Y-1484579D01*
X5764834Y-1493723D01*
X5776366Y-1501394D01*
G37*
G36*
X5875629Y-1363319D02*
G01*
X5924245Y-1363319D01*
X5920994Y-1356766D01*
X5913323Y-1345234D01*
X5904179Y-1334820D01*
X5893765Y-1325676D01*
X5882233Y-1318006D01*
X5875629Y-1314754D01*
G37*
G36*
X5734354Y-1363319D02*
G01*
X5782919Y-1363319D01*
X5782919Y-1314754D01*
X5776366Y-1318006D01*
X5764834Y-1325676D01*
X5754420Y-1334820D01*
X5745276Y-1345234D01*
X5737606Y-1356766D01*
G37*
G36*
X422452Y-967841D02*
G01*
X581304Y-967841D01*
X587654Y-967130D01*
X593090Y-965250D01*
X598017Y-962152D01*
X602081Y-958087D01*
X605180Y-953160D01*
X607110Y-947724D01*
X607822Y-941374D01*
X607822Y-622503D01*
X607110Y-616204D01*
X605180Y-610768D01*
X602081Y-605840D01*
X598017Y-601776D01*
X593090Y-598678D01*
X587654Y-596747D01*
X581304Y-596036D01*
X422452Y-596036D01*
X416153Y-596747D01*
X410667Y-598678D01*
X405790Y-601776D01*
X401675Y-605840D01*
X398627Y-610768D01*
X396697Y-616204D01*
X395986Y-622503D01*
X395986Y-941374D01*
X396697Y-947724D01*
X398627Y-953160D01*
X401675Y-958087D01*
X405790Y-962152D01*
X410667Y-965250D01*
X416153Y-967130D01*
G37*

%LPD*%
D10*
X4311904Y-594055D02*
G01*
X4407154Y-594055D01*
X4438904Y-625805D01*
X4311904Y-781964D02*
G01*
X4311904Y-594055D01*
X3803904Y-594055D02*
G01*
X3991635Y-406323D01*
X6337300Y-406323D01*
X3803904Y-781964D02*
G01*
X3803904Y-594055D01*
X7035800Y-3136900D02*
G01*
X6692900Y-2794000D01*
X6302400Y-2794000D01*
X5147132Y-4439716D02*
G01*
X5843066Y-4439716D01*
X5969000Y-4565650D01*
X4325264Y-4439716D02*
G01*
X5147132Y-4439716D01*
X5147132Y-4439716D02*
G01*
X5147132Y-4565650D01*
X3503396Y-4439716D02*
G01*
X4325264Y-4439716D01*
X4325264Y-4439716D02*
G01*
X4325264Y-4565650D01*
X2681528Y-4439716D02*
G01*
X3503396Y-4439716D01*
X3503396Y-4439716D02*
G01*
X3503396Y-4565650D01*
X1859661Y-4439716D02*
G01*
X2681528Y-4439716D01*
X2681528Y-4439716D02*
G01*
X2681528Y-4565650D01*
X1037767Y-4439716D02*
G01*
X1859661Y-4439716D01*
X1859661Y-4439716D02*
G01*
X1859661Y-4565650D01*
X215900Y-4565650D02*
G01*
X341833Y-4439716D01*
X1037767Y-4439716D01*
X1037767Y-4439716D02*
G01*
X1037767Y-4565650D01*
X3295904Y-969873D02*
G01*
X3300501Y-974470D01*
X4561306Y-974470D01*
X4565904Y-969873D01*
X4565904Y-781964D02*
G01*
X4565904Y-969873D01*
X4565904Y-698093D02*
G01*
X4565904Y-781964D01*
X4565904Y-698093D02*
G01*
X4565904Y-594055D01*
X6083300Y-1409700D02*
G01*
X5785993Y-1112393D01*
X5122621Y-1112393D01*
X4951526Y-941298D01*
X4951526Y-625017D01*
X4920411Y-593902D01*
X4566056Y-593902D01*
X4565904Y-594055D01*
X755904Y-969873D02*
G01*
X758240Y-972210D01*
X3293567Y-972210D01*
X3295904Y-969873D01*
X2025904Y-2799435D02*
G01*
X2025904Y-2987344D01*
X2025904Y-2987344D02*
G01*
X2040381Y-3001822D01*
X4551425Y-3001822D01*
X4565904Y-2987344D01*
X2025904Y-2715564D02*
G01*
X2025904Y-2799435D01*
X2025904Y-2715564D02*
G01*
X2025904Y-2611526D01*
X3295904Y-781964D02*
G01*
X3295904Y-969873D01*
X755904Y-781964D02*
G01*
X755904Y-969873D01*
X755904Y-688009D02*
G01*
X755904Y-781964D01*
X755904Y-688009D02*
G01*
X755904Y-594055D01*
X755904Y-2799435D02*
G01*
X755904Y-2611526D01*
X755904Y-2611526D02*
G01*
X756081Y-2611348D01*
X2025726Y-2611348D01*
X2025904Y-2611526D01*
X4565904Y-2799435D02*
G01*
X4565904Y-2987344D01*
X6781800Y-3136900D02*
G01*
X6663893Y-3136900D01*
X6663893Y-3136900D02*
G01*
X6545986Y-3018993D01*
X4597552Y-3018993D01*
X4565904Y-2987344D01*
X475589Y-342900D02*
G01*
X726744Y-594055D01*
X755904Y-594055D01*
X2533904Y-781964D02*
G01*
X2533904Y-594055D01*
X2533904Y-594055D02*
G01*
X2553563Y-574395D01*
X3630422Y-574395D01*
X5363032Y-6103010D02*
G01*
X6184900Y-6103010D01*
X4541138Y-6103010D02*
G01*
X5363032Y-6103010D01*
X3719271Y-6103010D02*
G01*
X4541138Y-6103010D01*
X7289800Y-3136900D02*
G01*
X6836994Y-3589705D01*
X6836994Y-3933774D01*
X2279904Y-594055D02*
G01*
X2152904Y-594055D01*
X2279904Y-781964D02*
G01*
X2279904Y-594055D01*
X2897428Y-6103010D02*
G01*
X3374339Y-5626100D01*
X6836994Y-5626100D01*
X2075561Y-6103010D02*
G01*
X2897428Y-6103010D01*
X1253667Y-6103010D02*
G01*
X2075561Y-6103010D01*
X431800Y-6103010D02*
G01*
X1253667Y-6103010D01*
X1771904Y-2799435D02*
G01*
X1771904Y-2987344D01*
X2046579Y-3061385D02*
G01*
X1845945Y-3061385D01*
X1771904Y-2987344D01*
X2279904Y-2799435D02*
G01*
X2279904Y-2611526D01*
X2279904Y-2611526D02*
G01*
X2231847Y-2563469D01*
X692657Y-2563469D01*
X647801Y-2608326D01*
X647801Y-2980131D01*
X915670Y-3247999D01*
X1291767Y-3247999D01*
X1517904Y-2799435D02*
G01*
X1517904Y-2987344D01*
X2935503Y-3247999D02*
G01*
X2808477Y-3120974D01*
X1651533Y-3120974D01*
X1517904Y-2987344D01*
X5073904Y-781964D02*
G01*
X5073904Y-969873D01*
X6591300Y-1409700D02*
G01*
X6151473Y-969873D01*
X5073904Y-969873D01*
X2533904Y-2799435D02*
G01*
X2533904Y-2611526D01*
X2533904Y-2611526D02*
G01*
X2439136Y-2516759D01*
X239445Y-2516759D01*
X139801Y-2616403D01*
X139801Y-2973044D01*
X414756Y-3247999D01*
X469900Y-3247999D01*
X1517904Y-781964D02*
G01*
X1517904Y-355193D01*
X1505610Y-342900D01*
X1505610Y-342900D02*
G01*
X1859889Y-342900D01*
X2889910Y-342900D02*
G01*
X2777109Y-230098D01*
X1451762Y-230098D01*
X1263904Y-417956D01*
X1263904Y-781964D01*
X1263904Y-2799435D02*
G01*
X1263904Y-2987344D01*
X3757396Y-3247999D02*
G01*
X3639311Y-3366084D01*
X1642643Y-3366084D01*
X1263904Y-2987344D01*
X1009904Y-2799435D02*
G01*
X1009904Y-2987344D01*
X4579264Y-3247999D02*
G01*
X4417110Y-3410153D01*
X1629029Y-3410153D01*
X1256309Y-3037433D01*
X1059992Y-3037433D01*
X1009904Y-2987344D01*
X501904Y-2799435D02*
G01*
X501904Y-2987344D01*
X5401132Y-3247999D02*
G01*
X5197906Y-3451225D01*
X965784Y-3451225D01*
X501904Y-2987344D01*
X247904Y-781964D02*
G01*
X247904Y-969873D01*
X5829300Y-2171700D02*
G01*
X5721375Y-2171700D01*
X5721375Y-2171700D02*
G01*
X5486298Y-1936622D01*
X1214653Y-1936622D01*
X247904Y-969873D01*
X247904Y-2799435D02*
G01*
X247904Y-2987344D01*
X6223000Y-3247999D02*
G01*
X5975705Y-3495294D01*
X903731Y-3495294D01*
X395782Y-2987344D01*
X247904Y-2987344D01*
X5073904Y-2799435D02*
G01*
X5073904Y-2611526D01*
X5432399Y-2794000D02*
G01*
X5249925Y-2611526D01*
X5073904Y-2611526D01*
X4057904Y-781964D02*
G01*
X4057904Y-594055D01*
X6591300Y-2171700D02*
G01*
X6700113Y-2062886D01*
X6700113Y-1361947D01*
X5889142Y-550976D01*
X4100982Y-550976D01*
X4057904Y-594055D01*
X4819904Y-781964D02*
G01*
X4819904Y-969873D01*
X4819904Y-969873D02*
G01*
X4881473Y-969873D01*
X6083300Y-2171700D01*
D11*
G01*
X5073904Y-781964D03*
G01*
X5073904Y-2799435D03*
G01*
X4819904Y-781964D03*
G01*
X4819904Y-2799435D03*
G01*
X4565904Y-781964D03*
G01*
X4565904Y-2799435D03*
G01*
X4311904Y-781964D03*
G01*
X4311904Y-2799435D03*
G01*
X4057904Y-781964D03*
G01*
X4057904Y-2799435D03*
G01*
X3803904Y-781964D03*
G01*
X3803904Y-2799435D03*
G01*
X3549904Y-781964D03*
G01*
X3549904Y-2799435D03*
G01*
X3295904Y-781964D03*
G01*
X3295904Y-2799435D03*
G01*
X3041904Y-781964D03*
G01*
X3041904Y-2799435D03*
G01*
X2787904Y-781964D03*
G01*
X2787904Y-2799435D03*
G01*
X2533904Y-781964D03*
G01*
X2533904Y-2799435D03*
G01*
X2279904Y-781964D03*
G01*
X2279904Y-2799435D03*
G01*
X2025904Y-781964D03*
G01*
X2025904Y-2799435D03*
G01*
X1771904Y-781964D03*
G01*
X1771904Y-2799435D03*
G01*
X1517904Y-781964D03*
G01*
X1517904Y-2799435D03*
G01*
X1263904Y-781964D03*
G01*
X1263904Y-2799435D03*
G01*
X1009904Y-781964D03*
G01*
X1009904Y-2799435D03*
G01*
X755904Y-781964D03*
G01*
X755904Y-2799435D03*
G01*
X501904Y-781964D03*
G01*
X501904Y-2799435D03*
G01*
X247904Y-781964D03*
G01*
X247904Y-2799435D03*
D12*
G01*
X5153888Y-2044700D03*
G01*
X5153888Y-1790700D03*
G01*
X5153888Y-1536700D03*
D13*
G01*
X560908Y-1790700D03*
G01*
X230911Y-1690700D03*
G01*
X230911Y-1890699D03*
G01*
X910894Y-2040686D03*
G01*
X1173606Y-2040686D03*
G01*
X1410893Y-2040686D03*
D14*
G01*
X7187006Y-3933774D03*
G01*
X6836994Y-3933774D03*
G01*
X7187006Y-5626100D03*
G01*
X6836994Y-5626100D03*
D15*
G01*
X5969000Y-4565650D03*
G01*
X6223000Y-4565650D03*
D16*
G01*
X6477000Y-4565650D03*
D15*
G01*
X5147132Y-4565650D03*
G01*
X5401132Y-4565650D03*
D16*
G01*
X5655132Y-4565650D03*
D15*
G01*
X4325264Y-4565650D03*
G01*
X4579264Y-4565650D03*
D16*
G01*
X4833264Y-4565650D03*
D15*
G01*
X3503396Y-4565650D03*
G01*
X3757396Y-4565650D03*
D16*
G01*
X4011396Y-4565650D03*
D15*
G01*
X2681528Y-4565650D03*
G01*
X2935528Y-4565650D03*
D16*
G01*
X3189528Y-4565650D03*
D17*
G01*
X6184900Y-6103010D03*
G01*
X6184900Y-5072989D03*
G01*
X5363032Y-6103010D03*
G01*
X5363032Y-5072989D03*
G01*
X4541138Y-6103010D03*
G01*
X4541138Y-5072989D03*
G01*
X3719271Y-6103010D03*
G01*
X3719271Y-5072989D03*
D18*
G01*
X5829300Y-2171700D03*
D19*
G01*
X6083300Y-2171700D03*
G01*
X6337300Y-2171700D03*
G01*
X6591300Y-2171700D03*
G01*
X6591300Y-1409700D03*
G01*
X6337300Y-1409700D03*
G01*
X6083300Y-1409700D03*
G01*
X5829300Y-1409700D03*
D20*
G01*
X6223000Y-4118000D03*
G01*
X6223000Y-3247999D03*
G01*
X5401132Y-4118000D03*
G01*
X5401132Y-3247999D03*
G01*
X4579264Y-4118000D03*
G01*
X4579264Y-3247999D03*
G01*
X3757396Y-4118000D03*
G01*
X3757396Y-3247999D03*
D15*
G01*
X1859661Y-4565650D03*
G01*
X2113661Y-4565650D03*
D16*
G01*
X2367661Y-4565650D03*
D15*
G01*
X1037767Y-4565650D03*
G01*
X1291767Y-4565650D03*
D16*
G01*
X1545767Y-4565650D03*
D15*
G01*
X215900Y-4565650D03*
G01*
X469900Y-4565650D03*
D16*
G01*
X723900Y-4565650D03*
D20*
G01*
X2935503Y-4118000D03*
G01*
X2935503Y-3247999D03*
G01*
X2113635Y-4118000D03*
G01*
X2113635Y-3247999D03*
G01*
X1291767Y-4118000D03*
G01*
X1291767Y-3247999D03*
G01*
X469900Y-4118000D03*
G01*
X469900Y-3247999D03*
D17*
G01*
X2897428Y-6103010D03*
G01*
X2897428Y-5072989D03*
G01*
X2075561Y-6103010D03*
G01*
X2075561Y-5072989D03*
G01*
X1253667Y-6103010D03*
G01*
X1253667Y-5072989D03*
G01*
X431800Y-6103010D03*
G01*
X431800Y-5072989D03*
G01*
X1859889Y-342900D03*
G01*
X2889910Y-342900D03*
G01*
X475589Y-342900D03*
G01*
X1505610Y-342900D03*
D20*
G01*
X6302400Y-2794000D03*
G01*
X5432399Y-2794000D03*
D15*
G01*
X7289800Y-4829225D03*
G01*
X7035800Y-4829225D03*
D16*
G01*
X6781800Y-4829225D03*
D15*
G01*
X7289800Y-3136900D03*
G01*
X7035800Y-3136900D03*
D16*
G01*
X6781800Y-3136900D03*
D21*
G01*
X4438904Y-625805D03*
G01*
X6337300Y-406323D03*
G01*
X3630422Y-574395D03*
G01*
X2152904Y-594055D03*
G01*
X2046579Y-3061385D03*
M02*
