G04 Layer: TopSilkscreenLayer*
G04 EasyEDA v6.5.47, 2024-09-23 22:29:33*
G04 5a6e75cfa2c046329717b22c304bfbd2,c2d4411aa706456985f533cd49438c3a,10*
G04 Gerber Generator version 0.2*
G04 Scale: 100 percent, Rotated: No, Reflected: No *
G04 Dimensions in millimeters *
G04 leading zeros omitted , absolute positions ,4 integer and 5 decimal *
%FSLAX45Y45*%
%MOMM*%

%ADD10C,0.1524*%
%ADD11C,0.2540*%
%ADD12C,0.5000*%
%ADD13C,0.4000*%

%LPD*%
D10*
X7089973Y-3437971D02*
G01*
X7084639Y-3427557D01*
X7074225Y-3417143D01*
X7064065Y-3412063D01*
X7043237Y-3412063D01*
X7032823Y-3417143D01*
X7022409Y-3427557D01*
X7017075Y-3437971D01*
X7011995Y-3453719D01*
X7011995Y-3479627D01*
X7017075Y-3495121D01*
X7022409Y-3505535D01*
X7032823Y-3515949D01*
X7043237Y-3521029D01*
X7064065Y-3521029D01*
X7074225Y-3515949D01*
X7084639Y-3505535D01*
X7089973Y-3495121D01*
X7124263Y-3432891D02*
G01*
X7134677Y-3427557D01*
X7150171Y-3412063D01*
X7150171Y-3521029D01*
X7089973Y-5130292D02*
G01*
X7084639Y-5119878D01*
X7074225Y-5109463D01*
X7064065Y-5104384D01*
X7043237Y-5104384D01*
X7032823Y-5109463D01*
X7022409Y-5119878D01*
X7017075Y-5130292D01*
X7011995Y-5146039D01*
X7011995Y-5171947D01*
X7017075Y-5187442D01*
X7022409Y-5197855D01*
X7032823Y-5208270D01*
X7043237Y-5213350D01*
X7064065Y-5213350D01*
X7074225Y-5208270D01*
X7084639Y-5197855D01*
X7089973Y-5187442D01*
X7129343Y-5130292D02*
G01*
X7129343Y-5125212D01*
X7134677Y-5114797D01*
X7139757Y-5109463D01*
X7150171Y-5104384D01*
X7170999Y-5104384D01*
X7181413Y-5109463D01*
X7186493Y-5114797D01*
X7191827Y-5125212D01*
X7191827Y-5135626D01*
X7186493Y-5146039D01*
X7176079Y-5161534D01*
X7124263Y-5213350D01*
X7196907Y-5213350D01*
X5917184Y-5588000D02*
G01*
X6026150Y-5588000D01*
X5917184Y-5588000D02*
G01*
X5917184Y-5541263D01*
X5922263Y-5525770D01*
X5927597Y-5520436D01*
X5938011Y-5515355D01*
X5948425Y-5515355D01*
X5958840Y-5520436D01*
X5963920Y-5525770D01*
X5969000Y-5541263D01*
X5969000Y-5588000D01*
X5969000Y-5551678D02*
G01*
X6026150Y-5515355D01*
X5938011Y-5481065D02*
G01*
X5932677Y-5470652D01*
X5917184Y-5454904D01*
X6026150Y-5454904D01*
X5095313Y-5588000D02*
G01*
X5204279Y-5588000D01*
X5095313Y-5588000D02*
G01*
X5095313Y-5541263D01*
X5100393Y-5525770D01*
X5105727Y-5520436D01*
X5116141Y-5515355D01*
X5126555Y-5515355D01*
X5136969Y-5520436D01*
X5142049Y-5525770D01*
X5147129Y-5541263D01*
X5147129Y-5588000D01*
X5147129Y-5551678D02*
G01*
X5204279Y-5515355D01*
X5121221Y-5475731D02*
G01*
X5116141Y-5475731D01*
X5105727Y-5470652D01*
X5100393Y-5465318D01*
X5095313Y-5454904D01*
X5095313Y-5434329D01*
X5100393Y-5423915D01*
X5105727Y-5418581D01*
X5116141Y-5413502D01*
X5126555Y-5413502D01*
X5136969Y-5418581D01*
X5152463Y-5428995D01*
X5204279Y-5481065D01*
X5204279Y-5408168D01*
X4273440Y-5588000D02*
G01*
X4382406Y-5588000D01*
X4273440Y-5588000D02*
G01*
X4273440Y-5541263D01*
X4278520Y-5525770D01*
X4283854Y-5520436D01*
X4294268Y-5515355D01*
X4304682Y-5515355D01*
X4315096Y-5520436D01*
X4320176Y-5525770D01*
X4325256Y-5541263D01*
X4325256Y-5588000D01*
X4325256Y-5551678D02*
G01*
X4382406Y-5515355D01*
X4273440Y-5470652D02*
G01*
X4273440Y-5413502D01*
X4315096Y-5444489D01*
X4315096Y-5428995D01*
X4320176Y-5418581D01*
X4325256Y-5413502D01*
X4341004Y-5408168D01*
X4351418Y-5408168D01*
X4366912Y-5413502D01*
X4377326Y-5423915D01*
X4382406Y-5439410D01*
X4382406Y-5454904D01*
X4377326Y-5470652D01*
X4372246Y-5475731D01*
X4361832Y-5481065D01*
X3451570Y-5588000D02*
G01*
X3560536Y-5588000D01*
X3451570Y-5588000D02*
G01*
X3451570Y-5541263D01*
X3456650Y-5525770D01*
X3461984Y-5520436D01*
X3472398Y-5515355D01*
X3482812Y-5515355D01*
X3493226Y-5520436D01*
X3498306Y-5525770D01*
X3503386Y-5541263D01*
X3503386Y-5588000D01*
X3503386Y-5551678D02*
G01*
X3560536Y-5515355D01*
X3451570Y-5428995D02*
G01*
X3524214Y-5481065D01*
X3524214Y-5403087D01*
X3451570Y-5428995D02*
G01*
X3560536Y-5428995D01*
X5828284Y-3689350D02*
G01*
X5937250Y-3689350D01*
X5828284Y-3689350D02*
G01*
X5828284Y-3653028D01*
X5833363Y-3637279D01*
X5843777Y-3627120D01*
X5854191Y-3621786D01*
X5869940Y-3616705D01*
X5895847Y-3616705D01*
X5911341Y-3621786D01*
X5921756Y-3627120D01*
X5932170Y-3637279D01*
X5937250Y-3653028D01*
X5937250Y-3689350D01*
X5849111Y-3582415D02*
G01*
X5843777Y-3572002D01*
X5828284Y-3556254D01*
X5937250Y-3556254D01*
X5006413Y-3689350D02*
G01*
X5115379Y-3689350D01*
X5006413Y-3689350D02*
G01*
X5006413Y-3653028D01*
X5011493Y-3637279D01*
X5021907Y-3627120D01*
X5032321Y-3621786D01*
X5048069Y-3616705D01*
X5073977Y-3616705D01*
X5089471Y-3621786D01*
X5099885Y-3627120D01*
X5110299Y-3637279D01*
X5115379Y-3653028D01*
X5115379Y-3689350D01*
X5032321Y-3577081D02*
G01*
X5027241Y-3577081D01*
X5016827Y-3572002D01*
X5011493Y-3566668D01*
X5006413Y-3556254D01*
X5006413Y-3535679D01*
X5011493Y-3525265D01*
X5016827Y-3519931D01*
X5027241Y-3514852D01*
X5037655Y-3514852D01*
X5048069Y-3519931D01*
X5063563Y-3530345D01*
X5115379Y-3582415D01*
X5115379Y-3509518D01*
X4184540Y-3689350D02*
G01*
X4293506Y-3689350D01*
X4184540Y-3689350D02*
G01*
X4184540Y-3653028D01*
X4189620Y-3637279D01*
X4200034Y-3627120D01*
X4210448Y-3621786D01*
X4226196Y-3616705D01*
X4252104Y-3616705D01*
X4267598Y-3621786D01*
X4278012Y-3627120D01*
X4288426Y-3637279D01*
X4293506Y-3653028D01*
X4293506Y-3689350D01*
X4184540Y-3572002D02*
G01*
X4184540Y-3514852D01*
X4226196Y-3545839D01*
X4226196Y-3530345D01*
X4231276Y-3519931D01*
X4236356Y-3514852D01*
X4252104Y-3509518D01*
X4262518Y-3509518D01*
X4278012Y-3514852D01*
X4288426Y-3525265D01*
X4293506Y-3540760D01*
X4293506Y-3556254D01*
X4288426Y-3572002D01*
X4283346Y-3577081D01*
X4272932Y-3582415D01*
X3362670Y-3689350D02*
G01*
X3471636Y-3689350D01*
X3362670Y-3689350D02*
G01*
X3362670Y-3653028D01*
X3367750Y-3637279D01*
X3378164Y-3627120D01*
X3388578Y-3621786D01*
X3404326Y-3616705D01*
X3430234Y-3616705D01*
X3445728Y-3621786D01*
X3456142Y-3627120D01*
X3466556Y-3637279D01*
X3471636Y-3653028D01*
X3471636Y-3689350D01*
X3362670Y-3530345D02*
G01*
X3435314Y-3582415D01*
X3435314Y-3504437D01*
X3362670Y-3530345D02*
G01*
X3471636Y-3530345D01*
X2540797Y-3689350D02*
G01*
X2649763Y-3689350D01*
X2540797Y-3689350D02*
G01*
X2540797Y-3653028D01*
X2545877Y-3637279D01*
X2556291Y-3627120D01*
X2566705Y-3621786D01*
X2582453Y-3616705D01*
X2608361Y-3616705D01*
X2623855Y-3621786D01*
X2634269Y-3627120D01*
X2644683Y-3637279D01*
X2649763Y-3653028D01*
X2649763Y-3689350D01*
X2540797Y-3519931D02*
G01*
X2540797Y-3572002D01*
X2587533Y-3577081D01*
X2582453Y-3572002D01*
X2577119Y-3556254D01*
X2577119Y-3540760D01*
X2582453Y-3525265D01*
X2592613Y-3514852D01*
X2608361Y-3509518D01*
X2618775Y-3509518D01*
X2634269Y-3514852D01*
X2644683Y-3525265D01*
X2649763Y-3540760D01*
X2649763Y-3556254D01*
X2644683Y-3572002D01*
X2639603Y-3577081D01*
X2629189Y-3582415D01*
X1718927Y-3689350D02*
G01*
X1827893Y-3689350D01*
X1718927Y-3689350D02*
G01*
X1718927Y-3653028D01*
X1724007Y-3637279D01*
X1734421Y-3627120D01*
X1744835Y-3621786D01*
X1760583Y-3616705D01*
X1786491Y-3616705D01*
X1801985Y-3621786D01*
X1812399Y-3627120D01*
X1822813Y-3637279D01*
X1827893Y-3653028D01*
X1827893Y-3689350D01*
X1734421Y-3519931D02*
G01*
X1724007Y-3525265D01*
X1718927Y-3540760D01*
X1718927Y-3551173D01*
X1724007Y-3566668D01*
X1739755Y-3577081D01*
X1765663Y-3582415D01*
X1791571Y-3582415D01*
X1812399Y-3577081D01*
X1822813Y-3566668D01*
X1827893Y-3551173D01*
X1827893Y-3545839D01*
X1822813Y-3530345D01*
X1812399Y-3519931D01*
X1796905Y-3514852D01*
X1791571Y-3514852D01*
X1776077Y-3519931D01*
X1765663Y-3530345D01*
X1760583Y-3545839D01*
X1760583Y-3551173D01*
X1765663Y-3566668D01*
X1776077Y-3577081D01*
X1791571Y-3582415D01*
X897054Y-3689350D02*
G01*
X1006020Y-3689350D01*
X897054Y-3689350D02*
G01*
X897054Y-3653028D01*
X902134Y-3637279D01*
X912548Y-3627120D01*
X922962Y-3621786D01*
X938710Y-3616705D01*
X964618Y-3616705D01*
X980112Y-3621786D01*
X990526Y-3627120D01*
X1000940Y-3637279D01*
X1006020Y-3653028D01*
X1006020Y-3689350D01*
X897054Y-3509518D02*
G01*
X1006020Y-3561587D01*
X897054Y-3582415D02*
G01*
X897054Y-3509518D01*
X75184Y-3689350D02*
G01*
X184150Y-3689350D01*
X75184Y-3689350D02*
G01*
X75184Y-3653028D01*
X80263Y-3637279D01*
X90678Y-3627120D01*
X101092Y-3621786D01*
X116839Y-3616705D01*
X142747Y-3616705D01*
X158242Y-3621786D01*
X168655Y-3627120D01*
X179070Y-3637279D01*
X184150Y-3653028D01*
X184150Y-3689350D01*
X75184Y-3556254D02*
G01*
X80263Y-3572002D01*
X90678Y-3577081D01*
X101092Y-3577081D01*
X111505Y-3572002D01*
X116839Y-3561587D01*
X121920Y-3540760D01*
X127000Y-3525265D01*
X137413Y-3514852D01*
X147828Y-3509518D01*
X163576Y-3509518D01*
X173989Y-3514852D01*
X179070Y-3519931D01*
X184150Y-3535679D01*
X184150Y-3556254D01*
X179070Y-3572002D01*
X173989Y-3577081D01*
X163576Y-3582415D01*
X147828Y-3582415D01*
X137413Y-3577081D01*
X127000Y-3566668D01*
X121920Y-3551173D01*
X116839Y-3530345D01*
X111505Y-3519931D01*
X101092Y-3514852D01*
X90678Y-3514852D01*
X80263Y-3519931D01*
X75184Y-3535679D01*
X75184Y-3556254D01*
X2629697Y-5588000D02*
G01*
X2738663Y-5588000D01*
X2629697Y-5588000D02*
G01*
X2629697Y-5541263D01*
X2634777Y-5525770D01*
X2640111Y-5520436D01*
X2650525Y-5515355D01*
X2660939Y-5515355D01*
X2671353Y-5520436D01*
X2676433Y-5525770D01*
X2681513Y-5541263D01*
X2681513Y-5588000D01*
X2681513Y-5551678D02*
G01*
X2738663Y-5515355D01*
X2629697Y-5418581D02*
G01*
X2629697Y-5470652D01*
X2676433Y-5475731D01*
X2671353Y-5470652D01*
X2666019Y-5454904D01*
X2666019Y-5439410D01*
X2671353Y-5423915D01*
X2681513Y-5413502D01*
X2697261Y-5408168D01*
X2707675Y-5408168D01*
X2723169Y-5413502D01*
X2733583Y-5423915D01*
X2738663Y-5439410D01*
X2738663Y-5454904D01*
X2733583Y-5470652D01*
X2728503Y-5475731D01*
X2718089Y-5481065D01*
X2023651Y-5587923D02*
G01*
X2132871Y-5587923D01*
X2023651Y-5587923D02*
G01*
X2023651Y-5541187D01*
X2028985Y-5525693D01*
X2034065Y-5520359D01*
X2044479Y-5515279D01*
X2054893Y-5515279D01*
X2065307Y-5520359D01*
X2070387Y-5525693D01*
X2075721Y-5541187D01*
X2075721Y-5587923D01*
X2075721Y-5551601D02*
G01*
X2132871Y-5515279D01*
X2039399Y-5418505D02*
G01*
X2028985Y-5423839D01*
X2023651Y-5439333D01*
X2023651Y-5449747D01*
X2028985Y-5465241D01*
X2044479Y-5475655D01*
X2070387Y-5480989D01*
X2096549Y-5480989D01*
X2117123Y-5475655D01*
X2127537Y-5465241D01*
X2132871Y-5449747D01*
X2132871Y-5444413D01*
X2127537Y-5428919D01*
X2117123Y-5418505D01*
X2101629Y-5413425D01*
X2096549Y-5413425D01*
X2080801Y-5418505D01*
X2070387Y-5428919D01*
X2065307Y-5444413D01*
X2065307Y-5449747D01*
X2070387Y-5465241D01*
X2080801Y-5475655D01*
X2096549Y-5480989D01*
X985954Y-5588000D02*
G01*
X1094920Y-5588000D01*
X985954Y-5588000D02*
G01*
X985954Y-5541263D01*
X991034Y-5525770D01*
X996368Y-5520436D01*
X1006782Y-5515355D01*
X1017196Y-5515355D01*
X1027610Y-5520436D01*
X1032690Y-5525770D01*
X1037770Y-5541263D01*
X1037770Y-5588000D01*
X1037770Y-5551678D02*
G01*
X1094920Y-5515355D01*
X985954Y-5408168D02*
G01*
X1094920Y-5460237D01*
X985954Y-5481065D02*
G01*
X985954Y-5408168D01*
X164084Y-5588000D02*
G01*
X273050Y-5588000D01*
X164084Y-5588000D02*
G01*
X164084Y-5541263D01*
X169163Y-5525770D01*
X174497Y-5520436D01*
X184912Y-5515355D01*
X195326Y-5515355D01*
X205739Y-5520436D01*
X210820Y-5525770D01*
X215900Y-5541263D01*
X215900Y-5588000D01*
X215900Y-5551678D02*
G01*
X273050Y-5515355D01*
X164084Y-5454904D02*
G01*
X169163Y-5470652D01*
X179578Y-5475731D01*
X189992Y-5475731D01*
X200405Y-5470652D01*
X205739Y-5460237D01*
X210820Y-5439410D01*
X215900Y-5423915D01*
X226313Y-5413502D01*
X236728Y-5408168D01*
X252476Y-5408168D01*
X262889Y-5413502D01*
X267970Y-5418581D01*
X273050Y-5434329D01*
X273050Y-5454904D01*
X267970Y-5470652D01*
X262889Y-5475731D01*
X252476Y-5481065D01*
X236728Y-5481065D01*
X226313Y-5475731D01*
X215900Y-5465318D01*
X210820Y-5449823D01*
X205739Y-5428995D01*
X200405Y-5418581D01*
X189992Y-5413502D01*
X179578Y-5413502D01*
X169163Y-5418581D01*
X164084Y-5434329D01*
X164084Y-5454904D01*
X2374900Y-75184D02*
G01*
X2374900Y-184150D01*
X2374900Y-75184D02*
G01*
X2421636Y-75184D01*
X2437129Y-80263D01*
X2442463Y-85597D01*
X2447543Y-96012D01*
X2447543Y-106426D01*
X2442463Y-116839D01*
X2437129Y-121920D01*
X2421636Y-127000D01*
X2374900Y-127000D01*
X2411222Y-127000D02*
G01*
X2447543Y-184150D01*
X2549397Y-111505D02*
G01*
X2544318Y-127000D01*
X2533904Y-137413D01*
X2518409Y-142747D01*
X2513075Y-142747D01*
X2497581Y-137413D01*
X2487168Y-127000D01*
X2481834Y-111505D01*
X2481834Y-106426D01*
X2487168Y-90678D01*
X2497581Y-80263D01*
X2513075Y-75184D01*
X2518409Y-75184D01*
X2533904Y-80263D01*
X2544318Y-90678D01*
X2549397Y-111505D01*
X2549397Y-137413D01*
X2544318Y-163576D01*
X2533904Y-179070D01*
X2518409Y-184150D01*
X2507995Y-184150D01*
X2492247Y-179070D01*
X2487168Y-168655D01*
X990600Y-75184D02*
G01*
X990600Y-184150D01*
X990600Y-75184D02*
G01*
X1037336Y-75184D01*
X1052829Y-80263D01*
X1058163Y-85597D01*
X1063244Y-96012D01*
X1063244Y-106426D01*
X1058163Y-116839D01*
X1052829Y-121920D01*
X1037336Y-127000D01*
X990600Y-127000D01*
X1026921Y-127000D02*
G01*
X1063244Y-184150D01*
X1097534Y-96012D02*
G01*
X1107947Y-90678D01*
X1123695Y-75184D01*
X1123695Y-184150D01*
X1188973Y-75184D02*
G01*
X1173479Y-80263D01*
X1163065Y-96012D01*
X1157986Y-121920D01*
X1157986Y-137413D01*
X1163065Y-163576D01*
X1173479Y-179070D01*
X1188973Y-184150D01*
X1199387Y-184150D01*
X1215136Y-179070D01*
X1225550Y-163576D01*
X1230629Y-137413D01*
X1230629Y-121920D01*
X1225550Y-96012D01*
X1215136Y-80263D01*
X1199387Y-75184D01*
X1188973Y-75184D01*
X5873750Y-3188715D02*
G01*
X5873750Y-3079750D01*
X5873750Y-3188715D02*
G01*
X5837427Y-3188715D01*
X5821679Y-3183636D01*
X5811520Y-3173221D01*
X5806186Y-3162807D01*
X5801106Y-3147060D01*
X5801106Y-3121152D01*
X5806186Y-3105657D01*
X5811520Y-3095244D01*
X5821679Y-3084829D01*
X5837427Y-3079750D01*
X5873750Y-3079750D01*
X5699252Y-3152394D02*
G01*
X5704331Y-3136900D01*
X5714745Y-3126486D01*
X5730240Y-3121152D01*
X5735574Y-3121152D01*
X5751068Y-3126486D01*
X5761481Y-3136900D01*
X5766815Y-3152394D01*
X5766815Y-3157473D01*
X5761481Y-3173221D01*
X5751068Y-3183636D01*
X5735574Y-3188715D01*
X5730240Y-3188715D01*
X5714745Y-3183636D01*
X5704331Y-3173221D01*
X5699252Y-3152394D01*
X5699252Y-3126486D01*
X5704331Y-3100323D01*
X5714745Y-3084829D01*
X5730240Y-3079750D01*
X5740654Y-3079750D01*
X5756402Y-3084829D01*
X5761481Y-3095244D01*
X7028941Y-4409102D02*
G01*
X7018527Y-4414182D01*
X7008113Y-4424596D01*
X7002779Y-4435010D01*
X6997700Y-4450758D01*
X6997700Y-4476666D01*
X7002779Y-4492160D01*
X7008113Y-4502574D01*
X7018527Y-4512988D01*
X7028941Y-4518068D01*
X7049770Y-4518068D01*
X7059929Y-4512988D01*
X7070343Y-4502574D01*
X7075677Y-4492160D01*
X7080758Y-4476666D01*
X7080758Y-4450758D01*
X7075677Y-4435010D01*
X7070343Y-4424596D01*
X7059929Y-4414182D01*
X7049770Y-4409102D01*
X7028941Y-4409102D01*
X7044436Y-4497494D02*
G01*
X7075677Y-4528482D01*
X7115047Y-4429930D02*
G01*
X7125461Y-4424596D01*
X7141209Y-4409102D01*
X7141209Y-4518068D01*
X7206488Y-4409102D02*
G01*
X7190993Y-4414182D01*
X7180579Y-4429930D01*
X7175500Y-4455838D01*
X7175500Y-4471332D01*
X7180579Y-4497494D01*
X7190993Y-4512988D01*
X7206488Y-4518068D01*
X7216902Y-4518068D01*
X7232650Y-4512988D01*
X7242809Y-4497494D01*
X7248143Y-4471332D01*
X7248143Y-4455838D01*
X7242809Y-4429930D01*
X7232650Y-4414182D01*
X7216902Y-4409102D01*
X7206488Y-4409102D01*
X7028941Y-2716784D02*
G01*
X7018527Y-2721863D01*
X7008113Y-2732278D01*
X7002779Y-2742692D01*
X6997700Y-2758439D01*
X6997700Y-2784347D01*
X7002779Y-2799842D01*
X7008113Y-2810255D01*
X7018527Y-2820670D01*
X7028941Y-2825750D01*
X7049770Y-2825750D01*
X7059929Y-2820670D01*
X7070343Y-2810255D01*
X7075677Y-2799842D01*
X7080758Y-2784347D01*
X7080758Y-2758439D01*
X7075677Y-2742692D01*
X7070343Y-2732278D01*
X7059929Y-2721863D01*
X7049770Y-2716784D01*
X7028941Y-2716784D01*
X7044436Y-2805176D02*
G01*
X7075677Y-2836163D01*
X7182611Y-2753105D02*
G01*
X7177531Y-2768600D01*
X7167118Y-2779013D01*
X7151370Y-2784347D01*
X7146290Y-2784347D01*
X7130795Y-2779013D01*
X7120381Y-2768600D01*
X7115047Y-2753105D01*
X7115047Y-2748026D01*
X7120381Y-2732278D01*
X7130795Y-2721863D01*
X7146290Y-2716784D01*
X7151370Y-2716784D01*
X7167118Y-2721863D01*
X7177531Y-2732278D01*
X7182611Y-2753105D01*
X7182611Y-2779013D01*
X7177531Y-2805176D01*
X7167118Y-2820670D01*
X7151370Y-2825750D01*
X7141209Y-2825750D01*
X7125461Y-2820670D01*
X7120381Y-2810255D01*
G36*
X7287006Y-3633774D02*
G01*
X7287006Y-4233773D01*
X7299756Y-4219803D01*
X7311847Y-4205274D01*
X7323328Y-4190237D01*
X7334148Y-4174744D01*
X7344308Y-4158742D01*
X7353706Y-4142384D01*
X7362444Y-4125569D01*
X7370419Y-4108399D01*
X7377633Y-4090924D01*
X7384084Y-4073144D01*
X7389723Y-4055110D01*
X7394600Y-4036822D01*
X7398715Y-4018381D01*
X7401966Y-3999737D01*
X7404404Y-3980992D01*
X7406081Y-3962146D01*
X7406894Y-3943248D01*
X7406894Y-3924300D01*
X7406081Y-3905402D01*
X7404404Y-3886555D01*
X7401966Y-3867810D01*
X7398715Y-3849217D01*
X7394600Y-3830726D01*
X7389723Y-3812438D01*
X7384084Y-3794404D01*
X7377633Y-3776624D01*
X7370419Y-3759149D01*
X7362444Y-3741978D01*
X7353706Y-3725214D01*
X7344308Y-3708806D01*
X7334148Y-3692804D01*
X7323328Y-3677310D01*
X7311847Y-3662273D01*
X7299756Y-3647744D01*
G37*
G36*
X7287006Y-5326075D02*
G01*
X7287006Y-5926124D01*
X7299756Y-5912104D01*
X7311847Y-5897626D01*
X7323328Y-5882589D01*
X7334148Y-5867044D01*
X7344308Y-5851093D01*
X7353706Y-5834684D01*
X7362444Y-5817870D01*
X7370419Y-5800750D01*
X7377633Y-5783275D01*
X7384084Y-5765495D01*
X7389723Y-5747410D01*
X7394600Y-5729173D01*
X7398715Y-5710682D01*
X7401966Y-5692038D01*
X7404404Y-5673293D01*
X7405370Y-5663895D01*
X7406589Y-5644997D01*
X7406995Y-5626100D01*
X7406589Y-5607202D01*
X7405370Y-5588304D01*
X7403287Y-5569508D01*
X7400442Y-5550814D01*
X7398715Y-5541518D01*
X7394600Y-5523026D01*
X7389723Y-5504789D01*
X7384084Y-5486704D01*
X7377633Y-5468924D01*
X7370419Y-5451449D01*
X7362444Y-5434330D01*
X7353706Y-5417515D01*
X7344308Y-5401106D01*
X7334148Y-5385155D01*
X7323328Y-5369610D01*
X7311847Y-5354574D01*
X7299756Y-5340096D01*
G37*
D11*
X5177007Y-2840697D02*
G01*
X5210891Y-2840697D01*
X5210891Y-2147816D01*
X5210891Y-1433596D02*
G01*
X5210891Y-740702D01*
X5177007Y-740702D01*
X5210891Y-1687596D02*
G01*
X5210891Y-1639816D01*
X5210891Y-1941596D02*
G01*
X5210891Y-1893816D01*
X144792Y-740714D02*
G01*
X110916Y-740714D01*
X110898Y-740702D02*
G01*
X110898Y-2840697D01*
X144782Y-2840697D01*
X-19085Y-1390746D02*
G01*
X20932Y-1390746D01*
X20932Y-2190734D01*
X-19085Y-2190734D01*
X20932Y-2171603D02*
G01*
X108369Y-2171603D01*
X110916Y-2174146D01*
X20932Y-1410459D02*
G01*
X110916Y-1410459D01*
X-19085Y-1390746D02*
G01*
X-19085Y-2190734D01*
X398782Y-740702D02*
G01*
X351007Y-740702D01*
X652782Y-740702D02*
G01*
X605007Y-740702D01*
X906782Y-740702D02*
G01*
X859007Y-740702D01*
X1160782Y-740702D02*
G01*
X1113007Y-740702D01*
X1414782Y-740702D02*
G01*
X1367007Y-740702D01*
X1668782Y-740702D02*
G01*
X1621007Y-740702D01*
X1922782Y-740702D02*
G01*
X1875007Y-740702D01*
X2176782Y-740702D02*
G01*
X2129007Y-740702D01*
X2430782Y-740702D02*
G01*
X2383007Y-740702D01*
X2684782Y-740702D02*
G01*
X2637007Y-740702D01*
X2938782Y-740702D02*
G01*
X2891007Y-740702D01*
X3192782Y-740702D02*
G01*
X3145007Y-740702D01*
X3446782Y-740702D02*
G01*
X3399007Y-740702D01*
X3700782Y-740702D02*
G01*
X3653007Y-740702D01*
X3954782Y-740702D02*
G01*
X3907007Y-740702D01*
X4208782Y-740702D02*
G01*
X4161007Y-740702D01*
X4462782Y-740702D02*
G01*
X4415007Y-740702D01*
X4716782Y-740702D02*
G01*
X4669007Y-740702D01*
X4970782Y-740702D02*
G01*
X4923007Y-740702D01*
X4923007Y-2840697D02*
G01*
X4970782Y-2840697D01*
X4669007Y-2840697D02*
G01*
X4716782Y-2840697D01*
X4415007Y-2840697D02*
G01*
X4462782Y-2840697D01*
X4161007Y-2840697D02*
G01*
X4208782Y-2840697D01*
X3907007Y-2840697D02*
G01*
X3954782Y-2840697D01*
X3653007Y-2840697D02*
G01*
X3700782Y-2840697D01*
X3399007Y-2840697D02*
G01*
X3446782Y-2840697D01*
X3145007Y-2840697D02*
G01*
X3192782Y-2840697D01*
X2891007Y-2840697D02*
G01*
X2938782Y-2840697D01*
X2637007Y-2840697D02*
G01*
X2684782Y-2840697D01*
X2383007Y-2840697D02*
G01*
X2430782Y-2840697D01*
X2129007Y-2840697D02*
G01*
X2176782Y-2840697D01*
X1875007Y-2840697D02*
G01*
X1922782Y-2840697D01*
X1621007Y-2840697D02*
G01*
X1668782Y-2840697D01*
X1367007Y-2840697D02*
G01*
X1414782Y-2840697D01*
X1113007Y-2840697D02*
G01*
X1160782Y-2840697D01*
X859007Y-2840697D02*
G01*
X906782Y-2840697D01*
X605007Y-2840697D02*
G01*
X652782Y-2840697D01*
X351007Y-2840697D02*
G01*
X398782Y-2840697D01*
X6791995Y-3813779D02*
G01*
X6667535Y-3813779D01*
X6729765Y-3881089D02*
G01*
X6729765Y-3746469D01*
X6791995Y-5506100D02*
G01*
X6667535Y-5506100D01*
X6729765Y-5573410D02*
G01*
X6729765Y-5438790D01*
X6025006Y-4415662D02*
G01*
X6420993Y-4415662D01*
X5203131Y-4415668D02*
G01*
X5599117Y-4415668D01*
X4381266Y-4415668D02*
G01*
X4777252Y-4415668D01*
X3559403Y-4415668D02*
G01*
X3955389Y-4415668D01*
X2737535Y-4415662D02*
G01*
X3133521Y-4415662D01*
X6064900Y-5903000D02*
G01*
X6064900Y-5272999D01*
X6064900Y-5272999D02*
G01*
X6304899Y-5272999D01*
X6304899Y-5272999D02*
G01*
X6304899Y-5903000D01*
X6304899Y-5903000D02*
G01*
X6064900Y-5903000D01*
X5243029Y-5903000D02*
G01*
X5243029Y-5272999D01*
X5243029Y-5272999D02*
G01*
X5483029Y-5272999D01*
X5483029Y-5272999D02*
G01*
X5483029Y-5903000D01*
X5483029Y-5903000D02*
G01*
X5243029Y-5903000D01*
X4421157Y-5903000D02*
G01*
X4421157Y-5272999D01*
X4421157Y-5272999D02*
G01*
X4661156Y-5272999D01*
X4661156Y-5272999D02*
G01*
X4661156Y-5903000D01*
X4661156Y-5903000D02*
G01*
X4421157Y-5903000D01*
X3599286Y-5903000D02*
G01*
X3599286Y-5272999D01*
X3599286Y-5272999D02*
G01*
X3839286Y-5272999D01*
X3839286Y-5272999D02*
G01*
X3839286Y-5903000D01*
X3839286Y-5903000D02*
G01*
X3599286Y-5903000D01*
X5730300Y-2120892D02*
G01*
X5730300Y-2044692D01*
X5730298Y-1536692D02*
G01*
X5730298Y-1460492D01*
X5730298Y-1663692D02*
G01*
X5730298Y-1536692D01*
X6681000Y-1460492D02*
G01*
X6692894Y-1460492D01*
X6692894Y-2120892D01*
X6681000Y-2120892D01*
X5993594Y-2120892D02*
G01*
X5932418Y-2120892D01*
X6247594Y-2120892D02*
G01*
X6173000Y-2120892D01*
X6501594Y-2120892D02*
G01*
X6427000Y-2120892D01*
X6427000Y-1460492D02*
G01*
X6501594Y-1460492D01*
X6173000Y-1460492D02*
G01*
X6247594Y-1460492D01*
X5919000Y-1460492D02*
G01*
X5993594Y-1460492D01*
X5730298Y-2044692D02*
G01*
X5730298Y-1917692D01*
X6083000Y-3942999D02*
G01*
X6083000Y-3423000D01*
X6083000Y-3423000D02*
G01*
X6362999Y-3423000D01*
X6362999Y-3942999D02*
G01*
X6362999Y-3423000D01*
X6083000Y-3942999D02*
G01*
X6362999Y-3942999D01*
X6083000Y-3847073D02*
G01*
X6362999Y-3847073D01*
X5261129Y-3942999D02*
G01*
X5261129Y-3423000D01*
X5261129Y-3423000D02*
G01*
X5541129Y-3423000D01*
X5541129Y-3942999D02*
G01*
X5541129Y-3423000D01*
X5261129Y-3942999D02*
G01*
X5541129Y-3942999D01*
X5261129Y-3847073D02*
G01*
X5541129Y-3847073D01*
X4439257Y-3942999D02*
G01*
X4439257Y-3423000D01*
X4439257Y-3423000D02*
G01*
X4719256Y-3423000D01*
X4719256Y-3942999D02*
G01*
X4719256Y-3423000D01*
X4439257Y-3942999D02*
G01*
X4719256Y-3942999D01*
X4439257Y-3847073D02*
G01*
X4719256Y-3847073D01*
X3617386Y-3942999D02*
G01*
X3617386Y-3423000D01*
X3617386Y-3423000D02*
G01*
X3897386Y-3423000D01*
X3897386Y-3942999D02*
G01*
X3897386Y-3423000D01*
X3617386Y-3942999D02*
G01*
X3897386Y-3942999D01*
X3617386Y-3847073D02*
G01*
X3897386Y-3847073D01*
X1915657Y-4415662D02*
G01*
X2311643Y-4415662D01*
X1093782Y-4415662D02*
G01*
X1489768Y-4415662D01*
X271906Y-4415662D02*
G01*
X667893Y-4415662D01*
X2795513Y-3942999D02*
G01*
X2795513Y-3423000D01*
X2795513Y-3423000D02*
G01*
X3075513Y-3423000D01*
X3075513Y-3942999D02*
G01*
X3075513Y-3423000D01*
X2795513Y-3942999D02*
G01*
X3075513Y-3942999D01*
X2795513Y-3847073D02*
G01*
X3075513Y-3847073D01*
X1973643Y-3942999D02*
G01*
X1973643Y-3423000D01*
X1973643Y-3423000D02*
G01*
X2253642Y-3423000D01*
X2253642Y-3942999D02*
G01*
X2253642Y-3423000D01*
X1973643Y-3942999D02*
G01*
X2253642Y-3942999D01*
X1973643Y-3847073D02*
G01*
X2253642Y-3847073D01*
X1151770Y-3942999D02*
G01*
X1151770Y-3423000D01*
X1151770Y-3423000D02*
G01*
X1431770Y-3423000D01*
X1431770Y-3942999D02*
G01*
X1431770Y-3423000D01*
X1151770Y-3942999D02*
G01*
X1431770Y-3942999D01*
X1151770Y-3847073D02*
G01*
X1431770Y-3847073D01*
X329900Y-3942999D02*
G01*
X329900Y-3423000D01*
X329900Y-3423000D02*
G01*
X609899Y-3423000D01*
X609899Y-3942999D02*
G01*
X609899Y-3423000D01*
X329900Y-3942999D02*
G01*
X609899Y-3942999D01*
X329900Y-3847073D02*
G01*
X609899Y-3847073D01*
X2777413Y-5903000D02*
G01*
X2777413Y-5272999D01*
X2777413Y-5272999D02*
G01*
X3017413Y-5272999D01*
X3017413Y-5272999D02*
G01*
X3017413Y-5903000D01*
X3017413Y-5903000D02*
G01*
X2777413Y-5903000D01*
X1955543Y-5903000D02*
G01*
X1955543Y-5272999D01*
X1955543Y-5272999D02*
G01*
X2195542Y-5272999D01*
X2195542Y-5272999D02*
G01*
X2195542Y-5903000D01*
X2195542Y-5903000D02*
G01*
X1955543Y-5903000D01*
X1133670Y-5903000D02*
G01*
X1133670Y-5272999D01*
X1133670Y-5272999D02*
G01*
X1373670Y-5272999D01*
X1373670Y-5272999D02*
G01*
X1373670Y-5903000D01*
X1373670Y-5903000D02*
G01*
X1133670Y-5903000D01*
X311800Y-5903000D02*
G01*
X311800Y-5272999D01*
X311800Y-5272999D02*
G01*
X551799Y-5272999D01*
X551799Y-5272999D02*
G01*
X551799Y-5903000D01*
X551799Y-5903000D02*
G01*
X311800Y-5903000D01*
X2059899Y-222900D02*
G01*
X2689900Y-222900D01*
X2689900Y-222900D02*
G01*
X2689900Y-462899D01*
X2689900Y-462899D02*
G01*
X2059899Y-462899D01*
X2059899Y-462899D02*
G01*
X2059899Y-222900D01*
X675599Y-222900D02*
G01*
X1305600Y-222900D01*
X1305600Y-222900D02*
G01*
X1305600Y-462899D01*
X1305600Y-462899D02*
G01*
X675599Y-462899D01*
X675599Y-462899D02*
G01*
X675599Y-222900D01*
X6127399Y-2933999D02*
G01*
X5607400Y-2933999D01*
X5607400Y-2933999D02*
G01*
X5607400Y-2654000D01*
X6127399Y-2654000D02*
G01*
X5607400Y-2654000D01*
X6127399Y-2933999D02*
G01*
X6127399Y-2654000D01*
X6031473Y-2933999D02*
G01*
X6031473Y-2654000D01*
X7233793Y-4979205D02*
G01*
X6837806Y-4979205D01*
X7233793Y-3286887D02*
G01*
X6837806Y-3286887D01*
G75*
G01*
X7012249Y-3533729D02*
G03*
X7019361Y-3533729I3556J-399984D01*
G75*
G01*
X7012249Y-5226050D02*
G03*
X7019361Y-5226050I3556J-399984D01*
G75*
G01*
X6008624Y-4691634D02*
G03*
X6440147Y-4686795I214376J125982D01*
G75*
G01*
X5186749Y-4691639D02*
G03*
X5618272Y-4686800I214376J125982D01*
G75*
G01*
X4364883Y-4691639D02*
G03*
X4796406Y-4686800I214376J125982D01*
G75*
G01*
X3543021Y-4691639D02*
G03*
X3974544Y-4686800I214376J125982D01*
G75*
G01*
X2721153Y-4691634D02*
G03*
X3152676Y-4686795I214376J125982D01*
G75*
G01*
X5730296Y-1663690D02*
G02*
X5730296Y-1917690I0J-127000D01*
G75*
G01*
X1899275Y-4691634D02*
G03*
X2330798Y-4686795I214376J125982D01*
G75*
G01*
X1077399Y-4691634D02*
G03*
X1508923Y-4686795I214376J125982D01*
G75*
G01*
X255524Y-4691634D02*
G03*
X687047Y-4686795I214376J125982D01*
G75*
G01*
X7250176Y-4703234D02*
G03*
X6818653Y-4708073I-214376J-125982D01*
G75*
G01*
X7250176Y-3010916D02*
G03*
X6818653Y-3015755I-214376J-125982D01*
D12*
G75*
G01
X270891Y-3040710D02*
G03X270891Y-3040710I-24994J0D01*
D11*
G75*
G01
X5075885Y-1240714D02*
G03X5075885Y-1240714I-80010J0D01*
G75*
G01
X5135880Y-1240714D02*
G03X5135880Y-1240714I-140005J0D01*
G75*
G01
X5075885Y-2340712D02*
G03X5075885Y-2340712I-80010J0D01*
G75*
G01
X5135880Y-2340712D02*
G03X5135880Y-2340712I-140005J0D01*
G75*
G01
X465887Y-1240714D02*
G03X465887Y-1240714I-140005J0D01*
G75*
G01
X405892Y-1240714D02*
G03X405892Y-1240714I-80010J0D01*
G75*
G01
X465887Y-2340712D02*
G03X465887Y-2340712I-140005J0D01*
G75*
G01
X405892Y-2340712D02*
G03X405892Y-2340712I-80010J0D01*
D13*
G75*
G01
X5710301Y-2195703D02*
G03X5710301Y-2195703I-19990J0D01*
M02*
